<svg xmlns="http://www.w3.org/2000/svg" aria-hidden="true" style="position:absolute;width:0;height:0;overflow:hidden"><symbol id="half-pt" preserveAspectRatio="xMidYMid meet" viewBox="0 0 60 1"><path d="M0 0h60v1H0z" opacity=".5"/></symbol><symbol id="one-pt" preserveAspectRatio="xMidYMid meet" viewBox="0 0 60 1"><path d="M0 0h60v1H0z"/></symbol><symbol id="one-and-half-pt" preserveAspectRatio="xMidYMid meet" viewBox="0 0 60 2"><path d="M0 0h60v2H0z"/></symbol><symbol id="two-and-quarter-pt" preserveAspectRatio="xMidYMid meet" viewBox="0 0 60 3"><path d="M0 0h60v3H0z"/></symbol><symbol id="three-pt" preserveAspectRatio="xMidYMid meet" viewBox="0 0 60 4"><path d="M0 0h60v4H0z"/></symbol><symbol id="four-and-half-pt" preserveAspectRatio="xMidYMid meet" viewBox="0 0 60 6"><path d="M0 0h60v6H0z"/></symbol><symbol id="six-pt" preserveAspectRatio="xMidYMid meet" viewBox="0 0 60 8"><path d="M0 0h60v8H0z"/></symbol><symbol id="solid" viewBox="0 0 60 3"><path d="M0 0h60v3H0z"/></symbol><symbol id="dots" viewBox="0 0 57 3"><path d="M0 0h3v3H0V0Zm6 0h3v3H6V0Zm6 0h3v3h-3V0Zm6 0h3v3h-3V0Zm6 0h3v3h-3V0Zm6 0h3v3h-3V0Zm6 0h3v3h-3V0Zm6 0h3v3h-3V0Zm6 0h3v3h-3V0Zm6 0h3v3h-3V0Z"/></symbol><symbol id="dashes" viewBox="0 0 57 3"><path d="M0 0h9v3H0V0Zm12 0h9v3h-9V0Zm12 0h9v3h-9V0Zm12 0h9v3h-9V0Zm12 0h9v3h-9V0Z"/></symbol><symbol id="dashes-spaced" viewBox="0 0 57 3"><path d="M0 0h9v3H0V0Zm16 0h9v3h-9V0Zm16 0h9v3h-9V0Zm16 0h9v3h-9V0Z"/></symbol><symbol id="dash-dot" viewBox="0 0 57 3"><path d="M0 0h12v3H0V0Zm21 0h3v3h-3V0Zm12 0h12v3H33V0Zm21 0h3v3h-3V0Z"/></symbol><symbol id="dashes-wide" viewBox="0 0 60 3"><path d="M0 0h16v3H0V0Zm22 0h16v3H22V0Zm22 0h16v3H44V0Z"/></symbol><symbol id="wide-dash-dot" viewBox="0 0 56 3"><path d="M0 0h16v3H0V0Zm31 0h16v3H31V0Zm-9 0h3v3h-3V0Zm31 0h3v3h-3V0Z"/></symbol><symbol id="wide-dash-dot-dot" viewBox="0 0 56 3"><path d="M0 0h16v3H0V0Zm40 0h16v3H40V0ZM22 0h3v3h-3V0Zm9 0h3v3h-3V0Z"/></symbol></svg>