<?xml version="1.0" encoding="UTF-8"?>
<svg xmlns="http://www.w3.org/2000/svg" xmlns:xlink="http://www.w3.org/1999/xlink" width="168px" height="168px" viewBox="0 0 168 168" version="1.1">
<g id="surface1">
<path style=" stroke:none;fill-rule:nonzero;fill:rgb(0%,0%,0%);fill-opacity:1;" d="M 152.25 26.414062 L 114.710938 26.414062 C 106.65625 26.414062 98.78125 28.726562 92.007812 33.089844 L 84 38.226562 L 75.992188 33.089844 C 69.234375 28.726562 61.34375 26.414062 53.289062 26.414062 L 15.75 26.414062 C 12.847656 26.414062 10.5 28.761719 10.5 31.664062 L 10.5 124.851562 C 10.5 127.753906 12.847656 130.101562 15.75 130.101562 L 53.289062 130.101562 C 61.34375 130.101562 69.21875 132.414062 75.992188 136.777344 L 83.277344 141.472656 C 83.492188 141.601562 83.738281 141.683594 83.984375 141.683594 C 84.230469 141.683594 84.476562 141.617188 84.6875 141.472656 L 91.972656 136.777344 C 98.765625 132.414062 106.65625 130.101562 114.710938 130.101562 L 152.25 130.101562 C 155.152344 130.101562 157.5 127.753906 157.5 124.851562 L 157.5 31.664062 C 157.5 28.761719 155.152344 26.414062 152.25 26.414062 Z M 53.289062 118.289062 L 22.3125 118.289062 L 22.3125 38.226562 L 53.289062 38.226562 C 59.09375 38.226562 64.738281 39.882812 69.613281 43.015625 L 77.617188 48.152344 L 78.75 48.890625 L 78.75 124.6875 C 70.941406 120.488281 62.210938 118.289062 53.289062 118.289062 Z M 145.6875 118.289062 L 114.710938 118.289062 C 105.789062 118.289062 97.058594 120.488281 89.25 124.6875 L 89.25 48.890625 L 90.382812 48.152344 L 98.386719 43.015625 C 103.261719 39.882812 108.90625 38.226562 114.710938 38.226562 L 145.6875 38.226562 Z M 145.6875 118.289062 "/>
<path style=" stroke:none;fill-rule:nonzero;fill:rgb(0%,0%,0%);fill-opacity:1;" d="M 65.117188 59.226562 L 34.632812 59.226562 C 33.992188 59.226562 33.46875 59.785156 33.46875 60.457031 L 33.46875 67.839844 C 33.46875 68.511719 33.992188 69.070312 34.632812 69.070312 L 65.101562 69.070312 C 65.738281 69.070312 66.265625 68.511719 66.265625 67.839844 L 66.265625 60.457031 C 66.28125 59.785156 65.757812 59.226562 65.117188 59.226562 Z M 101.71875 60.457031 L 101.71875 67.839844 C 101.71875 68.511719 102.242188 69.070312 102.882812 69.070312 L 133.351562 69.070312 C 133.988281 69.070312 134.515625 68.511719 134.515625 67.839844 L 134.515625 60.457031 C 134.515625 59.785156 133.988281 59.226562 133.351562 59.226562 L 102.882812 59.226562 C 102.242188 59.226562 101.71875 59.785156 101.71875 60.457031 Z M 65.117188 82.195312 L 34.632812 82.195312 C 33.992188 82.195312 33.46875 82.753906 33.46875 83.425781 L 33.46875 90.808594 C 33.46875 91.480469 33.992188 92.039062 34.632812 92.039062 L 65.101562 92.039062 C 65.738281 92.039062 66.265625 91.480469 66.265625 90.808594 L 66.265625 83.425781 C 66.28125 82.753906 65.757812 82.195312 65.117188 82.195312 Z M 133.367188 82.195312 L 102.882812 82.195312 C 102.242188 82.195312 101.71875 82.753906 101.71875 83.425781 L 101.71875 90.808594 C 101.71875 91.480469 102.242188 92.039062 102.882812 92.039062 L 133.351562 92.039062 C 133.988281 92.039062 134.515625 91.480469 134.515625 90.808594 L 134.515625 83.425781 C 134.53125 82.753906 134.007812 82.195312 133.367188 82.195312 Z M 133.367188 82.195312 "/>
</g>
</svg>
