<?xml version="1.0" encoding="UTF-8"?>
<svg xmlns="http://www.w3.org/2000/svg" xmlns:xlink="http://www.w3.org/1999/xlink" width="48px" height="48px" viewBox="0 0 48 48" version="1.1">
<g id="surface1">
<path style=" stroke:none;fill-rule:nonzero;fill:rgb(0%,0%,0%);fill-opacity:1;" d="M 43.5 7.546875 L 32.773438 7.546875 C 30.472656 7.546875 28.222656 8.207031 26.289062 9.453125 L 24 10.921875 L 21.710938 9.453125 C 19.78125 8.207031 17.527344 7.546875 15.226562 7.546875 L 4.5 7.546875 C 3.671875 7.546875 3 8.21875 3 9.046875 L 3 35.671875 C 3 36.5 3.671875 37.171875 4.5 37.171875 L 15.226562 37.171875 C 17.527344 37.171875 19.777344 37.832031 21.710938 39.078125 L 23.792969 40.421875 C 23.855469 40.457031 23.925781 40.480469 23.996094 40.480469 C 24.066406 40.480469 24.136719 40.460938 24.195312 40.421875 L 26.277344 39.078125 C 28.21875 37.832031 30.472656 37.171875 32.773438 37.171875 L 43.5 37.171875 C 44.328125 37.171875 45 36.5 45 35.671875 L 45 9.046875 C 45 8.21875 44.328125 7.546875 43.5 7.546875 Z M 15.226562 33.796875 L 6.375 33.796875 L 6.375 10.921875 L 15.226562 10.921875 C 16.882812 10.921875 18.496094 11.394531 19.890625 12.289062 L 22.175781 13.757812 L 22.5 13.96875 L 22.5 35.625 C 20.269531 34.425781 17.773438 33.796875 15.226562 33.796875 Z M 41.625 33.796875 L 32.773438 33.796875 C 30.226562 33.796875 27.730469 34.425781 25.5 35.625 L 25.5 13.96875 L 25.824219 13.757812 L 28.109375 12.289062 C 29.503906 11.394531 31.117188 10.921875 32.773438 10.921875 L 41.625 10.921875 Z M 41.625 33.796875 "/>
<path style=" stroke:none;fill-rule:nonzero;fill:rgb(0%,0%,0%);fill-opacity:1;" d="M 18.605469 16.921875 L 9.894531 16.921875 C 9.710938 16.921875 9.5625 17.082031 9.5625 17.273438 L 9.5625 19.382812 C 9.5625 19.574219 9.710938 19.734375 9.894531 19.734375 L 18.601562 19.734375 C 18.78125 19.734375 18.933594 19.574219 18.933594 19.382812 L 18.933594 17.273438 C 18.9375 17.082031 18.789062 16.921875 18.605469 16.921875 Z M 29.0625 17.273438 L 29.0625 19.382812 C 29.0625 19.574219 29.210938 19.734375 29.394531 19.734375 L 38.101562 19.734375 C 38.28125 19.734375 38.433594 19.574219 38.433594 19.382812 L 38.433594 17.273438 C 38.433594 17.082031 38.28125 16.921875 38.101562 16.921875 L 29.394531 16.921875 C 29.210938 16.921875 29.0625 17.082031 29.0625 17.273438 Z M 18.605469 23.484375 L 9.894531 23.484375 C 9.710938 23.484375 9.5625 23.644531 9.5625 23.835938 L 9.5625 25.945312 C 9.5625 26.136719 9.710938 26.296875 9.894531 26.296875 L 18.601562 26.296875 C 18.78125 26.296875 18.933594 26.136719 18.933594 25.945312 L 18.933594 23.835938 C 18.9375 23.644531 18.789062 23.484375 18.605469 23.484375 Z M 38.105469 23.484375 L 29.394531 23.484375 C 29.210938 23.484375 29.0625 23.644531 29.0625 23.835938 L 29.0625 25.945312 C 29.0625 26.136719 29.210938 26.296875 29.394531 26.296875 L 38.101562 26.296875 C 38.28125 26.296875 38.433594 26.136719 38.433594 25.945312 L 38.433594 23.835938 C 38.4375 23.644531 38.289062 23.484375 38.105469 23.484375 Z M 38.105469 23.484375 "/>
</g>
</svg>
