<?xml version="1.0" encoding="UTF-8"?>
<svg xmlns="http://www.w3.org/2000/svg" xmlns:xlink="http://www.w3.org/1999/xlink" width="96px" height="96px" viewBox="0 0 96 96" version="1.1">
<g id="surface1">
<path style=" stroke:none;fill-rule:nonzero;fill:rgb(0%,0%,0%);fill-opacity:1;" d="M 87 15.09375 L 65.550781 15.09375 C 60.945312 15.09375 56.445312 16.414062 52.574219 18.910156 L 48 21.84375 L 43.425781 18.910156 C 39.5625 16.414062 35.054688 15.09375 30.449219 15.09375 L 9 15.09375 C 7.339844 15.09375 6 16.433594 6 18.09375 L 6 71.34375 C 6 73.003906 7.339844 74.34375 9 74.34375 L 30.449219 74.34375 C 35.054688 74.34375 39.554688 75.664062 43.425781 78.160156 L 47.585938 80.839844 C 47.710938 80.914062 47.851562 80.960938 47.992188 80.960938 C 48.132812 80.960938 48.273438 80.925781 48.394531 80.839844 L 52.554688 78.160156 C 56.4375 75.664062 60.945312 74.34375 65.550781 74.34375 L 87 74.34375 C 88.660156 74.34375 90 73.003906 90 71.34375 L 90 18.09375 C 90 16.433594 88.660156 15.09375 87 15.09375 Z M 30.449219 67.59375 L 12.75 67.59375 L 12.75 21.84375 L 30.449219 21.84375 C 33.769531 21.84375 36.992188 22.789062 39.777344 24.582031 L 44.351562 27.515625 L 45 27.9375 L 45 71.25 C 40.539062 68.851562 35.550781 67.59375 30.449219 67.59375 Z M 83.25 67.59375 L 65.550781 67.59375 C 60.449219 67.59375 55.460938 68.851562 51 71.25 L 51 27.9375 L 51.648438 27.515625 L 56.222656 24.582031 C 59.007812 22.789062 62.230469 21.84375 65.550781 21.84375 L 83.25 21.84375 Z M 83.25 67.59375 "/>
<path style=" stroke:none;fill-rule:nonzero;fill:rgb(0%,0%,0%);fill-opacity:1;" d="M 37.210938 33.84375 L 19.789062 33.84375 C 19.425781 33.84375 19.125 34.164062 19.125 34.546875 L 19.125 38.765625 C 19.125 39.148438 19.425781 39.46875 19.789062 39.46875 L 37.199219 39.46875 C 37.566406 39.46875 37.867188 39.148438 37.867188 38.765625 L 37.867188 34.546875 C 37.875 34.164062 37.574219 33.84375 37.210938 33.84375 Z M 58.125 34.546875 L 58.125 38.765625 C 58.125 39.148438 58.425781 39.46875 58.789062 39.46875 L 76.199219 39.46875 C 76.566406 39.46875 76.867188 39.148438 76.867188 38.765625 L 76.867188 34.546875 C 76.867188 34.164062 76.566406 33.84375 76.199219 33.84375 L 58.789062 33.84375 C 58.425781 33.84375 58.125 34.164062 58.125 34.546875 Z M 37.210938 46.96875 L 19.789062 46.96875 C 19.425781 46.96875 19.125 47.289062 19.125 47.671875 L 19.125 51.890625 C 19.125 52.273438 19.425781 52.59375 19.789062 52.59375 L 37.199219 52.59375 C 37.566406 52.59375 37.867188 52.273438 37.867188 51.890625 L 37.867188 47.671875 C 37.875 47.289062 37.574219 46.96875 37.210938 46.96875 Z M 76.210938 46.96875 L 58.789062 46.96875 C 58.425781 46.96875 58.125 47.289062 58.125 47.671875 L 58.125 51.890625 C 58.125 52.273438 58.425781 52.59375 58.789062 52.59375 L 76.199219 52.59375 C 76.566406 52.59375 76.867188 52.273438 76.867188 51.890625 L 76.867188 47.671875 C 76.875 47.289062 76.574219 46.96875 76.210938 46.96875 Z M 76.210938 46.96875 "/>
</g>
</svg>
