<?xml version="1.0" encoding="UTF-8"?>
<svg xmlns="http://www.w3.org/2000/svg" xmlns:xlink="http://www.w3.org/1999/xlink" width="72px" height="72px" viewBox="0 0 72 72" version="1.1">
<g id="surface1">
<path style=" stroke:none;fill-rule:nonzero;fill:rgb(0%,0%,0%);fill-opacity:1;" d="M 65.25 11.320312 L 49.164062 11.320312 C 45.710938 11.320312 42.335938 12.3125 39.429688 14.183594 L 36 16.382812 L 32.570312 14.183594 C 29.671875 12.3125 26.289062 11.320312 22.835938 11.320312 L 6.75 11.320312 C 5.503906 11.320312 4.5 12.324219 4.5 13.570312 L 4.5 53.507812 C 4.5 54.753906 5.503906 55.757812 6.75 55.757812 L 22.835938 55.757812 C 26.289062 55.757812 29.664062 56.75 32.570312 58.621094 L 35.691406 60.628906 C 35.78125 60.6875 35.886719 60.722656 35.992188 60.722656 C 36.097656 60.722656 36.203125 60.695312 36.296875 60.628906 L 39.417969 58.621094 C 42.328125 56.75 45.710938 55.757812 49.164062 55.757812 L 65.25 55.757812 C 66.496094 55.757812 67.5 54.753906 67.5 53.507812 L 67.5 13.570312 C 67.5 12.324219 66.496094 11.320312 65.25 11.320312 Z M 22.835938 50.695312 L 9.5625 50.695312 L 9.5625 16.382812 L 22.835938 16.382812 C 25.328125 16.382812 27.746094 17.09375 29.832031 18.4375 L 33.265625 20.636719 L 33.75 20.953125 L 33.75 53.4375 C 30.402344 51.636719 26.664062 50.695312 22.835938 50.695312 Z M 62.4375 50.695312 L 49.164062 50.695312 C 45.335938 50.695312 41.597656 51.636719 38.25 53.4375 L 38.25 20.953125 L 38.734375 20.636719 L 42.167969 18.4375 C 44.253906 17.09375 46.671875 16.382812 49.164062 16.382812 L 62.4375 16.382812 Z M 62.4375 50.695312 "/>
<path style=" stroke:none;fill-rule:nonzero;fill:rgb(0%,0%,0%);fill-opacity:1;" d="M 27.90625 25.382812 L 14.84375 25.382812 C 14.570312 25.382812 14.34375 25.621094 14.34375 25.910156 L 14.34375 29.074219 C 14.34375 29.363281 14.570312 29.601562 14.84375 29.601562 L 27.898438 29.601562 C 28.175781 29.601562 28.398438 29.363281 28.398438 29.074219 L 28.398438 25.910156 C 28.40625 25.621094 28.179688 25.382812 27.90625 25.382812 Z M 43.59375 25.910156 L 43.59375 29.074219 C 43.59375 29.363281 43.820312 29.601562 44.09375 29.601562 L 57.148438 29.601562 C 57.425781 29.601562 57.648438 29.363281 57.648438 29.074219 L 57.648438 25.910156 C 57.648438 25.621094 57.425781 25.382812 57.148438 25.382812 L 44.09375 25.382812 C 43.820312 25.382812 43.59375 25.621094 43.59375 25.910156 Z M 27.90625 35.226562 L 14.84375 35.226562 C 14.570312 35.226562 14.34375 35.464844 14.34375 35.753906 L 14.34375 38.917969 C 14.34375 39.207031 14.570312 39.445312 14.84375 39.445312 L 27.898438 39.445312 C 28.175781 39.445312 28.398438 39.207031 28.398438 38.917969 L 28.398438 35.753906 C 28.40625 35.464844 28.179688 35.226562 27.90625 35.226562 Z M 57.15625 35.226562 L 44.09375 35.226562 C 43.820312 35.226562 43.59375 35.464844 43.59375 35.753906 L 43.59375 38.917969 C 43.59375 39.207031 43.820312 39.445312 44.09375 39.445312 L 57.148438 39.445312 C 57.425781 39.445312 57.648438 39.207031 57.648438 38.917969 L 57.648438 35.753906 C 57.65625 35.464844 57.429688 35.226562 57.15625 35.226562 Z M 57.15625 35.226562 "/>
</g>
</svg>
