<?xml version="1.0" encoding="UTF-8"?>
<svg xmlns="http://www.w3.org/2000/svg" xmlns:xlink="http://www.w3.org/1999/xlink" width="192px" height="192px" viewBox="0 0 192 192" version="1.1">
<g id="surface1">
<path style=" stroke:none;fill-rule:nonzero;fill:rgb(0%,0%,0%);fill-opacity:1;" d="M 174 30.1875 L 131.101562 30.1875 C 121.894531 30.1875 112.894531 32.832031 105.148438 37.820312 L 96 43.6875 L 86.851562 37.820312 C 79.125 32.832031 70.105469 30.1875 60.898438 30.1875 L 18 30.1875 C 14.679688 30.1875 12 32.867188 12 36.1875 L 12 142.6875 C 12 146.007812 14.679688 148.6875 18 148.6875 L 60.898438 148.6875 C 70.105469 148.6875 79.105469 151.332031 86.851562 156.320312 L 95.175781 161.679688 C 95.417969 161.832031 95.699219 161.925781 95.980469 161.925781 C 96.261719 161.925781 96.542969 161.851562 96.789062 161.679688 L 105.113281 156.320312 C 112.875 151.332031 121.894531 148.6875 131.101562 148.6875 L 174 148.6875 C 177.320312 148.6875 180 146.007812 180 142.6875 L 180 36.1875 C 180 32.867188 177.320312 30.1875 174 30.1875 Z M 60.898438 135.1875 L 25.5 135.1875 L 25.5 43.6875 L 60.898438 43.6875 C 67.539062 43.6875 73.988281 45.582031 79.554688 49.164062 L 88.707031 55.03125 L 90 55.875 L 90 142.5 C 81.074219 137.699219 71.101562 135.1875 60.898438 135.1875 Z M 166.5 135.1875 L 131.101562 135.1875 C 120.898438 135.1875 110.925781 137.699219 102 142.5 L 102 55.875 L 103.292969 55.03125 L 112.445312 49.164062 C 118.011719 45.582031 124.460938 43.6875 131.101562 43.6875 L 166.5 43.6875 Z M 166.5 135.1875 "/>
<path style=" stroke:none;fill-rule:nonzero;fill:rgb(0%,0%,0%);fill-opacity:1;" d="M 74.417969 67.6875 L 39.582031 67.6875 C 38.851562 67.6875 38.25 68.324219 38.25 69.09375 L 38.25 77.53125 C 38.25 78.300781 38.851562 78.9375 39.582031 78.9375 L 74.398438 78.9375 C 75.132812 78.9375 75.730469 78.300781 75.730469 77.53125 L 75.730469 69.09375 C 75.75 68.324219 75.148438 67.6875 74.417969 67.6875 Z M 116.25 69.09375 L 116.25 77.53125 C 116.25 78.300781 116.851562 78.9375 117.582031 78.9375 L 152.398438 78.9375 C 153.132812 78.9375 153.730469 78.300781 153.730469 77.53125 L 153.730469 69.09375 C 153.730469 68.324219 153.132812 67.6875 152.398438 67.6875 L 117.582031 67.6875 C 116.851562 67.6875 116.25 68.324219 116.25 69.09375 Z M 74.417969 93.9375 L 39.582031 93.9375 C 38.851562 93.9375 38.25 94.574219 38.25 95.34375 L 38.25 103.78125 C 38.25 104.550781 38.851562 105.1875 39.582031 105.1875 L 74.398438 105.1875 C 75.132812 105.1875 75.730469 104.550781 75.730469 103.78125 L 75.730469 95.34375 C 75.75 94.574219 75.148438 93.9375 74.417969 93.9375 Z M 152.417969 93.9375 L 117.582031 93.9375 C 116.851562 93.9375 116.25 94.574219 116.25 95.34375 L 116.25 103.78125 C 116.25 104.550781 116.851562 105.1875 117.582031 105.1875 L 152.398438 105.1875 C 153.132812 105.1875 153.730469 104.550781 153.730469 103.78125 L 153.730469 95.34375 C 153.75 94.574219 153.148438 93.9375 152.417969 93.9375 Z M 152.417969 93.9375 "/>
</g>
</svg>
