<?xml version="1.0" encoding="UTF-8"?>
<svg xmlns="http://www.w3.org/2000/svg" xmlns:xlink="http://www.w3.org/1999/xlink" width="144px" height="144px" viewBox="0 0 144 144" version="1.1">
<g id="surface1">
<path style=" stroke:none;fill-rule:nonzero;fill:rgb(0%,0%,0%);fill-opacity:1;" d="M 130.5 22.640625 L 98.324219 22.640625 C 91.421875 22.640625 84.671875 24.625 78.863281 28.363281 L 72 32.765625 L 65.136719 28.363281 C 59.34375 24.625 52.578125 22.640625 45.675781 22.640625 L 13.5 22.640625 C 11.011719 22.640625 9 24.652344 9 27.140625 L 9 107.015625 C 9 109.503906 11.011719 111.515625 13.5 111.515625 L 45.675781 111.515625 C 52.578125 111.515625 59.328125 113.5 65.136719 117.238281 L 71.382812 121.261719 C 71.5625 121.375 71.773438 121.445312 71.984375 121.445312 C 72.195312 121.445312 72.40625 121.386719 72.589844 121.261719 L 78.835938 117.238281 C 84.65625 113.5 91.421875 111.515625 98.324219 111.515625 L 130.5 111.515625 C 132.988281 111.515625 135 109.503906 135 107.015625 L 135 27.140625 C 135 24.652344 132.988281 22.640625 130.5 22.640625 Z M 45.675781 101.390625 L 19.125 101.390625 L 19.125 32.765625 L 45.675781 32.765625 C 50.652344 32.765625 55.492188 34.1875 59.667969 36.871094 L 66.53125 41.273438 L 67.5 41.90625 L 67.5 106.875 C 60.804688 103.273438 53.324219 101.390625 45.675781 101.390625 Z M 124.875 101.390625 L 98.324219 101.390625 C 90.675781 101.390625 83.195312 103.273438 76.5 106.875 L 76.5 41.90625 L 77.46875 41.273438 L 84.332031 36.871094 C 88.507812 34.1875 93.347656 32.765625 98.324219 32.765625 L 124.875 32.765625 Z M 124.875 101.390625 "/>
<path style=" stroke:none;fill-rule:nonzero;fill:rgb(0%,0%,0%);fill-opacity:1;" d="M 55.8125 50.765625 L 29.6875 50.765625 C 29.136719 50.765625 28.6875 51.242188 28.6875 51.820312 L 28.6875 58.148438 C 28.6875 58.726562 29.136719 59.203125 29.6875 59.203125 L 55.800781 59.203125 C 56.347656 59.203125 56.796875 58.726562 56.796875 58.148438 L 56.796875 51.820312 C 56.8125 51.242188 56.363281 50.765625 55.8125 50.765625 Z M 87.1875 51.820312 L 87.1875 58.148438 C 87.1875 58.726562 87.636719 59.203125 88.1875 59.203125 L 114.300781 59.203125 C 114.847656 59.203125 115.296875 58.726562 115.296875 58.148438 L 115.296875 51.820312 C 115.296875 51.242188 114.847656 50.765625 114.300781 50.765625 L 88.1875 50.765625 C 87.636719 50.765625 87.1875 51.242188 87.1875 51.820312 Z M 55.8125 70.453125 L 29.6875 70.453125 C 29.136719 70.453125 28.6875 70.929688 28.6875 71.507812 L 28.6875 77.835938 C 28.6875 78.414062 29.136719 78.890625 29.6875 78.890625 L 55.800781 78.890625 C 56.347656 78.890625 56.796875 78.414062 56.796875 77.835938 L 56.796875 71.507812 C 56.8125 70.929688 56.363281 70.453125 55.8125 70.453125 Z M 114.3125 70.453125 L 88.1875 70.453125 C 87.636719 70.453125 87.1875 70.929688 87.1875 71.507812 L 87.1875 77.835938 C 87.1875 78.414062 87.636719 78.890625 88.1875 78.890625 L 114.300781 78.890625 C 114.847656 78.890625 115.296875 78.414062 115.296875 77.835938 L 115.296875 71.507812 C 115.3125 70.929688 114.863281 70.453125 114.3125 70.453125 Z M 114.3125 70.453125 "/>
</g>
</svg>
