<svg xmlns="http://www.w3.org/2000/svg" width="40" height="40" fill="none"><defs><style>g{display:none}g:target{display:inline}</style></defs><g id="attention"><path fill="#FFD112" d="M3.252 31.19 18.366 4.943c.724-1.257 2.544-1.257 3.268 0L36.748 31.19c.72 1.251-.187 2.81-1.634 2.81H4.886c-1.447 0-2.354-1.559-1.634-2.81Z"/><path fill="#fff" fill-rule="evenodd" d="M21 25h-2l-1-7v-6h4v6l-1 7Zm1 6h-4v-4h4v4Z" clip-rule="evenodd"/></g><g id="done"><circle cx="20" cy="20" r="16" fill="#090"/><path stroke="#fff" stroke-width="4" d="m12 20 6 6 11-11"/></g><g id="info"><circle cx="20" cy="20" r="16" fill="#007DF1"/><path fill="#fff" fill-rule="evenodd" d="M22 10h-4v4h4v-4Zm0 7h-4v13h4V17Z" clip-rule="evenodd"/></g><g id="warning"><circle cx="20" cy="20" r="16" fill="#F62211"/><path fill="#fff" d="M10 17h20v6H10z"/></g></svg>