<svg xmlns="http://www.w3.org/2000/svg" aria-hidden="true" style="position:absolute;width:0;height:0;overflow:hidden"><symbol id="svg-icon-accentBorderCallout1" viewBox="0 0 20 20"><path d="M17 6h-6v7h6V6zm1-1v9h-8V5h8zM8 5h1v9H8v-3.715l-4.631 5.052-.737-.676 5.369-5.857V4.999z"/></symbol><symbol id="svg-icon-accentBorderCallout2" viewBox="0 0 20 20"><path d="M18 6h-6v7h6V6zm1-1v9h-8V5h8zM9 5h1v9H9v-4H5.297l-2.858 5.239-.878-.479 3.142-5.761H9v-4z"/></symbol><symbol id="svg-icon-accentBorderCallout3" viewBox="0 0 20 20"><path d="M17 6h-6v7h6V6zm1-1v9h-8V5h8zM8 5h1v9H8v-4H4v3.27l3.325 2.85-.651.759-3.675-3.15v-4.73h5v-4z"/></symbol><symbol id="svg-icon-accentCallout1" viewBox="0 0 20 20"><path d="M12 5h-2v1h2V5zm-1 2h-1v2h1V7zm6 0h1v2h-1V7zm-6 3h-1v2h1v-2zm6 0h1v2h-1v-2zm-5 4v-1h-2v1h2zm1-1h2v1h-2v-1zm5 1v-1h-2v1h2zm-5-9h2v1h-2V5zm5 0h-2v1h2V5zM8 5h1v9H8v-3.715l-4.631 5.052-.737-.676 5.369-5.857V4.999z"/></symbol><symbol id="svg-icon-accentCallout2" viewBox="0 0 20 20"><path d="M9 5h1v9H9v-4H5.297l-2.858 5.239-.878-.479 3.142-5.761H9v-4zm4 0h-2v1h2V5zm-1 2h-1v2h1V7zm6 0h1v2h-1V7zm-6 3h-1v2h1v-2zm6 0h1v2h-1v-2zm-5 4v-1h-2v1h2zm1-1h2v1h-2v-1zm5 1v-1h-2v1h2zm-5-9h2v1h-2V5zm5 0h-2v1h2V5z"/></symbol><symbol id="svg-icon-accentCallout3" viewBox="0 0 20 20"><path d="M8 4h1v9H8V9H4v3.293l3.354 3.353-.707.707-3.646-3.646V8h5V4zm4 0h-2v1h2V4zm-1 2h-1v2h1V6zm6 0h1v2h-1V6zm-6 3h-1v2h1V9zm6 0h1v2h-1V9zm-5 4v-1h-2v1h2zm1-1h2v1h-2v-1zm5 1v-1h-2v1h2zm-5-9h2v1h-2V4zm5 0h-2v1h2V4z"/></symbol><symbol id="svg-icon-actionButtonBackPrevious" viewBox="0 0 20 20"><path d="M17 17H3V3h14v14zm1 1V2H2v16h16z"/><path d="M14 15V5l-9 5 9 5zm-1-1.699L7.059 10 13 6.7v6.601z"/></symbol><symbol id="svg-icon-actionButtonBeginning" viewBox="0 0 20 20"><path d="M17 3H3v14h14V3zm1-1v16H2V2h16z"/><path d="M15 5v10l-8-5 8-5zm-1 1.804L8.887 10 14 13.196V6.804zM5 5h1v10H5V5z"/></symbol><symbol id="svg-icon-actionButtonBlank" viewBox="0 0 20 20"><path d="M17 3H3v14h14V3zm1-1v16H2V2h16z"/></symbol><symbol id="svg-icon-actionButtonDocument" viewBox="0 0 20 20"><path d="M17 3H3v14h14V3zm1-1v16H2V2h16z"/><path d="M11 5H6v10h8V8l-3-3zm0 1.5L12.5 8H11V6.5zm2 7.5H7V6h3v3h3v5z"/></symbol><symbol id="svg-icon-actionButtonEnd" viewBox="0 0 20 20"><path d="M3 17h14V3H3v14zm-1 1V2h16v16H2z"/><path d="M5 15V5l8 5-8 5zm1-1.804L11.113 10 6 6.804v6.392zM15 15h-1V5h1v10z"/></symbol><symbol id="svg-icon-actionButtonForwardNext" viewBox="0 0 20 20"><path fill="none" stroke="#444" stroke-miterlimit="10" d="M17.5 17.5v-15h-15v15h15z" style="stroke:var(--color1, #444)"/><path fill="none" stroke="#444" stroke-miterlimit="10" d="M13.97 10 6.5 5.85v8.3L13.97 10z" style="stroke:var(--color1, #444)"/><path d="M3 3h14v14H3V3zM2 2v16h16V2H2z"/><path d="M6 5v10l9-5-9-5zm1 1.7 5.941 3.3L7 13.301V6.7z"/></symbol><symbol id="svg-icon-actionButtonHelp" viewBox="0 0 20 20"><path fill-rule="evenodd" d="M17 3H3v14h14V3Zm1-1v16H2V2h16Z"/><path fill-rule="evenodd" d="M8.809 11.261v-.533a2.81 2.81 0 0 1 .285-1.28c.096-.32.476-.64.953-1.068.345-.198.64-.492.856-.853.172-.203.273-.468.286-.747a.821.821 0 0 0-.085-.441.703.703 0 0 0-.296-.306 1.12 1.12 0 0 0-.399-.259 1.027 1.027 0 0 0-.458-.06 5.187 5.187 0 0 0-2.19.746L7 4.86a5.402 5.402 0 0 1 3.142-.854 3.157 3.157 0 0 1 2.094.64c.252.232.451.526.583.86.133.333.194.696.179 1.06.018.483-.08.963-.286 1.388a5.291 5.291 0 0 1-1.237 1.387c-.292.196-.55.449-.762.747a.885.885 0 0 0-.175.347.954.954 0 0 0-.015.4v.426H8.809Zm-.19 2.454a1.186 1.186 0 0 1 .057-.463c.05-.147.127-.28.228-.39.116-.116.252-.204.399-.26.147-.054.303-.075.458-.06a.944.944 0 0 1 .41.073c.13.055.25.139.352.247.118.099.214.228.28.376.066.148.1.312.1.477-.01.364-.146.709-.38.96a1.037 1.037 0 0 1-.352.247.944.944 0 0 1-.41.073 1.028 1.028 0 0 1-.458-.06 1.119 1.119 0 0 1-.399-.26 1.324 1.324 0 0 1-.231-.447 1.426 1.426 0 0 1-.055-.513Z"/></symbol><symbol id="svg-icon-actionButtonHome" viewBox="0 0 20 20"><path d="M17 3H3v14h14V3zm1-1v16H2V2h16z"/><path d="M12 14v-3H8v3h1v-2h2v2h1z"/><path d="M5 9v6h10V5h-2v2l-3-2.5L5 9zm9 1v4H6v-4h8zm-.162-1H6.495l3.53-3.177L13.838 9z"/></symbol><symbol id="svg-icon-actionButtonInformation" viewBox="0 0 20 20"><path d="M17 3v14H3V3h14zM2 2v16h16V2H2z"/><path d="M10 15a5 5 0 1 0-.001-10.001A5 5 0 0 0 10 15zm6-5a6 6 0 1 1-12 0 6 6 0 0 1 12 0z"/><path d="m11.007 7.017-1.999-.009-.009.995 1.999.009.009-.995zM8 9h3v2h1v1H8v-1h1v-1H8V9z"/></symbol><symbol id="svg-icon-actionButtonMovie" viewBox="0 0 20 20"><path d="M17 3H3v14h14V3zm1-1v16H2V2h16z"/><path d="M14 7v1h-1V7H5v4h1v-1h1v3h6v-2h1v1h1V7h-1zM6 9V8h4v1H6zm6 3H8v-2h3V8h1v4zm2-2h-1V9h1v1z"/></symbol><symbol id="svg-icon-actionButtonReturn" viewBox="0 0 20 20"><path d="M17 3H3v14h14V3zm1-1v16H2V2h16z"/><path d="M12.5 5 16 9h-2v1.5a4.5 4.5 0 0 1-9 0V9h3v1.5a1.5 1.5 0 0 0 3 0V9H9l3.5-4zm.5 4V8h1l-1.5-1.5L11 8h1v2.5a2.5 2.5 0 1 1-5 0V10H6v.5a3.5 3.5 0 1 0 7 0V9z"/></symbol><symbol id="svg-icon-actionButtonSound" viewBox="0 0 20 20"><path d="M17 3H3v14h14V3zm1-1v16H2V2h16z"/><path d="M8 8H5v4h3l3 3V5L8 8zm2 4.5L8.5 11H6V9h2.5L10 7.5v5zM15 9h-3v1h3V9zm-1.444-5L12 5.556l.707.707 1.556-1.556L13.556 4zm.707 10.556L12.707 13l-.707.707 1.556 1.556.707-.707z"/></symbol><symbol id="svg-icon-arc" viewBox="0 0 20 20"><path d="M3.491 4.163A21.72 21.72 0 0 0 2 4.039v-1.04c.432.02.98.058 1.611.132 1.582.185 3.701.594 5.827 1.491s4.279 2.291 5.9 4.455C16.815 11.049 17.828 13.632 18 17h-1.035c-.171-3.152-1.119-5.517-2.453-7.299-1.482-1.979-3.465-3.274-5.474-4.121S5.012 4.342 3.492 4.163z"/></symbol><symbol id="svg-icon-bentArrow" viewBox="0 0 20 20"><path d="M13 8v2l3.333-2.5L13 5v2H6a2 2 0 0 0-2 2v7h1v-6a2 2 0 0 1 2-2h6zm-1-5 6 4.5-6 4.5V9H7a1 1 0 0 0-1 1v7H3V9a3 3 0 0 1 3-3h6V3z"/></symbol><symbol id="svg-icon-bentConnector5" viewBox="0 0 20 20"><path d="M9 5H2V4h8v11h8v1H9V5z"/></symbol><symbol id="svg-icon-bentConnector5WithArrow" viewBox="0 0 20 20"><path d="M2 4h6v11h7.793l-1.147 1.146.707.707 2.353-2.354-2.353-2.354-.707.707 1.147 1.146H9v-11H2v1z"/></symbol><symbol id="svg-icon-bentConnector5WithTwoArrows" viewBox="0 0 20 20"><path d="m4.646 1.646.707.707-1.646 1.646H10v11h6.293l-1.146-1.146.707-.707 2.353 2.353-2.353 2.354-.707-.707 1.146-1.147H9v-11H3.707l1.646 1.646-.707.707-2.854-2.854 2.854-2.854z"/></symbol><symbol id="svg-icon-bentUpArrow" viewBox="0 0 20 20"><path d="M14 8v9H3v-3h8V8H8l4.5-5L17 8h-3zm-1 8V7h1.755L12.5 4.495 10.245 7H12v8H4v1h9z"/></symbol><symbol id="svg-icon-bevel" viewBox="0 0 20 20"><path d="M14.293 15H5.707l-2 2h12.586l-2-2zM5 14.293V5.707l-2-2v12.586l2-2zM14.293 5l2-2H3.707l2 2h8.586zm.707.707v8.586l2 2V3.707l-2 2zM2 2h16v16H2V2zm12 12V6H6v8h8z"/></symbol><symbol id="svg-icon-blockArc" viewBox="0 0 20 20"><path d="M17.938 13c.041.328.062.661.062 1h-4a4 4 0 0 0-8 0H2a8.001 8.001 0 0 1 15.938-1zM3.071 13H5.1a5.002 5.002 0 0 1 9.8 0h2.029a7.002 7.002 0 0 0-13.858 0z"/></symbol><symbol id="svg-icon-borderCallout1" viewBox="0 0 20 20"><path d="M9 5h9v9H8v-3.715l-4.631 5.052-.737-.676 5.369-5.857V4.999h1zm0 8h8V6H9v7z"/></symbol><symbol id="svg-icon-borderCallout2" viewBox="0 0 20 20"><path d="M10 5h9v9H9v-4H5.297l-2.858 5.239-.878-.479 3.142-5.761H9v-4h1zm0 8h8V6h-8v7z"/></symbol><symbol id="svg-icon-borderCallout3" viewBox="0 0 20 20"><path d="M9 5h9v9H8v-4H4v3.27l3.325 2.85-.651.759-3.675-3.15v-4.73h5v-4h1zm0 8h8V6H9v7z"/></symbol><symbol id="svg-icon-bracePair" viewBox="0 0 20 20"><path d="M13 16.125c.438-.171.81-.493 1.057-.916s.355-.922.307-1.418v-1.556c-.042-.457.049-.918.261-1.318s.533-.721.921-.918c-.388-.198-.71-.518-.921-.918s-.303-.86-.261-1.318V6.305c0-1.361-.454-2.139-1.364-2.431l.182-.875A3.865 3.865 0 0 1 15 4.166c.382.636.573 1.383.546 2.139v1.458c0 1.167.545 1.75 1.454 1.75v.972c-.909 0-1.454.583-1.454 1.75v1.458A3.887 3.887 0 0 1 15 15.832a4.319 4.319 0 0 1-1.818 1.167L13 16.124zM7.4 3.9a2.302 2.302 0 0 0-1.5 2.4v1.6a2.308 2.308 0 0 1-1.3 2.3 2.305 2.305 0 0 1 1.3 2.3V14c0 1.4.5 2.2 1.5 2.5l-.2.9a4.297 4.297 0 0 1-2-1.2 3.798 3.798 0 0 1-.6-2.2v-1.5c0-1.2-.6-1.8-1.6-1.8v-1c1 0 1.6-.6 1.6-1.8V6.4a3.798 3.798 0 0 1 .6-2.2 4.8 4.8 0 0 1 2-1.2l.2.9z"/></symbol><symbol id="svg-icon-callout1" viewBox="0 0 20 20"><path d="M8 5h1v1H8V5zm0 2h1v2H8v1h1v2H8v-1.715l-4.631 5.052-.737-.676 5.369-5.857V6.999zm0 6v1h1v-1H8zm2-8h2v1h-2V5zm8 2h-1v2h1V7zm0 3h-1v2h1v-2zm-6 3v1h-2v-1h2zm3 0h-2v1h2v-1zm3 0v1h-2v-1h2zm-3-8h-2v1h2V5zm1 0h2v1h-2V5z"/></symbol><symbol id="svg-icon-callout2" viewBox="0 0 20 20"><path d="M9 5h1v1H9V5zm0 2h1v2H9V7zm0 3H5.297l-2.858 5.239-.878-.479 3.142-5.761H9v1zm0 0h1v2H9v-2zm0 3h1v1H9v-1zm2-8h2v1h-2V5zm8 2h-1v2h1V7zm0 3h-1v2h1v-2zm-6 3v1h-2v-1h2zm3 0h-2v1h2v-1zm3 0v1h-2v-1h2zm-3-8h-2v1h2V5zm1 0h2v1h-2V5z"/></symbol><symbol id="svg-icon-callout3" viewBox="0 0 20 20"><path d="M8 4h1v1H8V4zm0 2h1v2H8v1H4v3.293l3.354 3.353-.707.707-3.646-3.646V8h5V6zm0 3v2h1V9H8zm0 4v-1h1v1H8zm2-9h2v1h-2V4zm8 2h-1v2h1V6zm0 3h-1v2h1V9zm-6 3v1h-2v-1h2zm3 0h-2v1h2v-1zm3 0v1h-2v-1h2zm-3-8h-2v1h2V4zm1 0h2v1h-2V4z"/></symbol><symbol id="svg-icon-can" viewBox="0 0 20 20"><path d="M10 17c1.228 0 2.321-.253 3.07-.622.813-.401.93-.769.93-.878V5c-.912.607-2.364 1-4 1s-3.088-.393-4-1v10.5c0 .109.117.477.93.878.749.369 1.842.622 3.07.622zM6 3.5c0 .108.113.474.912.873C7.651 4.742 8.741 5 10 5s2.35-.257 3.088-.627c.798-.399.912-.766.912-.873 0-.109-.117-.477-.93-.878C12.321 2.253 11.228 2 10 2s-2.321.252-3.07.622c-.813.401-.93.769-.93.878zm-1 0C5 2.119 7.239 1 10 1c2.694 0 4.89 1.065 4.996 2.399.003.034.004.067.004.101v12c0 1.4-2.3 2.5-5 2.5s-5-1.1-5-2.5v-12z"/></symbol><symbol id="svg-icon-chevron" viewBox="0 0 20 20"><path d="m3 15 5.891-5.5L3 4h8l6 5.5-6 5.5H3zM5.536 5l4.82 4.5-4.82 4.5h5.075l4.909-4.5L10.611 5H5.536z"/></symbol><symbol id="svg-icon-chord" viewBox="0 0 20 20"><path d="m7.333 3.231 9.436 9.435a7.18 7.18 0 0 1-13.454-.735 7.184 7.184 0 0 1 1.263-6.602 7.174 7.174 0 0 1 2.756-2.098zM7.538 2A8.301 8.301 0 0 0 2 9.794a8.206 8.206 0 0 0 15.999 2.564L7.537 2z"/></symbol><symbol id="svg-icon-circularArrow" viewBox="0 0 20 20"><path d="M13 11.4h-2.108l2.608 3.825 2.608-3.825H14V9A5 5 0 0 0 4 9v6h1V9a4 4 0 0 1 8 0v2.4zm5-1L13.5 17 9 10.4h3V9a3 3 0 1 0-6 0v7H3V9a6 6 0 1 1 12 0v1.4h3z"/></symbol><symbol id="svg-icon-cloud" viewBox="0 0 20 20"><path d="m12.001 7.224.749-.192a1 1 0 0 1 1.251.969v.018l-.02 1.174 1.162-.166a2.5 2.5 0 1 1-1.018 4.562l-.963-.637-.493 1.044a3.501 3.501 0 0 1-5.923.664l-.646-.824-.793.683a2 2 0 1 1-2.38-3.202l.796-.51-.464-.824a2 2 0 0 1 2.086-2.951l.695.119.346-.615a3 3 0 0 1 5.244.015l.375.676zM16 8.035a3.578 3.578 0 0 0-1 0V8a2.001 2.001 0 0 0-2.499-1.937 4.001 4.001 0 0 0-6.991-.02 3 3 0 0 0-3.125 4.428 3 3 0 1 0 3.571 4.803A4.49 4.49 0 0 0 9.499 17a4.49 4.49 0 0 0 3.545-1.728c.205-.262.382-.547.526-.851a3.483 3.483 0 0 0 1.93.58 3.5 3.5 0 0 0 .5-6.965z"/></symbol><symbol id="svg-icon-cloudCallout" viewBox="0 0 20 20"><path d="M5 15v-1H4v2h2v-1H5zm-2 2v-1H2v2h2v-1H3zm11.613-9.205.689.437a1.5 1.5 0 0 1-1.444 2.625l-.75-.356-.488.672A1.996 1.996 0 0 1 11 12a1.995 1.995 0 0 1-1.667-.895L8.5 9.853l-.833 1.252a2 2 0 1 1-2.635-2.856l1.128-.625-.886-.937a1 1 0 0 1 .89-1.674l.748.122.32-.687a2.5 2.5 0 0 1 4.569.07l.361.843.871-.286a1.5 1.5 0 0 1 1.872 1.959l-.29.762zM3.764 8A3 3 0 1 0 8.5 11.659c.19.285.427.536.7.741a2.998 2.998 0 0 0 4.23-.64 2.5 2.5 0 0 0 2.408-4.372 2.5 2.5 0 0 0-3.119-3.264 3.5 3.5 0 0 0-6.394-.098 2 2 0 0 0-1.777 3.349c-.295.164-.56.376-.783.625z"/></symbol><symbol id="svg-icon-corner" viewBox="0 0 20 20"><path d="M10 11h8v7H2V2h8v9zm7 1H9V3H3v14h14v-5z"/></symbol><symbol id="svg-icon-cube" viewBox="0 0 20 20"><path d="M6 3 2 7v11h11l4-4V3H6zm.5 1h9l-3 3h-9l3-3zM3 17V8h9v9H3zm10-.5V8l3-3v8.5l-3 3z"/></symbol><symbol id="svg-icon-curvedConnector3" viewBox="0 0 20 20"><path d="M6 4h3.5c1.235 0 2.421.909 2.792 2.171.389 1.323-.131 2.9-2.002 4.235-1.63 1.164-1.859 2.337-1.623 3.139.254.863 1.068 1.454 1.833 1.454H14v1h-3.5c-1.235 0-2.421-.909-2.792-2.171-.389-1.323.131-2.899 2.002-4.235 1.63-1.164 1.859-2.337 1.623-3.14-.254-.863-1.068-1.454-1.833-1.454H6v-1z"/></symbol><symbol id="svg-icon-curvedConnector3WithArrow" viewBox="0 0 20 20"><path d="M9.5 4H6v1h3.5c.765 0 1.579.591 1.833 1.454.236.802.006 1.975-1.623 3.14-1.87 1.336-2.391 2.913-2.002 4.235C8.079 15.091 9.265 16 10.5 16h2.793l-1.146 1.147.707.707 2.353-2.354-2.353-2.353-.707.707L13.293 15H10.5c-.765 0-1.579-.591-1.833-1.454-.236-.802-.006-1.976 1.623-3.139 1.87-1.336 2.391-2.913 2.002-4.235-.371-1.262-1.557-2.171-2.792-2.171z"/></symbol><symbol id="svg-icon-curvedConnector3WithTwoArrows" viewBox="0 0 20 20"><path d="m7.646 1.646.707.707-1.646 1.646H9.5c1.235 0 2.421.909 2.792 2.171.389 1.323-.131 2.9-2.002 4.235-1.63 1.164-1.859 2.337-1.623 3.139.254.863 1.068 1.454 1.833 1.454h2.793l-1.146-1.146.707-.707 2.353 2.353-2.353 2.354-.707-.707 1.146-1.147H10.5c-1.235 0-2.421-.909-2.792-2.171-.389-1.323.131-2.899 2.002-4.235 1.63-1.164 1.859-2.337 1.623-3.14-.254-.863-1.068-1.454-1.833-1.454H6.707l1.646 1.646-.707.707-2.854-2.854 2.854-2.854z"/></symbol><symbol id="svg-icon-curvedDownArrow" viewBox="0 0 20 20"><path d="m2 14 .022-.521c.104-2.449.913-4.923 1.965-6.295 1.034-1.349 2.364-2.183 3.534-2.183h4c.464 0 .937.2 1.369.492.439.296.878.715 1.284 1.22.776.967 1.461 2.289 1.795 3.788H18l-4 4.5-4-4.5h2.019c-.031-.984-.291-2.103-.783-2.98-.524-.934-1.26-1.52-2.214-1.52-.417 0-.804.199-1.172.611-.374.419-.701 1.029-.971 1.762-.539 1.462-.808 3.782-.857 5.145l-.017.482H2.001zm4.983-7.913c-.666.201-1.473.754-2.202 1.705-.85 1.109-1.546 3.203-1.725 5.208h1.991c.091-1.368.371-3.557.893-4.973.268-.726.609-1.408 1.042-1.94zM11.343 6c.3.303.554.655.765 1.03.624 1.112.914 2.5.914 3.67v.8h-.793L14 13.586l1.815-2.086h-.793v-.65c-.288-1.398-.921-2.632-1.627-3.512-.357-.445-.724-.789-1.063-1.017-.346-.234-.623-.321-.809-.321h-.179z"/></symbol><symbol id="svg-icon-curvedLeftArrow" viewBox="0 0 20 20"><path d="m6 2 .521.022c2.449.104 4.923.913 6.296 1.965C14.165 5.021 15 6.351 15 7.521v4c0 .464-.201.937-.492 1.369-.297.439-.715.878-1.22 1.284-.967.776-2.289 1.461-3.788 1.795V18L5 14l4.5-4v2.019c.984-.031 2.103-.291 2.98-.783.934-.524 1.52-1.26 1.52-2.214 0-.417-.199-.804-.611-1.172-.419-.374-1.029-.701-1.762-.971-1.462-.539-3.782-.808-5.145-.857L6 6.005V2.001zm7.913 4.983c-.201-.666-.754-1.473-1.705-2.202C11.099 3.931 9.005 3.235 7 3.056v1.991c1.368.091 3.557.371 4.973.893.726.268 1.408.609 1.94 1.042zm.087 4.36c-.303.3-.655.554-1.03.765-1.112.624-2.5.914-3.67.914h-.8v-.793L6.414 14 8.5 15.815v-.793h.65c1.398-.288 2.632-.921 3.512-1.627.445-.357.789-.724 1.017-1.063.234-.346.321-.623.321-.809v-.179z"/></symbol><symbol id="svg-icon-curvedRightArrow" viewBox="0 0 20 20"><path d="m14 2-.521.022c-2.449.104-4.923.913-6.295 1.965-1.349 1.034-2.183 2.364-2.183 3.534v4c0 .464.2.937.492 1.369.296.439.715.878 1.22 1.284.967.776 2.289 1.461 3.788 1.795V18l4.5-4-4.5-4v2.019c-.984-.031-2.103-.291-2.98-.783-.934-.524-1.52-1.26-1.52-2.214 0-.417.199-.804.611-1.172.419-.374 1.029-.701 1.762-.971 1.462-.539 3.782-.808 5.145-.857l.482-.017V2.001zM6.087 6.983c.201-.666.754-1.473 1.705-2.202 1.109-.85 3.203-1.546 5.208-1.725v1.991c-1.368.091-3.557.371-4.973.893-.726.268-1.408.609-1.94 1.042zM6 11.343c.303.3.655.554 1.03.765 1.112.624 2.5.914 3.67.914h.8v-.793L13.586 14 11.5 15.815v-.793h-.65c-1.398-.288-2.632-.921-3.512-1.627-.445-.357-.789-.724-1.017-1.063-.234-.346-.321-.623-.321-.809v-.179z"/></symbol><symbol id="svg-icon-curvedUpArrow" viewBox="0 0 20 20"><path d="m2 6 .022.521c.104 2.449.913 4.923 1.965 6.296C5.021 14.165 6.351 15 7.521 15h4c.464 0 .937-.2 1.369-.492.439-.297.878-.715 1.284-1.22.776-.967 1.461-2.289 1.795-3.788H18L14 5l-4 4.5h2.019c-.031.984-.291 2.103-.783 2.98-.524.934-1.26 1.52-2.214 1.52-.417 0-.804-.199-1.172-.611-.374-.419-.701-1.029-.971-1.762-.539-1.462-.808-3.782-.857-5.145L6.005 6H2.001zm4.983 7.913c-.666-.201-1.473-.754-2.202-1.705C3.931 11.1 3.235 9.005 3.056 7h1.991c.091 1.368.371 3.557.893 4.973.268.726.609 1.408 1.042 1.94zm4.36.087c.3-.303.554-.655.765-1.03.624-1.112.914-2.5.914-3.67v-.8h-.793L14 6.414 15.815 8.5h-.793v.65c-.288 1.398-.921 2.632-1.627 3.512-.357.445-.724.789-1.063 1.017-.346.234-.623.321-.809.321h-.179z"/></symbol><symbol id="svg-icon-decagon" viewBox="0 0 20 20"><path d="M7.214 17h5.572L17 12.786V7.214L12.786 3H7.214L3 7.214v5.572L7.214 17zm5.986 1H6.8L2 13.2V6.8L6.8 2h6.4L18 6.8v6.4L13.2 18z"/><path d="M9 7v6h4V7H9zm3 5h-2V8h2v4zM7 7v1H6v1h1v4h1V7H7z"/></symbol><symbol id="svg-icon-diagStripe" viewBox="0 0 20 20"><path d="M3 12.414 12.414 3H17v.586L3.586 17H3v-4.586zM2 12v6h2L18 4V2h-6L2 12z"/></symbol><symbol id="svg-icon-diamond" viewBox="0 0 20 20"><path d="M10 3.414 16.586 10 10 16.586 3.414 10 10 3.414zM2 10l8 8 8-8-8-8-8 8z"/></symbol><symbol id="svg-icon-dodecagon" viewBox="0 0 20 20"><path fill-rule="evenodd" d="M7.214 17 3 12.786V7.214L7.214 3h5.572L17 7.214v5.572L12.786 17H7.214Zm5.986 1H6.8L2 13.2V6.8L6.8 2h6.4L18 6.8v6.4L13.2 18Z"/><path fill-rule="evenodd" d="M8 7v1H7v1h1v4h1V7H8Zm2 0h3v3h-1V8h-2V7Zm1 4v-1h1v1h-1Zm0 0v1h2v1h-3v-2h1Z"/></symbol><symbol id="svg-icon-donut" viewBox="0 0 20 20"><path d="M10 17a7 7 0 1 1 0-14 7 7 0 0 1 0 14zm0 1a8 8 0 1 0 0-16 8 8 0 0 0 0 16z"/><path d="M10 14a4 4 0 1 1 0-8 4 4 0 0 1 0 8zm0 1a5 5 0 1 0-.001-10.001A5 5 0 0 0 10 15z"/></symbol><symbol id="svg-icon-doubleWave" viewBox="0 0 20 20"><path d="M3 14.041c.167-.027.334-.041.5-.041.603 0 1.123.202 1.55.433.367.199.724.454 1.029.671l.113.081c.725.515 1.233.815 1.809.815.361 0 .577-.08.737-.174.186-.109.346-.264.594-.521l.041-.042c.221-.229.531-.551.932-.8.461-.286 1.01-.463 1.696-.463.688 0 1.232.179 1.683.488.357.245.633.565.817.778l.066.076c.207.237.347.374.524.473.163.091.427.186.911.186.216 0 .502-.107.75-.306a1.12 1.12 0 0 0 .239-.251l.011-.018V6.961a3.23 3.23 0 0 1-.5.039c-.606 0-1.121-.204-1.542-.439-.346-.193-.685-.442-.973-.652l-.136-.099c-.686-.499-1.202-.809-1.849-.809-.56 0-.803.218-1.293.707l-.026.026c-.51.511-1.266 1.267-2.681 1.267-.688 0-1.232-.179-1.683-.488-.357-.245-.633-.565-.817-.778l-.066-.076c-.207-.237-.347-.374-.524-.473C4.749 5.095 4.485 5 4.001 5c-.315 0-.61.098-.802.232-.185.129-.198.228-.198.268v8.541zm0 1.018c-.355.08-.711.238-1 .441v-10C2 4.6 3 4 4 4c1.32 0 1.803.557 2.26 1.083C6.669 5.554 7.056 6 8 6c1 0 1.5-.5 2-1s1-1 2-1c1.072 0 1.856.574 2.585 1.108.631.462 1.219.892 1.915.892.164 0 .332-.019.5-.056a2.78 2.78 0 0 0 1-.444v10c0 .6-1 1.5-2 1.5-1.32 0-1.803-.557-2.26-1.083-.408-.471-.796-.917-1.74-.917-.984 0-1.452.484-1.927.976C9.582 16.484 9.083 17 8 17c-.984 0-1.765-.556-2.502-1.082C4.837 15.447 4.21 15 3.5 15c-.161 0-.331.021-.5.059z"/></symbol><symbol id="svg-icon-downArrow" viewBox="0 0 20 20"><path d="M8 9H5l5.5 7.333L16 9h-3V3H8v6zm10-1-7.5 10L3 8h4V2h7v6h4z"/></symbol><symbol id="svg-icon-downArrowCallout" viewBox="0 0 20 20"><path d="M12 10h4V3H5v7h4v4H7.587l2.913 2.648L13.413 14H12v-4zm4 3-5.5 5L5 13h3v-2H4V2h13v9h-4v2h3z"/></symbol><symbol id="svg-icon-ellipse" viewBox="0 0 20 20"><path d="M10 5c3.9 0 7 2.2 7 5s-3.1 5-7 5-7-2.2-7-5 3.1-5 7-5zm0-1c-4.4 0-8 2.7-8 6s3.6 6 8 6 8-2.7 8-6-3.6-6-8-6z"/></symbol><symbol id="svg-icon-ellipseRibbon" viewBox="0 0 20 20"><path d="m4.566 9-1.8-3H6v6H2.766l1.8-3zM7 8.436C7.848 8.8 8.897 9 10 9s2.152-.199 3-.564v4.314c0 .1-.082.393-.662.719-.548.308-1.373.531-2.338.531s-1.79-.222-2.338-.531c-.58-.326-.662-.62-.662-.719V8.436zM14 6h3.234l-1.8 3 1.8 3H14V6zm-.024 7H19l-2.4-4L19 5h-7a1 1 0 0 0-1 1v1.937a7.882 7.882 0 0 1-2 0V6a1 1 0 0 0-1-1H1l2.4 4L1 13h5.024c.221 1.125 1.917 2 3.976 2s3.754-.875 3.976-2z"/></symbol><symbol id="svg-icon-ellipseRibbon2" viewBox="0 0 20 20"><path d="m15.434 11 1.8 3H14V8h3.234l-1.8 3zM13 11.563c-.848-.364-1.897-.563-3-.563s-2.152.199-3 .563V7.25c0-.1.082-.393.662-.719C8.21 6.223 9.035 6 10 6s1.79.222 2.338.531c.579.326.662.62.662.719v4.313zM6 14H2.766l1.8-3-1.8-3H6v6zm.024-7H1l2.4 4L1 15h7a1 1 0 0 0 1-1v-1.937a7.882 7.882 0 0 1 2 0V14a1 1 0 0 0 1 1h7l-2.4-4L19 7h-5.024C13.755 5.875 12.059 5 10 5s-3.754.875-3.976 2z"/></symbol><symbol id="svg-icon-flowChartAlternateProcess" viewBox="0 0 20 20"><path d="M14 5H6a3 3 0 0 0-3 3v4a3 3 0 0 0 3 3h8a3 3 0 0 0 3-3V8a3 3 0 0 0-3-3zM6 4h8a4 4 0 0 1 4 4v4a4 4 0 0 1-4 4H6a4 4 0 0 1-4-4V8a4 4 0 0 1 4-4z"/></symbol><symbol id="svg-icon-flowChartCollate" viewBox="0 0 20 20"><path d="m5 17 4.5-7L5 3h9l-4.5 7 4.5 7H5zm4.5-8.849L12.168 4H6.831l2.668 4.151zm0 3.698L6.832 16h5.337l-2.668-4.151z"/></symbol><symbol id="svg-icon-flowChartConnector" viewBox="0 0 20 20"><path d="M10 15a5 5 0 1 0-.001-10.001A5 5 0 0 0 10 15zm6-5a6 6 0 1 1-12 0 6 6 0 0 1 12 0z"/></symbol><symbol id="svg-icon-flowChartDecision" viewBox="0 0 20 20"><path d="M3 9.5 10.5 5 18 9.5 10.5 14 3 9.5zm1.944 0 5.556 3.334L16.056 9.5 10.5 6.166 4.944 9.5z"/></symbol><symbol id="svg-icon-flowChartDelay" viewBox="0 0 20 20"><path d="M9.999 4c3.252.007 5.976 2.727 6.001 6.005.009 3.285-2.732 5.988-6.001 5.995H4V4h5.999zM10 3H3v14h7c3.813-.007 7.012-3.151 7-7-.027-3.822-3.193-6.993-7-7z"/></symbol><symbol id="svg-icon-flowChartDisplay" viewBox="0 0 20 20"><path d="M7.6 16 4.133 9.5 7.6 3h5.87c.769 0 1.629.524 2.352 1.727.71 1.183 1.179 2.874 1.179 4.773s-.468 3.59-1.179 4.773C15.1 15.476 14.239 16 13.47 16H7.6zM3 9.5 7 17h6.47C15.987 17 18 13.6 18 9.5S15.987 2 13.47 2H7L3 9.5z"/></symbol><symbol id="svg-icon-flowChartDocument" viewBox="0 0 20 20"><path d="M17 5H3v8.679c.307.4.804.93 1.435 1.385.763.55 1.644.936 2.565.936 1.674 0 2.79-.518 4.24-1.192l.194-.09.03-.014c1.499-.695 3.203-1.485 5.537-1.666V5zm1 9c-2.639 0-4.443.836-6.146 1.625l-.229.106c-1.43.665-2.726 1.268-4.626 1.268-2.4 0-4.333-2-5-3v-10h16v10z"/></symbol><symbol id="svg-icon-flowChartExtract" viewBox="0 0 20 20"><path d="M3 16 9.5 3 16 16H3zm1.618-1h9.764L9.5 5.236 4.618 15z"/></symbol><symbol id="svg-icon-flowChartInputOutput" viewBox="0 0 20 20"><path d="M2 16 6.966 4H18l-5.076 12H2zm1.496-1h8.765l4.23-10H7.634L3.496 15z"/></symbol><symbol id="svg-icon-flowChartInternalStorage" viewBox="0 0 20 20"><path d="M16 4H4v12h12V4zm1-1v14H3V3h14z"/><path d="M6 3H5v14h1V3z"/><path d="M17 5H3v1h14V5z"/></symbol><symbol id="svg-icon-flowChartMagneticDisk" viewBox="0 0 20 20"><path d="M15.998 7.985c.382-.162.718-.34 1-.53v6.737a1.789 1.789 0 0 1-.26.199c-.371.242-.956.51-1.701.759-1.484.496-3.389.85-4.984.85s-3.501-.354-5-.851a10.458 10.458 0 0 1-1.271-.506 4.934 4.934 0 0 1-.472-.26A1.955 1.955 0 0 1 3 14.15V7.453c.282.191.618.369 1 .531C5.466 8.607 7.611 9 10 9s4.532-.392 5.998-1.015zM2.439 14.988c.098.08.21.16.336.24.487.308 1.171.607 1.963.87 1.584.525 3.597.902 5.315.902s3.731-.377 5.301-.902c.785-.263 1.459-.562 1.931-.87l.062-.041a3.018 3.018 0 0 0 .343-.273c.184-.177.293-.353.308-.524a.561.561 0 0 0 0-.082V6.065L18 6l-.002-.065v-.027l-.003-.008a1.182 1.182 0 0 0-.061-.284c-.467-1.371-3.403-2.453-7.084-2.599A18.944 18.944 0 0 0 10.052 3h-.053c-4.07 0-7.431 1.14-7.935 2.615a1.18 1.18 0 0 0-.065.37v8.322c0 .103.035.209.101.316a3.001 3.001 0 0 0 .048.07c.043.058.094.116.154.173.042.04.087.081.136.121zm.564-8.739L3 6.002V6c0-.026.01-.17.292-.419.281-.249.744-.519 1.402-.766C6.003 4.324 7.879 4 10 4h.053c.257 0 .509.005.756.016h.003c1.885.075 3.519.405 4.664.865.575.231.982.477 1.236.703.256.228.285.369.288.403v.02l-.002.028v.212l-.559.378c-1.124.759-3.51 1.374-6.439 1.374-2.93 0-5.317-.616-6.44-1.375l-.557-.376zm-.055 7.843.001.002.002.003z"/></symbol><symbol id="svg-icon-flowChartMagneticDrum" viewBox="0 0 20 20"><path d="M12.015 15.998c.162.382.34.718.531 1H5.809a1.789 1.789 0 0 1-.199-.26c-.242-.371-.51-.956-.759-1.701-.496-1.484-.85-3.389-.85-4.984s.354-3.501.851-5c.164-.495.337-.924.506-1.271.088-.18.175-.338.26-.472A1.955 1.955 0 0 1 5.851 3h6.697a5.892 5.892 0 0 0-.531 1c-.623 1.466-1.016 3.611-1.016 6s.393 4.532 1.015 5.998zM5.012 2.439c-.08.098-.16.21-.24.336-.308.487-.607 1.171-.87 1.963C3.377 6.322 3 8.335 3 10.053s.377 3.731.902 5.301c.262.785.562 1.459.87 1.931l.041.062a3.018 3.018 0 0 0 .273.343c.177.184.353.293.524.308a.561.561 0 0 0 .082 0h8.243L14 18l.065-.002h.027l.008-.003c.096-.008.19-.029.284-.061 1.371-.467 2.453-3.403 2.599-7.084.011-.261.017-.527.017-.798v-.053c0-4.07-1.14-7.431-2.615-7.935a1.176 1.176 0 0 0-.37-.065H5.693a.605.605 0 0 0-.316.101l-.043.028-.027.02a1.409 1.409 0 0 0-.173.154c-.04.042-.081.087-.121.136zm8.739.564L14 3c.026 0 .17.01.419.292.249.281.519.744.766 1.402C15.676 6.003 16 7.879 16 10v.053c0 .257-.005.509-.016.756v.003c-.075 1.885-.405 3.519-.865 4.664-.231.575-.477.982-.703 1.236-.228.256-.369.285-.403.288h-.02l-.028-.002h-.212l-.378-.559c-.759-1.124-1.374-3.51-1.374-6.439 0-2.93.616-5.317 1.375-6.44l.376-.557zm-7.843-.055-.002.001-.003.002z"/></symbol><symbol id="svg-icon-flowChartMagneticTape" viewBox="0 0 20 20"><path d="M13.829 15H17v1h-7a6 6 0 1 1 6-6 5.967 5.967 0 0 1-1.075 3.428L13.828 15zm2.497-2A7 7 0 1 0 10 17h8v-3h-2.255c.22-.315.415-.65.581-1z"/></symbol><symbol id="svg-icon-flowChartManualInput" viewBox="0 0 20 20"><path d="M3 9.735 17 5.36V15H3V9.735zM2 9v7h16V4L2 9z"/></symbol><symbol id="svg-icon-flowChartManualOperation" viewBox="0 0 20 20"><path d="M6.721 15 3.388 5h13.196l-3.556 10H6.721zM6 16h7.733L18 4H2l4 12z"/></symbol><symbol id="svg-icon-flowChartMerge" viewBox="0 0 20 20"><path d="M16 3 9.5 16 3 3h13zm-1.618 1H4.618L9.5 13.764 14.382 4z"/></symbol><symbol id="svg-icon-flowChartMultidocument" viewBox="0 0 20 20"><path fill-rule="evenodd" d="M6 5.998V4h12v8.99h-2v.999h-2v.998c-2.818 0-4.047.635-5.121 1.189-.832.429-1.57.81-2.879.81a4.305 4.305 0 0 1-4-1.999V7.995h2V5.998h2Zm1 0h9v5.993h1V4.999H7v.999Zm7 1.997H5v-.998h10v5.993h-1V7.995Zm-1 1v4.994a11.11 11.11 0 0 0-4.6 1.298 4.504 4.504 0 0 1-2.4.7 3.504 3.504 0 0 1-3-1.3V8.995h10Z"/></symbol><symbol id="svg-icon-flowChartOffpageConnector" viewBox="0 0 20 20"><path d="m6 9.948 4.5 3.75 4.5-3.75V5H6v4.948zm10 .469L10.5 15 5 10.417V4h11v6.417z"/></symbol><symbol id="svg-icon-flowChartOnlineStorage" viewBox="0 0 20 20"><path d="M5.318 12.682A4.499 4.499 0 0 1 8.5 5h5.964a7.496 7.496 0 0 0 0 9H8.5a4.5 4.5 0 0 1-3.182-1.318zM8.5 4A5.496 5.496 0 0 0 3 9.5 5.496 5.496 0 0 0 8.5 15H17a6.502 6.502 0 0 1 0-11H8.5z"/></symbol><symbol id="svg-icon-flowChartOr" viewBox="0 0 20 20"><path d="M10 15.981A6.502 6.502 0 0 1 4.019 10H10v5.981zM4.019 9A6.502 6.502 0 0 1 10 3.019V9H4.019zm12.962 1A6.502 6.502 0 0 1 11 15.981V10h5.981zm0-1H11V3.019A6.502 6.502 0 0 1 16.981 9zm1.003 0a7.5 7.5 0 1 0 0 1H18V9h-.016z"/></symbol><symbol id="svg-icon-flowChartPredefinedProcess" viewBox="0 0 20 20"><path d="M17 5H3v10h14V5zm1-1v12H2V4h16z"/><path d="M5 4H4v12h1V4zm11 0h-1v12h1V4z"/></symbol><symbol id="svg-icon-flowChartPreparation" viewBox="0 0 20 20"><path d="M7.378 14 3.343 9.5 7.378 5h5.244l4.035 4.5-4.035 4.5H7.378zM2 9.5 6.932 15h6.137l4.932-5.5L13.069 4H6.932L2 9.5z"/></symbol><symbol id="svg-icon-flowChartProcess" viewBox="0 0 20 20"><path d="M17 5H3v10h14V5zm1-1v12H2V4h16z"/></symbol><symbol id="svg-icon-flowChartPunchedCard" viewBox="0 0 20 20"><path d="M3 8.448 6.417 5H17v10H3V8.448zm-1-.412V16h16V4H6L2 8.036z"/></symbol><symbol id="svg-icon-flowChartPunchedTape" viewBox="0 0 20 20"><path d="M3 12.594V6.003c.321.163.65.301.972.418C5.001 6.794 6.117 7 7 7c1.45 0 2.503-.565 3.376-1.033l.157-.084c.907-.484 1.724-.882 2.967-.882 1.106 0 1.814.219 2.338.501.435.235.78.53 1.162.892v6.57a6.85 6.85 0 0 0-3.5-.963c-1.737 0-2.915.589-3.916 1.09l-.032.016c-.992.496-1.808.894-3.053.894-1.391 0-2.068-.232-2.486-.482-.339-.203-.542-.42-.845-.743a12.035 12.035 0 0 0-.17-.18zM2 13c.127.127.246.254.363.379C3.167 14.238 3.881 15 6.5 15 8 15 9 14.5 10 14s2-1 3.5-1c1.418 0 2.585.503 3.5 1.152.376.266.709.557 1 .848V5.967l-.04-.039C16.973 4.973 15.967 4 13.5 4c-2 0-2.59.547-3.565 1.068C9.045 5.544 8.193 6 7 6c-1.123 0-2.805-.402-4-1.142-.402-.249-.748-.536-1-.858v9z"/></symbol><symbol id="svg-icon-flowChartSort" viewBox="0 0 20 20"><path d="M6.357 10h8.287l-4.143-4.52L6.358 10zM16 10v1l-5.5 6L5 11v-1l5.5-6 5.5 6zm-9.643 1 4.143 4.52L14.643 11H6.356z"/></symbol><symbol id="svg-icon-flowChartSummingJunction" viewBox="0 0 20 20"><path d="M14.729 15.436 10.5 11.207l-4.229 4.229C7.408 16.411 8.885 17 10.5 17s3.092-.589 4.229-1.564zm.707-.707C16.411 13.592 17 12.115 17 10.5s-.589-3.092-1.564-4.229L11.207 10.5l4.229 4.229zm-.707-9.165C13.592 4.589 12.115 4 10.5 4s-3.092.589-4.229 1.564L10.5 9.793l4.229-4.229zm-9.165.707C4.589 7.408 4 8.885 4 10.5s.589 3.092 1.564 4.229L9.793 10.5 5.564 6.271zM18 10.5a7.5 7.5 0 1 1-15 0 7.5 7.5 0 0 1 15 0z"/></symbol><symbol id="svg-icon-flowChartTerminator" viewBox="0 0 20 20"><path d="M3.934 12.099C3.328 11.531 3 10.774 3 10s.327-1.531.934-2.099A3.417 3.417 0 0 1 6.267 7h7.467c.887 0 1.725.331 2.333.901.606.568.934 1.325.934 2.099s-.327 1.531-.934 2.099a3.417 3.417 0 0 1-2.333.901H6.267a3.417 3.417 0 0 1-2.333-.901zm-.684.729c.8.75 1.885 1.172 3.017 1.172h7.467c1.132 0 2.217-.421 3.017-1.172s1.25-1.767 1.25-2.828-.449-2.078-1.25-2.828S14.866 6 13.734 6H6.267C5.135 6 4.05 6.421 3.25 7.172S2 8.94 2 10c0 1.061.45 2.078 1.25 2.828z"/></symbol><symbol id="svg-icon-foldedCorner" viewBox="0 0 20 20"><path d="M16 12V4H4v12h8v-4h4zm1 0v2l-3 3H3V3h14v9zm-1 1h-3v3h.6l2.4-2.4V13z"/></symbol><symbol id="svg-icon-frame" viewBox="0 0 20 20"><path fill-rule="evenodd" d="M17 3H3v14h14V3ZM2 2v16h16V2H2Z"/><path fill-rule="evenodd" d="M15 5H5v10h10V5ZM4 4v12h12V4H4Z"/></symbol><symbol id="svg-icon-halfFrame" viewBox="0 0 20 20"><path d="M5 5v10l-3 3V2h16l-3 3H5zm-1 9.586V4h10.586l1-1H3v12.586l1-1z"/></symbol><symbol id="svg-icon-heart" viewBox="0 0 20 20"><path d="m15.902 10.516.01-.01c1.451-1.488 1.451-3.912 0-5.4a3.605 3.605 0 0 0-5.196 0L10 5.84l-.716-.734a3.605 3.605 0 0 0-5.196 0c-1.451 1.488-1.451 3.912 0 5.4l.009.009.002.002L10 16.568l5.902-6.052zM10 18l-6.627-6.796c-1.83-1.877-1.83-4.92 0-6.796a4.604 4.604 0 0 1 6.628 0 4.603 4.603 0 0 1 6.628 0c1.83 1.877 1.83 4.92 0 6.796l-.011.011L10.001 18z"/></symbol><symbol id="svg-icon-heptagon" viewBox="0 0 20 20"><path d="m7.003 17-3.924-5.108 1.399-6.2 5.544-2.575 5.197 2.786 1.685 6.021L13.097 17H7.003zM2 12.129 6.51 18h7.087L18 12.129l-1.933-6.906L10.054 2 3.611 4.993 2 12.13z"/><path d="M11 7H8v1h3v1h1V7h-1zm0 2h-1v2h1V9zm-1 2H9v2h1v-2z"/></symbol><symbol id="svg-icon-hexagon" viewBox="0 0 20 20"><path d="m6.531 16-3.383-6 3.383-6h6.74l3.566 6-3.566 6h-6.74zM2 10l3.947 7h7.893L18 10l-4.16-7H5.947L2 10z"/></symbol><symbol id="svg-icon-homePlate" viewBox="0 0 20 20"><path d="M4 5v9h7.367l4.257-4.5L11.367 5H4zm7.797-1L17 9.5 11.797 15H3V4h8.797z"/></symbol><symbol id="svg-icon-horizontalScroll" viewBox="0 0 20 20"><path d="M4 7a1 1 0 1 1 0 2 1 1 0 0 1 0-2zm1-1H4a2 2 0 0 0-2 2v8a2 2 0 1 0 4 0h10a2 2 0 0 0 2-2V5a2 2 0 1 0-4 0v1H5zm12-1a1 1 0 1 1-2 0 1 1 0 0 1 2 0zm0 2v7a1 1 0 0 1-1 1H6V7h11zM4 10c.364 0 .706-.097 1-.268V16a1 1 0 0 1-2 0V9.732c.294.17.636.268 1 .268z"/></symbol><symbol id="svg-icon-irregularSeal1" viewBox="0 0 20 20"><path d="M9.199 11.387 11 14.389v-2.237l3.802-.634-2.321-1.161 2.048-2.731L12 8.239V5.608l-1.908 3.179L8 5.997v2H5l2.731 2.048-1.428.952h1.978l-.435 1.74 1.353-1.353zM6 16l1-4H3l3-2-4-3h5V3l3 4 3-5v4.97L17 6l-3 4 4 2-6 1v5l-3-5-3 3z"/></symbol><symbol id="svg-icon-irregularSeal2" viewBox="0 0 20 20"><path d="M7.03 12.617v2.956l2.968-2.99 1.157 1.157-.599-2.395 3.827 1.531L13.132 11h1.566l-1.5-1 1.5-1h-1.174l1.572-3.929-3.095 1.547V5.303l-.658.986-1.342-.671v3L6.74 6.988 7.431 9H4.957l2.479 1.894-1.648 2.133 1.242-.41zM2 8h4.03L5 5l4 2V4l2 1 2-3v3l4-2-2 5h3l-3 2 3 2h-3l2 3-5-2 1 4-3-3-3.97 4v-4L3 15l3.03-3.922L2 8z"/></symbol><symbol id="svg-icon-leftArrow" viewBox="0 0 20 20"><path d="M11 8V5l-7.333 5.5L11 16v-3h6V8h-6zm1 10L2 10.5 12 3v4h6v7h-6v4z"/></symbol><symbol id="svg-icon-leftArrowCallout" viewBox="0 0 20 20"><path d="M10 12v4h7V5h-7v4H6V7.587L3.351 10.5 6 13.413V12h4zm-3 4-5-5.5L7 5v3h2V4h9v13H9v-4H7v3z"/></symbol><symbol id="svg-icon-leftBrace" viewBox="0 0 20 20"><path d="M11.4 3.9a2.302 2.302 0 0 0-1.5 2.4v1.6a2.308 2.308 0 0 1-1.3 2.3 2.305 2.305 0 0 1 1.3 2.3V14c0 1.4.5 2.2 1.5 2.5l-.2.9a4.297 4.297 0 0 1-2-1.2 3.798 3.798 0 0 1-.6-2.2v-1.5c0-1.2-.6-1.8-1.6-1.8v-1c1 0 1.6-.6 1.6-1.8V6.4a3.798 3.798 0 0 1 .6-2.2 4.8 4.8 0 0 1 2-1.2l.2.9z"/></symbol><symbol id="svg-icon-leftBracket" viewBox="0 0 20 20"><path d="M10.001 16.998a2 2 0 0 1-2-2V6a2 2 0 0 1 2-2H12V3h-1.999a2.893 2.893 0 0 0-2.152.848A2.89 2.89 0 0 0 7.002 6v8.998a2.893 2.893 0 0 0 .847 2.152 2.908 2.908 0 0 0 2.152.848H12v-1h-1.999z"/></symbol><symbol id="svg-icon-leftRightArrow" viewBox="0 0 20 20"><path d="M13 13v2.149l3.719-4.649L13 5.851V8H7V5.851L3.281 10.5 7 15.149V13h6zm-5 5-6-7.5L8 3v4h4V3l6 7.5-6 7.5v-4H8v4z"/></symbol><symbol id="svg-icon-leftRightArrowCallout" viewBox="0 0 20 20"><path d="M8 12H4v.37L2.338 10.5 4 8.63V9h4V4h4v5h4v-.37l1.662 1.87L16 12.37V12h-4v5H8v-5zm-7-1.5L5 15v-2h2v5h6v-5h2v2l4-4.5L15 6v2h-2V3H7v5H5V6l-4 4.5z"/></symbol><symbol id="svg-icon-leftRightUpArrow" viewBox="0 0 20 20"><path d="M10.5 3 14 7h-2v5h3v-2l4 3.5-4 3.5v-2H6v2l-4-3.5L6 10v2h3V7H7l3.5-4zm1.296 3L10.5 4.519 9.204 6H10v7H5v-.796L3.519 13.5 5 14.796V14h11v.796l1.481-1.296L16 12.204V13h-5V6h.796z"/></symbol><symbol id="svg-icon-leftUpArrow" viewBox="0 0 20 20"><path d="M13 12H7v-1.755L4.495 12.5 7 14.755V13h7V6h1.755L13.5 3.495 11.245 6H13v6zM9 7l4.5-5L18 7h-3v7H8v3l-5-4.5L8 8v3h4V7H9z"/></symbol><symbol id="svg-icon-lightningBolt" viewBox="0 0 20 20"><path d="m8.933 3.3 2.133 2.8-1.493.6 4.053 3.9-.96.4 2.347 4-3.307-1.9 1.28-.6-5.227-3.2 1.707-.9-5.227-3.3 4.693-1.8zM9 2 2 5l5.333 3.3-1.707.9 5.227 3.2-1.387.6 8.533 5-3.84-6.5 1.173-.6-3.947-3.8 1.28-.6L8.998 2z"/></symbol><symbol id="svg-icon-line" viewBox="0 0 20 20"><path d="m16.647 17.354-14-14 .707-.707 14 14-.707.707z"/></symbol><symbol id="svg-icon-lineWithArrow" viewBox="0 0 20 20"><path d="M16 15.293V13h1v4h-4v-1h2.293L2.647 3.354l.707-.707L16 15.293z"/></symbol><symbol id="svg-icon-lineWithTwoArrows" viewBox="0 0 20 20"><path d="M3 3v4h1V4.707L15.293 16H13v1h4v-4h-1v2.293L4.707 4H7V3H3zm1 1z"/></symbol><symbol id="svg-icon-mathDivide" viewBox="0 0 20 20"><path fill-rule="evenodd" d="M16 9H5v2h11V9Zm1-1v4H4V8h13Zm-6.5-2a.5.5 0 1 0 0-1 .5.5 0 0 0 0 1Zm1.5-.5a1.5 1.5 0 1 1-3 0 1.5 1.5 0 0 1 3 0ZM10.5 15a.5.5 0 1 0 0-1 .5.5 0 0 0 0 1Zm1.5-.5a1.5 1.5 0 1 1-3 0 1.5 1.5 0 0 1 3 0Z"/></symbol><symbol id="svg-icon-mathEqual" viewBox="0 0 20 20"><path d="M16 6H4v2h12V6zm1-1v4H3V5h14zm-1 6H4v2h12v-2zm1-1v4H3v-4h14z"/></symbol><symbol id="svg-icon-mathMinus" viewBox="0 0 20 20"><path d="M16 9H4v2h12V9zm1-1v4H3V8h14z"/></symbol><symbol id="svg-icon-mathMultiply" viewBox="0 0 20 20"><path d="M7.717 9.947 4 6.23 6.23 4l3.717 3.717L13.77 4 16 6.23l-3.717 3.717L16 13.77 13.77 16l-3.823-3.717L6.23 16 4 13.77l3.717-3.823zM5.414 6.23l3.707 3.707-3.717 3.823.826.826 3.707-3.707 3.823 3.717.836-.836-3.717-3.823 3.707-3.707-.826-.826-3.823 3.717L6.23 5.414l-.816.816z"/></symbol><symbol id="svg-icon-mathNotEqual" viewBox="0 0 20 20"><path fill-rule="evenodd" d="M3 17h4l1.538-2H17v-4h-5.385l.77-1H17V6h-1.539L17 4h-4l-1.539 2H3v4h5.385l-.77 1H3v4h1.538L3 17Zm6.154-8 1.538-2H4v2h5.154ZM5.03 16h1.477l8.461-11h-1.477l-8.46 11Zm9.661-9-1.538 2H16V7h-1.308ZM16 14H9.308l1.538-2H16v2ZM4 12h2.846l-1.538 2H4v-2Z"/></symbol><symbol id="svg-icon-mathPlus" viewBox="0 0 20 20"><path d="M12 12v5H8v-5H3V8h5V3h4v5h5v4h-5zm-1 4v-5h5V9h-5V4H9v5H4v2h5v5h2z"/></symbol><symbol id="svg-icon-moon" viewBox="0 0 20 20"><path d="M15.24 17.68c-.46.133-.922.221-1.381.267C9.331 18.395 5.062 14.724 5 10c0-4.766 4.348-8.399 8.861-7.948.459.046.921.134 1.379.268a8.67 8.67 0 0 0-1.086.778c-2.011 1.69-3.213 4.245-3.181 6.902-.032 2.656 1.169 5.21 3.179 6.9.34.286.703.547 1.087.78zm-2.473-.706C10.983 15.128 9.945 12.611 9.973 10a9.932 9.932 0 0 1 2.798-6.977C9.205 3.198 6.004 6.191 6 9.994c.053 3.787 3.207 6.796 6.767 6.98z"/></symbol><symbol id="svg-icon-noSmoking" viewBox="0 0 20 20"><path d="M15.657 4.343A8 8 0 1 1 4.342 15.657 8 8 0 0 1 15.657 4.343zm-1.793 6.693a4.001 4.001 0 0 0-4.9-4.9l4.9 4.9zm.792.791a4.936 4.936 0 0 1-.484.931l-6.93-6.93a4.995 4.995 0 0 1 6.294.636 5.001 5.001 0 0 1 1.12 5.363zm-8.52-2.863 4.9 4.901a4 4 0 0 1-4.9-4.9zm-.792-.791a5.002 5.002 0 0 0 7.414 5.999l-6.93-6.93a4.995 4.995 0 0 0-.484.931zm9.606 6.777a7 7 0 1 0-9.899-9.899 7 7 0 0 0 9.899 9.899z"/></symbol><symbol id="svg-icon-notchedRightArrow" viewBox="0 0 20 20"><path d="M11 13.016H5.168L7.315 10.5 5.168 7.984H11V5.308l5.538 5.192L11 15.692v-2.676zm-8 1h7V18l8-7.5L10 3v3.984H3L6 10.5l-3 3.516z"/></symbol><symbol id="svg-icon-octagon" viewBox="0 0 20 20"><path d="M7.214 17h5.572L17 12.786V7.214L12.786 3H7.214L3 7.214v5.572L7.214 17zm5.986 1H6.8L2 13.2V6.8L6.8 2h6.4L18 6.8v6.4L13.2 18z"/><path d="M8 7h4v6H8V7Zm1 2h2V8H9v1Zm0 1v2h2v-2H9Z"/></symbol><symbol id="svg-icon-parallelogram" viewBox="0 0 20 20"><path d="m16.5 6-4.2 10H3.5L7.7 6h8.8zM18 5H7L2 17h11l5-12z"/></symbol><symbol id="svg-icon-pentagon" viewBox="0 0 20 20"><path d="m10 3.203 6.811 4.561-2.733 8.235H5.922L3.189 7.764 10 3.203zm8 4.154L10 2 2 7.357 5.2 17h9.6L18 7.357z"/></symbol><symbol id="svg-icon-pie" viewBox="0 0 20 20"><path d="M10 10h8a8.003 8.003 0 0 1-9.561 7.846c-1.552-.309-2.977-1.071-4.096-2.189s-1.881-2.544-2.189-4.096A8 8 0 0 1 10 2v8zm6.928 1H9V3.072a7.003 7.003 0 0 0-5.865 8.294 6.999 6.999 0 0 0 9.544 5.102 7.008 7.008 0 0 0 4.25-5.467z"/></symbol><symbol id="svg-icon-plaque" viewBox="0 0 20 20"><path d="M6.765 17c-.36-.956-1.024-1.762-1.559-2.334A5.442 5.442 0 0 0 3 13.226V6.775a5.435 5.435 0 0 0 2.206-1.44c.534-.573 1.198-1.379 1.559-2.334h6.47c.36.956 1.024 1.762 1.559 2.334A5.442 5.442 0 0 0 17 6.775v6.451a5.445 5.445 0 0 0-2.206 1.44c-.534.573-1.198 1.379-1.559 2.334h-6.47zM2 14c.937.157 1.804.629 2.475 1.348S5.853 16.996 6 18h8c.147-1.004.854-1.933 1.525-2.652S17.063 14.157 18 14V6c-.938-.157-1.804-.629-2.475-1.348S14.147 3.005 14 2H6c-.147 1.004-.854 1.933-1.525 2.652S2.937 5.843 2 6v8z"/></symbol><symbol id="svg-icon-plus" viewBox="0 0 20 20"><path d="M13 13v5H7v-5H2V7h5V2h6v5h5v6h-5zm-1 4v-5h5V8h-5V3H8v5H3v4h5v5h4z"/></symbol><symbol id="svg-icon-polyline1" viewBox="0 0 20 20"><path d="M7.224 4.929c.155-.38.276-.966.276-1.929h1c0 1.037-.129 1.764-.349 2.306a2.867 2.867 0 0 1-.821 1.133c-.084.073-.157.134-.221.188-.17.141-.282.235-.383.383-.115.168-.225.436-.225.991 0 .595.073 1.001.177 1.249.1.238.194.264.23.27.074.012.258-.007.581-.23.312-.214.69-.575 1.123-1.104 1.027-1.283 1.981-1.999 2.828-2.244.889-.257 1.647.018 2.092.643.826 1.157.423 3.213-1.255 4.332-1.087.725-1.63 1.351-1.865 1.845-.223.47-.178.84-.028 1.14.162.324.468.604.814.808.182.107.354.181.496.227-.214-.676-.29-1.247-.256-1.722.038-.527.212-.959.506-1.264.295-.307.678-.45 1.056-.45.662 0 1.188.297 1.516.756.319.446.432 1.017.354 1.564-.123.857-.708 1.663-1.735 2.006.206.423.466.891.789 1.408l-.848.53c-.401-.642-.72-1.23-.966-1.766L12 16c-.373 0-.868-.17-1.308-.428-.45-.265-.926-.672-1.202-1.223-.287-.574-.336-1.267.019-2.016.344-.724 1.051-1.474 2.214-2.249 1.322-.881 1.419-2.325.995-2.918-.179-.251-.484-.413-1.001-.263-.559.162-1.354.695-2.326 1.91l-.003.004c-.466.57-.913 1.008-1.332 1.297-.408.281-.862.467-1.312.392-.488-.081-.807-.437-.988-.87-.177-.424-.254-.981-.254-1.635 0-.695.14-1.177.4-1.556.188-.274.442-.484.637-.645l.134-.113c.213-.187.405-.392.554-.757zm5.515 9.975c.739-.214 1.072-.746 1.141-1.224.047-.327-.027-.632-.177-.842-.141-.197-.365-.337-.703-.337a.455.455 0 0 0-.335.143c-.097.101-.204.294-.229.642-.027.379.046.91.303 1.618z"/></symbol><symbol id="svg-icon-polyline2" viewBox="0 0 20 20"><path d="M12.8 6.1c-.37.348-.628.786-.742 1.264s-.081.975.096 1.436c.564 1.352 2.15 1.283 3.525 1.223.272-.012.537-.023.783-.023.135.02.26.079.357.168s.16.206.182.332v4c-.046.383-.231.74-.525 1.013s-.678.444-1.091.487H3.539c-.135-.02-.26-.079-.357-.168s-.16-.206-.181-.332V8.2L6.447 5h7.323v.3l-.969.8zm3.2 4.911-.247.011-.464.019a9.345 9.345 0 0 1-1.406-.039c-.971-.117-2.114-.526-2.652-1.815l-.006-.013-.005-.013a3.417 3.417 0 0 1-.134-2.027c.097-.406.266-.787.496-1.131H6.839L4 8.639v6.364h11.324a.888.888 0 0 0 .471-.22.665.665 0 0 0 .205-.355v-3.414z"/></symbol><symbol id="svg-icon-quadArrow" viewBox="0 0 20 20"><path d="m10.547 1.095 3.513 3.953h-2.013v3h3V6.035L19 9.548l-3.953 3.513v-2.013h-3v3h2.013l-3.513 3.953-3.513-3.953h2.013v-3h-3v2.013L2.094 9.548l3.953-3.513v2.013h3v-3H7.034l3.513-3.953zM9.261 4.047h.787v5h-5V8.26L3.601 9.547l1.447 1.287v-.787h5v5h-.787l1.287 1.447 1.287-1.447h-.787v-5h5v.787l1.447-1.287-1.447-1.287v.787h-5v-5h.787L10.548 2.6 9.261 4.047z"/></symbol><symbol id="svg-icon-quadArrowCallout" viewBox="0 0 20 20"><path d="M7 15h2v-2H7v-2H5v2L2 9.5 5 6v2h2V6h2V4H7l3.5-3L14 4h-2v2h2v2h2V6l3 3.5-3 3.5v-2h-2v2h-2v2h2l-3.5 3L7 15zm3.5 1.683.797-.683H11v-4h2v-2h4v.297l.683-.797L17 8.703V9h-4V7h-2V3h.297l-.797-.683L9.703 3H10v4H8v2H4v-.297l-.683.797.683.797V10h4v2h2v4h-.297l.797.683z"/></symbol><symbol id="svg-icon-rect" viewBox="0 0 20 20"><path d="M17 5v10H3V5h14zm1-1H2v12h16V4z"/></symbol><symbol id="svg-icon-rect-1" viewBox="0 0 20 20"><path d="M17 5v10H3V5h14zm1-1H2v12h16V4z"/></symbol><symbol id="svg-icon-ribbon" viewBox="0 0 20 20"><path d="m15.434 9 1.8-3H14v6h3.234l-1.8-3zM13 8H7v6h6V8zm6-3-2.4 4 2.4 4h-5v1a1 1 0 0 1-1 1H7a1 1 0 0 1-1-1v-1H1l2.4-4L1 5h7a1 1 0 0 1 1 1v1h2V6a1 1 0 0 1 1-1h7zM2.766 6l1.8 3-1.8 3H6V6H2.766z"/></symbol><symbol id="svg-icon-ribbon2" viewBox="0 0 20 20"><path d="M13 12V6H7v6h6zM6 8H2.766l1.8 3-1.8 3H6V8zm-5 7 2.4-4L1 7h5V6a1 1 0 0 1 1-1h6a1 1 0 0 1 1 1v1h5l-2.4 4 2.4 4h-7a1 1 0 0 1-1-1v-1H9v1a1 1 0 0 1-1 1H1zm16.234-1-1.8-3 1.8-3H14v6h3.234z"/></symbol><symbol id="svg-icon-rightArrow" viewBox="0 0 20 20"><path d="M9 13v3l7.333-5.5L9 5v3H3v5h6zM8 3l10 7.5L8 18v-4H2V7h6V3z"/></symbol><symbol id="svg-icon-rightArrowCallout" viewBox="0 0 20 20"><path d="M10 9V5H3v11h7v-4h4v1.413l2.648-2.913L14 7.587V9h-4zm3-4 5 5.5-5 5.5v-3h-2v4H2V4h9v4h2V5z"/></symbol><symbol id="svg-icon-rightBrace" viewBox="0 0 20 20"><path d="M8 16.5a2.302 2.302 0 0 0 1.5-2.4v-1.6a2.308 2.308 0 0 1 1.3-2.3 2.305 2.305 0 0 1-1.3-2.3V6.4C9.5 5 9 4.2 8 3.9l.2-.9a4.297 4.297 0 0 1 2 1.2c.421.655.63 1.423.6 2.2v1.5c0 1.2.6 1.8 1.6 1.8v1c-1 0-1.6.6-1.6 1.8V14a3.798 3.798 0 0 1-.6 2.2 4.8 4.8 0 0 1-2 1.2l-.2-.9z"/></symbol><symbol id="svg-icon-rightBracket" viewBox="0 0 20 20"><path d="M8.999 3.002H7v1h1.999a2 2 0 0 1 2 2V15a2 2 0 0 1-2 2H7v1h1.999a2.893 2.893 0 0 0 2.152-.848A2.908 2.908 0 0 0 11.999 15V6.002a2.893 2.893 0 0 0-.848-2.152 2.899 2.899 0 0 0-2.152-.848z"/></symbol><symbol id="svg-icon-round1Rect" viewBox="0 0 20 20"><path d="M15 5a2 2 0 0 1 2 2v8H3V5h12zM2 4v12h16V7a3 3 0 0 0-3-3H2z"/></symbol><symbol id="svg-icon-round2DiagRect" viewBox="0 0 20 20"><path d="M17 5v8a2 2 0 0 1-2 2H3V7a2 2 0 0 1 2-2h12zM5 4a3 3 0 0 0-3 3v9h13a3 3 0 0 0 3-3V4H5z"/></symbol><symbol id="svg-icon-round2SameRect" viewBox="0 0 20 20"><path d="M15 5a2 2 0 0 1 2 2v8H3V7a2 2 0 0 1 2-2h10zM5 4a3 3 0 0 0-3 3v9h16V7a3 3 0 0 0-3-3H5z"/></symbol><symbol id="svg-icon-roundRect" viewBox="0 0 20 20"><path d="M15 5a2 2 0 0 1 2 2v6a2 2 0 0 1-2 2H5a2 2 0 0 1-2-2V7a2 2 0 0 1 2-2h10zM5 4a3 3 0 0 0-3 3v6a3 3 0 0 0 3 3h10a3 3 0 0 0 3-3V7a3 3 0 0 0-3-3H5z"/></symbol><symbol id="svg-icon-rtTriangle" viewBox="0 0 20 20"><path d="M4 5.4 14.6 16H4V5.4zM3 3v14h14L3 3z"/></symbol><symbol id="svg-icon-smileyFace" viewBox="0 0 20 20"><path d="M10 16.5a6.5 6.5 0 1 0 0-13 6.5 6.5 0 0 0 0 13zm7.5-6.5a7.5 7.5 0 1 1-15 0 7.5 7.5 0 0 1 15 0z"/><path d="M7.5 7a.5.5 0 1 0 0 1 .5.5 0 0 0 0-1zM6 7.5a1.5 1.5 0 1 1 3.001.001A1.5 1.5 0 0 1 6 7.5zm6.5-.5a.5.5 0 1 0 0 1 .5.5 0 0 0 0-1zm-1.5.5a1.5 1.5 0 1 1 3.001.001A1.5 1.5 0 0 1 11 7.5zM5.416 12a5.002 5.002 0 0 0 9.168 0h-1.119c-.692 1.196-1.984 2-3.465 2s-2.773-.804-3.465-2H5.416z"/></symbol><symbol id="svg-icon-snip1Rect" viewBox="0 0 20 20"><path d="M3 5v10h14V8.414L13.586 5H3zm11-1 4 4v8H2V4h12z"/></symbol><symbol id="svg-icon-snip2DiagRect" viewBox="0 0 20 20"><path d="M6.414 15H17V8.414L13.586 5H3v6.586L6.414 15zM6 16l-4-4V4h12l4 4v8H6z"/></symbol><symbol id="svg-icon-snip2SameRect" viewBox="0 0 20 20"><path d="M6.414 5h7.172L17 8.414V15H3V8.414L6.414 5zM14 4H6L2 8v8h16V8l-4-4z"/></symbol><symbol id="svg-icon-snipRoundRect" viewBox="0 0 20 20"><path d="M3 7a2 2 0 0 1 2-2h8.586L17 8.414V15H3V7zm11-3H5a3 3 0 0 0-3 3v9h16V8l-4-4z"/></symbol><symbol id="svg-icon-spline" viewBox="0 0 20 20"><path d="M2.471 12.168 2 12l-.471-.168.001-.002.002-.005.006-.016.023-.062.087-.229c.076-.196.188-.475.331-.809.286-.667.701-1.561 1.213-2.457.51-.893 1.129-1.811 1.831-2.512.692-.692 1.532-1.24 2.479-1.24.776 0 1.418.196 1.945.562.521.362.895.867 1.181 1.43.455.897.728 2.037.993 3.148.059.248.118.495.179.738.344 1.375.746 2.651 1.505 3.588.731.902 1.832 1.534 3.698 1.534v1c-2.135 0-3.534-.744-4.474-1.904-.912-1.126-1.354-2.6-1.698-3.975-.068-.272-.132-.539-.195-.8-.265-1.104-.503-2.096-.899-2.876-.238-.468-.516-.823-.86-1.062-.338-.235-.775-.383-1.374-.383-.553 0-1.151.327-1.771.947-.611.611-1.18 1.443-1.669 2.301-.488.853-.885 1.71-1.162 2.355a25.577 25.577 0 0 0-.4.993l-.02.056-.005.013-.001.004z"/></symbol><symbol id="svg-icon-star4" viewBox="0 0 20 20"><path d="m12.5 7.5 5.5 2-5.5 2-2 5.5-2-5.5-5.5-2 5.5-2 2-5.5 2 5.5zm2.574 2L11.72 8.28 10.5 4.926 9.28 8.28 5.926 9.5l3.354 1.22 1.22 3.354 1.22-3.354 3.354-1.22z"/></symbol><symbol id="svg-icon-star5" viewBox="0 0 20 20"><path d="M12.5 7.997h6l-5 3.503 2 6-5-3.5-5 3.5 2-6-5-3.503h6L10.5 2l2 5.997zm2.83 1h-3.551L10.5 5.161 9.221 8.997H5.67l3.015 2.112-1.279 3.837L10.5 12.78l3.094 2.166-1.279-3.837 3.015-2.112z"/></symbol><symbol id="svg-icon-star6" viewBox="0 0 20 20"><path d="M8 12H5.174l2.143-2.5L5.174 7H8l2.5-3.333L13 7h2.826l-2.143 2.5 2.143 2.5h-3.38l-2.021 3.233L8 12zm-5 1h4.5l3 4 2.5-4h5l-3-3.5L18 6h-4.5l-3-4-3 4H3l3 3.5L3 13z"/></symbol><symbol id="svg-icon-star7" viewBox="0 0 20 20"><path d="m10.5 13.321 2.747 1.717-.337-2.697 3.129-1.173-2.224-1.854 1.169-3.116-3.021.378L10.5 4.017 9.037 6.576l-3.02-.378 1.169 3.116-2.224 1.854 3.129 1.173-.337 2.697 2.747-1.717zM6.5 17l.5-4-4-1.5L6 9 4.5 5l4 .5 2-3.5 2 3.5 4-.5L15 9l3 2.5-4 1.5.5 4-4-2.5-4 2.5z"/></symbol><symbol id="svg-icon-star8" viewBox="0 0 20 20"><path fill-rule="evenodd" d="m13 4-2.5-3L8 4H5v3L2 9.5 5 12v3h3l2.5 3 2.5-3h3v-3l3-2.5L16 7V4h-3Zm2 1h-2.468L10.5 2.562 8.468 5H6v2.468L3.562 9.5 6 11.532V14h2.468l2.032 2.438L12.532 14H15v-2.468L17.438 9.5 15 7.468V5Z"/><path fill-rule="evenodd" d="M9 7v5h3V7H9Zm2 4h-1v-1h1v1Zm0-2h-1V8h1v1Z"/></symbol><symbol id="svg-icon-star10" viewBox="0 0 20 20"><path d="M8.413 14.607 10 16.462l1.587-1.855 2.419.616.189-2.498 2.231-.76-1.355-1.966 1.355-1.966-2.231-.76-.189-2.498-2.419.616L10 3.536 8.413 5.391l-2.42-.616-.189 2.498-2.231.76 1.355 1.966-1.355 1.966 2.231.76.189 2.498 2.42-.616zm-3.327 1.88-.229-3.027L2 12.487 3.714 10 2 7.514l2.857-.973.229-3.027 2.971.757L10 2.001l1.943 2.27 2.971-.757.229 3.027L18 7.514 16.286 10 18 12.487l-2.857.973-.229 3.027-2.971-.757L10 18l-1.943-2.27-2.971.757z"/><path d="M10 8v5h3V8h-3zm2 4h-1V9h1v3zM8 8v1H7v1h1v3h1V8H8z"/></symbol><symbol id="svg-icon-star12" viewBox="0 0 20 20"><path d="m10.5 1 1.54 2.753 2.71-1.614-.043 3.154 3.154-.043-1.614 2.71L19 9.5l-2.753 1.54 1.614 2.71-3.154-.043.043 3.154-2.71-1.614L10.5 18l-1.54-2.753-2.71 1.614.043-3.154-3.154.043 1.614-2.71L2 9.5l2.753-1.54-1.614-2.71 3.154.043-.043-3.154 2.71 1.614L10.5 1zm3.226 2.913-2.057 1.225L10.5 3.049 9.331 5.138 7.274 3.913l.032 2.394-2.394-.032 1.225 2.057-2.089 1.169 2.089 1.169-1.225 2.057 2.394-.032-.032 2.394 2.057-1.225 1.169 2.089 1.169-2.089 2.057 1.225-.032-2.394 2.394.032-1.225-2.057 2.089-1.169-2.089-1.169 1.225-2.057-2.394.032.032-2.394z"/><path d="M8 7v1H7v1h1v3h1V7H8zm4.682.318c.183.183.296.424.318.682v1h-1V8h-2V7h2c.258.023.499.135.682.318zM11 10V9h1v1h-1zm0 0v1h2v1h-3v-2h1z"/></symbol><symbol id="svg-icon-star16" viewBox="0 0 20 20"><path d="m12.26 2.932 2.49-.793.558 2.553 2.553.558-.793 2.49L19 9.5l-1.932 1.76.793 2.49-2.553.558-.558 2.553-2.49-.793L10.5 18l-1.76-1.932-2.49.793-.558-2.553-2.553-.558.793-2.49L2 9.5l1.932-1.76-.793-2.49 2.553-.558.558-2.553 2.49.793L10.5 1l1.76 1.932zm1.748.493-2.055.654L10.5 2.485 9.047 4.079l-2.055-.654-.461 2.107-2.107.461.654 2.055-1.594 1.453 1.594 1.453-.654 2.055 2.107.461.461 2.107 2.055-.654 1.453 1.594 1.452-1.594 2.055.654.461-2.107 2.107-.461-.654-2.055 1.594-1.453-1.594-1.453.654-2.055-2.107-.461-.461-2.107z"/><path d="M8 7v1H7v1h1v3h1V7H8zm5 1V7h-2a1.101 1.101 0 0 0-1 1v4h3V9h-2V8h2zm-1 2v1h-1v-1h1z"/></symbol><symbol id="svg-icon-star24" viewBox="0 0 20 20"><path d="m12.26 2.932 2.49-.793.558 2.553 2.553.558-.793 2.49L19 9.5l-1.932 1.76.793 2.49-2.553.558-.558 2.553-2.49-.793L10.5 18l-1.76-1.932-2.49.793-.558-2.553-2.553-.558.793-2.49L2 9.5l1.932-1.76-.793-2.49 2.553-.558.558-2.553 2.49.793L10.5 1l1.76 1.932zm1.748.493-2.055.654L10.5 2.485 9.047 4.079l-2.055-.654-.461 2.107-2.107.461.654 2.055-1.594 1.453 1.594 1.453-.654 2.055 2.107.461.461 2.107 2.055-.654 1.453 1.594 1.452-1.594 2.055.654.461-2.107 2.107-.461-.654-2.055 1.594-1.453-1.594-1.453.654-2.055-2.107-.461-.461-2.107z"/><path d="M9.682 7.318c.183.183.295.424.318.682v1H9V8H7V7h2c.258.023.499.135.682.318zM8 10V9h1v1H8zm0 0v1h2v1H7v-2h1zm5-3v2h-1V7h-1v3h2v2h1V7h-1z"/></symbol><symbol id="svg-icon-star32" viewBox="0 0 20 20"><path d="m12.26 2.932 2.49-.793.558 2.553 2.553.558-.793 2.49L19 9.5l-1.932 1.76.793 2.49-2.553.558-.558 2.553-2.49-.793L10.5 18l-1.76-1.932-2.49.793-.558-2.553-2.553-.558.793-2.49L2 9.5l1.932-1.76-.793-2.49 2.553-.558.558-2.553 2.49.793L10.5 1l1.76 1.932zm1.748.493-2.055.654L10.5 2.485 9.047 4.079l-2.055-.654-.461 2.107-2.107.461.654 2.055-1.594 1.453 1.594 1.453-.654 2.055 2.107.461.461 2.107 2.055-.654 1.453 1.594 1.452-1.594 2.055.654.461-2.107 2.107-.461-.654-2.055 1.594-1.453-1.594-1.453.654-2.055-2.107-.461-.461-2.107z"/><path d="M13.682 7.318c.183.183.296.424.318.682v1h-1V8h-2V7h2c.258.023.499.135.682.318zM12 10V9h1v1h-1zm0 0v1h2v1h-3v-2h1zM7 7v1h2v1H7v1h2v1H7v1h3V7H7z"/></symbol><symbol id="svg-icon-stripedRightArrow" viewBox="0 0 20 20"><path d="M11 12v2.692L16.538 9.5 11 4.308V7H7v5h4zM10 2l8 7.5-8 7.5v-4H6V6h4V2zM5 6H4v7h1V6zM3 6H2v7h1V6z"/></symbol><symbol id="svg-icon-sun" viewBox="0 0 20 20"><path d="M10 6.136c.764 0 1.511.227 2.147.651s1.131 1.028 1.423 1.734a3.867 3.867 0 0 1-.837 4.21 3.865 3.865 0 1 1-2.731-6.597zM10 5a4.995 4.995 0 0 0-4.62 3.087 4.993 4.993 0 0 0 3.643 6.817 4.996 4.996 0 0 0 5.133-2.127 4.998 4.998 0 0 0-.621-6.314 4.997 4.997 0 0 0-3.536-1.464zm0-3L8.5 3.5h3L10 2zm6.5 1.5h-2l2 2v-2zm-13 0v2l2-2h-2zM10 18l1.5-1.5h-3L10 18zm8-8-1.5-1.5v3L18 10zM2 10l1.5 1.5v-3L2 10zm1.5 6.5h2l-2-2v2zm13 0v-2l-2 2h2z"/></symbol><symbol id="svg-icon-teardrop" viewBox="0 0 20 20"><path d="M10 17.998a8.108 8.108 0 0 1-8-7.999A8.105 8.105 0 0 1 10 2h8v8.959a7.89 7.89 0 0 1-8 7.039zM3 9.999a7.108 7.108 0 0 0 7.013 7l-.013 1 .019-1a6.894 6.894 0 0 0 6.98-6.095V3.001h-6.993a7.105 7.105 0 0 0-7.007 7z"/></symbol><symbol id="svg-icon-textRect" viewBox="0 0 20 20"><path d="M17 4v11H3V4h14zm1-1H2v13h16V3z"/><path d="M15 6h-4v1h4V6zm0 3h-4v1h4V9zm0 3H5v1h10v-1zm-5.053-1.724-.894.447-.362-.724H6.309l-.362.724-.894-.447L7.5 5.382l2.447 4.894zM8.191 9 7.5 7.618 6.809 9h1.382z"/></symbol><symbol id="svg-icon-trapezoid" viewBox="0 0 20 20"><path d="m13.3 5 3.3 11H3.4L6.7 5h6.6zm.7-1H6L2 17h16L14 4z"/></symbol><symbol id="svg-icon-triangle" viewBox="0 0 20 20"><path d="m10 5 6.187 10H3.814l6.187-10zm0-2L2 16h16L10 3z"/></symbol><symbol id="svg-icon-upArrow" viewBox="0 0 20 20"><path d="M13 11h3l-5.5-7.333L5 11h3v6h5v-6zM3 12l7.5-10L18 12h-4v6H7v-6H3z"/></symbol><symbol id="svg-icon-upArrowCallout" viewBox="0 0 20 20"><path d="M9 10H5v7h11v-7h-4V6h1.413L10.5 3.351 7.587 6H9v4zM5 7l5.5-5L16 7h-3v2h4v9H4V9h4V7H5z"/></symbol><symbol id="svg-icon-upDownArrow" viewBox="0 0 20 20"><path d="M7 13H4.851L9.5 16.719 14.149 13H12V7h2.149L9.5 3.281 4.851 7H7v6zM2 8l7.5-6L17 8h-4v4h4l-7.5 6L2 12h4V8H2z"/></symbol><symbol id="svg-icon-uturnArrow" viewBox="0 0 20 20"><path d="M13 10.4h-2.108l2.608 3.825 2.608-3.825H14V8A5 5 0 0 0 4 8v9h1V8a4 4 0 0 1 8 0v2.4zm5-1L13.5 16 9 9.4h3V8a3 3 0 1 0-6 0v10H3V8a6 6 0 1 1 12 0v1.4h3z"/></symbol><symbol id="svg-icon-verticalScroll" viewBox="0 0 20 20"><path fill-rule="evenodd" d="M7 4a1 1 0 1 1 2 0 1 1 0 0 1-2 0ZM6 5V4a2 2 0 0 1 2-2h8a2 2 0 1 1 0 4v10a2 2 0 0 1-2 2H5a2 2 0 1 1 0-4h1V5ZM5 17a1 1 0 1 0 0-2 1 1 0 0 0 0 2Zm5-13c0 .364-.097.706-.268 1H16a1 1 0 1 0 0-2H9.732c.17.294.268.636.268 1ZM7 6v11h7a1 1 0 0 0 1-1V6H7Z"/></symbol><symbol id="svg-icon-wave" viewBox="0 0 20 20"><path d="M17 12.594V6.003c-.321.163-.65.301-.972.418C14.999 6.794 13.883 7 13 7c-1.45 0-2.503-.565-3.376-1.033l-.157-.084c-.907-.484-1.724-.882-2.967-.882-1.106 0-1.814.219-2.338.501-.435.235-.78.53-1.162.892v6.57a6.85 6.85 0 0 1 3.5-.963c1.736 0 2.915.589 3.916 1.09l.032.016c.992.496 1.808.894 3.053.894 1.391 0 2.068-.232 2.486-.482.339-.203.542-.42.845-.743l.169-.18zM18 13c-.127.127-.246.254-.363.379C16.833 14.238 16.119 15 13.5 15c-1.5 0-2.5-.5-3.5-1s-2-1-3.5-1c-1.418 0-2.585.503-3.5 1.152A7.747 7.747 0 0 0 2 15V5.967l.04-.039C3.027 4.973 4.033 4 6.5 4c2 0 2.59.547 3.565 1.068.89.476 1.742.932 2.935.932 1.123 0 2.805-.402 4-1.142.402-.249.748-.536 1-.858v9z"/></symbol><symbol id="svg-icon-wedgeEllipseCallout" viewBox="0 0 20 20"><path d="M8 13.053v1.889l1.954-1.535h.346c1.453 0 3.185-.46 4.527-1.339 1.329-.87 2.172-2.07 2.172-3.569 0-1.16-.629-2.26-1.799-3.107-1.172-.848-2.836-1.393-4.701-1.393-1.827 0-3.49.627-4.682 1.534-1.213.924-1.818 2.036-1.818 2.966 0 1.044.388 1.745 1.003 2.363.513.515 1.13.927 1.844 1.404.231.154.471.315.722.488l.431.298zM7 17v-3.422c-.215-.149-.433-.294-.651-.44C4.662 12.012 3 10.903 3 8.5 3 5.804 6.4 3 10.5 3S18 5.389 18 8.5c0 3.871-4.433 5.907-7.7 5.907L7 17z"/></symbol><symbol id="svg-icon-wedgeRectCallout" viewBox="0 0 20 20"><path d="M5.468 13 7.5 15.438 9.532 13H16V4H4v9h1.468zM7.5 17 5 14H3V3h14v11h-7l-2.5 3z"/></symbol><symbol id="svg-icon-wedgeRoundRectCallout" viewBox="0 0 20 20"><path d="M7.468 13 9.5 15.438 11.532 13H14a2 2 0 0 0 2-2V6a2 2 0 0 0-2-2H6a2 2 0 0 0-2 2v5a2 2 0 0 0 2 2h1.468zM9.5 17 7 14H6a3 3 0 0 1-3-3V6a3 3 0 0 1 3-3h8a3 3 0 0 1 3 3v5a3 3 0 0 1-3 3h-2l-2.5 3z"/></symbol></svg>