<svg t="1668176790446" class="icon" viewBox="0 0 1024 1024" version="1.1" xmlns="http://www.w3.org/2000/svg" p-id="37286" width="200" height="200"><path d="M602.435048 486.965454s37.341698 178.138508 176.660149 113.563486c0 0-58.218828-55.20958-33.829657-87.635921 24.374163-32.448855 119.304322-129.427705 119.304322-129.427705s77.580078 79.44116 9.057763 154.94253c0 0 68.319697-58.061237 150.364871 8.337345 0 0-113.045686 172.360151-186.610932 104.633298 0 0-133.029798 209.499231-452.67803 234.518768" fill="#1F80FF" p-id="37287" data-spm-anchor-id="a313x.7781069.0.i23" class="selected"></path><path d="M301.960456 249.084732s-17.620238-26.437862-61.670835-23.503657c-44.050596 2.941709-17.620238-64.597535 30.835417-55.79492 48.46316 8.810119 24.967007 46.984801 30.835418 79.298577zM306.830785 168.998197s0.750436-19.901564-22.70069-34.587597c-23.458631-14.686033 14.78359-39.285327 36.148504-17.01989 21.379923 22.272942-4.57766 33.034195-13.447814 51.607487zM316.729037 249.084732s17.620238-26.437862 61.66333-23.503657c44.0581 2.941709 17.635247-64.597535-30.827913-55.79492-48.455655 8.810119-24.967007 46.984801-30.835417 79.298577z" fill="#1F80FF" p-id="37288" data-spm-anchor-id="a313x.7781069.0.i24" class="selected"></path><path d="M309.337242 585.857915m-309.337242 0a309.337242 309.337242 0 1 0 618.674484 0 309.337242 309.337242 0 1 0-618.674484 0Z" fill="#1F80FF" p-id="37289" data-spm-anchor-id="a313x.7781069.0.i22" class="selected"></path><path d="M0.41274 601.879725s106.374309 41.994401 186.010582-7.324256c45.168746-27.968751 40.966304 172.472716 172.007446 207.593123 131.033638 35.112903 348.532516-17.305055 478.958301-150.770105 0 0-275.552611 400.762865-681.283363 215.037448 0 0.007504-149.389303-63.824586-155.692966-264.53621z" fill="#D8D8D8" p-id="37290"></path><path d="M264.551219 584.004338c-0.067539 23.668753 3.204362 47.277471 9.830712 69.738022 1.70349 5.598253 3.647119 11.106453 5.853401 16.509593 2.243804 5.380626 4.802791 10.603661 7.586908 15.691618l4.502617 7.421812 5.020417 7.046595 5.45567 6.686385c1.883594 2.161256 3.984815 4.127398 5.965966 6.206106 4.187433 3.902267 8.554971 7.631935 13.365266 10.731235 2.296334 1.718499 4.795286 3.11431 7.324256 4.450086 2.498952 1.395811 4.982895 2.814135 7.669457 3.81972 5.185513 2.438917 10.686209 4.089876 16.186905 5.718322 5.613262 1.155672 11.173993 2.709074 16.95235 3.091797l8.599997 0.900523 8.667537 0.262653c5.785862 0.420244 11.594237-0.397731 17.395107-0.525306 5.785862-0.472775 11.564219-1.388307 17.357586-2.04869l17.215003-3.33944-1.928621 1.268236c1.448342-2.056195 2.791622-5.027921 3.932285-7.721986 1.05061-2.829144 2.018673-5.710818 2.686561-8.69005 0.87801-2.926701 1.103141-6.026001 1.70349-9.027745 0.24014-3.069283 0.652879-6.131062 0.750436-9.222859-0.037522-3.091797 0.12007-6.198602-0.075044-9.305407l-0.802966-9.312912-1.598429-9.252876c-0.435253-3.106805-1.485863-6.101045-2.191273-9.15532-0.802967-3.039266-1.508376-6.108549-2.64904-9.065267l-3.091796-8.937694c-1.013089-2.99424-2.378882-5.853401-3.564571-8.79511-1.238219-2.911692-2.393891-5.86841-3.714659-8.750084-2.881674-5.643279-5.620766-11.391619-8.637519-16.989872l-9.55305-16.562124 10.828792 15.804183c3.369458 5.425653 6.483767 11.023905 9.748164 16.547115 1.508376 2.82164 2.866666 5.740836 4.299998 8.599997 1.365794 2.911692 2.979231 5.710818 4.127399 8.720067l3.51204 8.997728c1.268237 2.971727 2.11623 6.093541 3.054275 9.185337 0.847993 3.11431 2.033682 6.146071 2.611518 9.342929l2.011168 9.530538 1.208202 9.703138c0.330192 3.249388 0.29267 6.528794 0.457766 9.808199 0.022513 3.279406-0.277661 6.566315-0.442757 9.853225-0.58534 3.256892-0.795462 6.566315-1.710994 9.785686a73.737846 73.737846 0 0 1-2.844153 9.583069c-1.328272 3.174344-2.498952 6.108549-4.675216 9.320415l-0.682897 1.013089-1.245724 0.255148-17.60523 3.639615c-5.958462 0.772949-11.894411 1.771029-17.882891 2.348865-6.026001 0.217626-12.014481 1.110645-18.078004 0.772949l-9.080276-0.1726c-3.016753-0.195113-6.033506-0.660384-9.050259-0.990576-6.056019-0.480279-11.976959-2.183769-17.897899-3.497032-5.838392-1.793542-11.661776-3.639615-17.184986-6.311167-2.851657-1.110645-5.493192-2.656544-8.15724-4.187433a59.059317 59.059317 0 0 1-7.774517-4.855321c-5.102965-3.384467-9.725651-7.421812-14.130711-11.639263-2.078708-2.228795-4.277485-4.352529-6.251132-6.671377l-5.673297-7.15916-4.997904-7.609421-4.412564-7.939614a170.093834 170.093834 0 0 1-7.256716-16.547114 194.107787 194.107787 0 0 1-5.365618-17.169977 210.647398 210.647398 0 0 1-3.699649-17.545195 244.34948 244.34948 0 0 1-2.033682-17.755317c-0.900523-11.864394-1.110645-23.788823 0.060035-35.600686z" fill="#218588" p-id="37291"></path><path d="M129.862957 482.110132m-28.756709 0a28.756709 28.756709 0 1 0 57.513419 0 28.756709 28.756709 0 1 0-57.513419 0Z" fill="#434849" p-id="37292"></path><path d="M140.721767 476.571914m-10.85881 0a10.85881 10.85881 0 1 0 21.71762 0 10.85881 10.85881 0 1 0-21.71762 0Z" fill="#FFFFFF" p-id="37293"></path></svg>