<svg xmlns="http://www.w3.org/2000/svg" xml:space="preserve" width="28" height="60"><symbol id="svg-icon-crypted" viewBox="0 0 20 20"><path fill="#fff" fill-rule="evenodd" d="M10 3C7 5 4 5 4 5v3.5c0 2 .563 7.477 6 8.5 5.436-1.023 6-6.5 6-8.5V5s-3 0-6-2Zm4.023 4.965-1.046-.93-3.55 3.993-2.479-2.066-.896 1.076 3.52 2.934 4.451-5.007Z" clip-rule="evenodd"/></symbol><symbol id="svg-icon-users" viewBox="0 0 28 20"><path fill-rule="evenodd" d="M27 10a9 9 0 1 1-18 0 9 9 0 0 1 18 0Zm1 0c0 5.523-4.477 10-10 10a9.964 9.964 0 0 1-6.798-2.666 8 8 0 1 1 0-14.667A9.964 9.964 0 0 1 18 0c5.523 0 10 4.477 10 10ZM10.451 3.441A6.985 6.985 0 0 0 8 3a7 7 0 0 0-5.69 11.079 10.817 10.817 0 0 1 1.124-.76C4.544 12.666 6.132 12 8 12c.067 0 .134 0 .2.003A9.985 9.985 0 0 1 8.05 11 2.7 2.7 0 0 1 8 11a3 3 0 1 1 1.198-5.751 10.022 10.022 0 0 1 1.253-1.808ZM8.767 6.152A1.994 1.994 0 0 0 8 6a2 2 0 1 0 0 4 9.97 9.97 0 0 1 .767-3.848Zm-.304 6.864A6.915 6.915 0 0 0 8 13c-1.632 0-3.043.584-4.059 1.181a9.805 9.805 0 0 0-.99.667A6.98 6.98 0 0 0 8 17a6.984 6.984 0 0 0 2.451-.441 9.983 9.983 0 0 1-1.988-3.543Z" clip-rule="evenodd"/></symbol></svg>