<svg xmlns="http://www.w3.org/2000/svg" width="96" height="96" fill="none"><path fill="#fff" stroke="#BFBFBF" d="M94 9.5a1.5 1.5 0 0 1 1.5 1.5v74a1.5 1.5 0 0 1-1.5 1.5H2A1.5 1.5 0 0 1 .5 85V11A1.5 1.5 0 0 1 2 9.5h92Z"/><rect width="12" height="4" x="15" y="29" fill="#444" opacity=".4" rx="1"/><rect width="12" height="4" x="15" y="39" fill="#444" opacity=".4" rx="1"/><rect width="12" height="4" x="15" y="47" fill="#444" opacity=".4" rx="1"/><rect width="12" height="4" x="15" y="55" fill="#444" opacity=".4" rx="1"/><rect width="12" height="4" x="15" y="63" fill="#444" opacity=".4" rx="1"/><rect width="12" height="4" x="33" y="29" fill="#444" opacity=".4" rx="1"/><rect width="12" height="4" x="33" y="39" fill="#444" opacity=".2" rx="1"/><rect width="12" height="4" x="33" y="47" fill="#444" opacity=".2" rx="1"/><rect width="12" height="4" x="33" y="55" fill="#444" opacity=".2" rx="1"/><rect width="12" height="4" x="33" y="63" fill="#444" opacity=".2" rx="1"/><rect width="12" height="4" x="51" y="29" fill="#444" opacity=".4" rx="1"/><rect width="12" height="4" x="51" y="39" fill="#444" opacity=".2" rx="1"/><rect width="12" height="4" x="51" y="47" fill="#444" opacity=".2" rx="1"/><rect width="12" height="4" x="51" y="55" fill="#444" opacity=".2" rx="1"/><rect width="12" height="4" x="51" y="63" fill="#444" opacity=".2" rx="1"/><rect width="12" height="4" x="69" y="29" fill="#444" opacity=".4" rx="1"/><rect width="12" height="4" x="69" y="39" fill="#444" opacity=".2" rx="1"/><rect width="12" height="4" x="69" y="47" fill="#444" opacity=".2" rx="1"/><rect width="12" height="4" x="69" y="55" fill="#444" opacity=".2" rx="1"/><rect width="12" height="4" x="69" y="63" fill="#444" opacity=".2" rx="1"/><path fill="#444" fill-rule="evenodd" d="M67 27h16v8H67v-8Zm-2 0H49v8h16v-8Zm-18 0H31v8h16v-8Zm-18 0H13v8h16v-8ZM13 37v32h16V37H13Zm18 32h52V37H31v32ZM11 27a2 2 0 0 1 2-2h70a2 2 0 0 1 2 2v42a2 2 0 0 1-2 2H13a2 2 0 0 1-2-2V27Z" clip-rule="evenodd" opacity=".2"/></svg>