<svg xmlns="http://www.w3.org/2000/svg" width="24" height="30" fill="none"><path fill="#white" d="M0 1q0-1 1-1h15l8 8v20q0 2-1 2H1q-1 0-1-1z"/><path fill="#42865E" d="M0 1q0-1 1-1h15l8 8v20q0 2-1 2H1q-1 0-1-1z"/><path fill="#fff" fill-rule="evenodd" d="M15 0v8q0 1 1 1h8V8l-8-8zm1 0v7q0 1 1 1h7" clip-rule="evenodd"/><path fill="#fff" fill-rule="evenodd" d="M4 24h16V14H4v12Zm5-9H5v3h4v-3Zm6 0h-5v3h4v-3Zm4 0h-4v3h4v-3ZM9 17H5v3h4v-3Zm6 0h-5v3h4v-3Zm6 0h-6v3h4v-3ZM9 21H5v2h4v-2Zm6 0h-5v2h4v-2Zm6 0h-6v2h4v-2Z" clip-rule="evenodd" shape-rendering="crispEdges"/></svg>