<svg xmlns="http://www.w3.org/2000/svg" aria-hidden="true" style="position:absolute;width:0;height:0;overflow:hidden"><symbol id="no-arrow-5" viewBox="0 0 44 20"><path d="M11 8h22v3H11z"/></symbol><symbol id="arrow-1" viewBox="0 0 44 20"><path d="M17 7v2h17v3H17v2l-8-3.5L17 7Z"/></symbol><symbol id="arrow-2" viewBox="0 0 44 20"><path d="M21 7v2h13v3H21v2L9 10.5 21 7Z"/></symbol><symbol id="arrow-3" viewBox="0 0 44 20"><path d="M28 7v2h6v3h-6v2L9 10.5 28 7Z"/></symbol><symbol id="arrow-4" viewBox="0 0 44 20"><path d="M17 5v3h17v3H17v3L9 9.5 17 5Z"/></symbol><symbol id="arrow-5" viewBox="0 0 44 20"><path d="M23 5v3h11v3H23v3L9 9.5 23 5Z"/></symbol><symbol id="arrow-6" viewBox="0 0 44 20"><path d="M28 6v2h6v3h-6v2L9 9.5 28 6Z"/></symbol><symbol id="arrow-7" viewBox="0 0 44 20"><path d="M17 3v5h17v3H17v5L9 9.5 17 3Z"/></symbol><symbol id="arrow-8" viewBox="0 0 44 20"><path d="M22 3v5h12v3H22v5L9 9.5 22 3Z"/></symbol><symbol id="arrow-9" viewBox="0 0 44 20"><path d="M30 3v5h4v3h-4v5L9 9.5 30 3Z"/></symbol><symbol id="dimond-arrow-1" viewBox="0 0 44 20"><path d="m16.5 5 3 3H34v3H19.5l-3 3L12 9.5 16.5 5Z"/></symbol><symbol id="dimond-arrow-2" viewBox="0 0 44 20"><path d="m16.5 5 5 3H34v3H21.5l-5 3L10 9.5 16.5 5Z"/></symbol><symbol id="dimond-arrow-3" viewBox="0 0 44 20"><path d="m16.5 5 7 3H34v3H23.5l-7 3L8 9.5 16.5 5Z"/></symbol><symbol id="dimond-arrow-4" viewBox="0 0 44 20"><path d="m17.5 4 2 4H34v3H19.5l-2 4-3-5.5 3-5.5Z"/></symbol><symbol id="dimond-arrow-5" viewBox="0 0 44 20"><path d="m17.5 4 4 4H34v3H21.5l-4 4-5-5.5 5-5.5Z"/></symbol><symbol id="dimond-arrow-6" viewBox="0 0 44 20"><path d="m17.5 4 6 4H34v3H23.5l-6 4L10 9.5 17.5 4Z"/></symbol><symbol id="dimond-arrow-7" viewBox="0 0 44 20"><path d="M17.5 3 20 8h14v3H20l-2.5 5L14 9.5 17.5 3Z"/></symbol><symbol id="dimond-arrow-8" viewBox="0 0 44 20"><path d="M17.5 3 21 8h13v3H21l-3.5 5L13 9.5 17.5 3Z"/></symbol><symbol id="dimond-arrow-9" viewBox="0 0 44 20"><path d="m17.5 3 5 5H34v3H22.5l-5 5L11 9.5 17.5 3Z"/></symbol><symbol id="open-arrow-1" viewBox="0 0 44 20"><path d="M13.17 4.79 8.418 9.54l4.75 4.75 2.122-2.12L14.12 11H34V8H14.202l1.089-1.089-2.122-2.121Z"/></symbol><symbol id="open-arrow-2" viewBox="0 0 44 20"><path d="M18.899 4.626 7.758 9.5l11.14 4.874 1.203-2.748-1.43-.626H34V8H18.67l1.431-.626L18.9 4.626Z"/></symbol><symbol id="open-arrow-3" viewBox="0 0 44 20"><path d="M25.074 4.062 6.72 9.5l18.354 5.438.852-2.876L22.343 11H34V8H22.343l3.583-1.062-.852-2.876Z"/></symbol><symbol id="open-arrow-4" viewBox="0 0 44 20"><path d="M13.997 3.885 7.807 9.45l6.18 5.656 2.026-2.213L13.944 11H34V8H13.907l2.096-1.885-2.006-2.23Z"/></symbol><symbol id="open-arrow-5" viewBox="0 0 44 20"><path d="M19.332 3.657 7.698 9.447l11.624 5.891 1.356-2.676L17.398 11H34V8H17.34l3.328-1.657-1.336-2.686Z"/></symbol><symbol id="open-arrow-6" viewBox="0 0 44 20"><path d="M24.544 3.571 6.15 9.447l18.385 5.98.928-2.853L20.626 11H34V8H20.539l4.917-1.571-.912-2.858Z"/></symbol><symbol id="open-arrow-7" viewBox="0 0 44 20"><path d="M14.986 2.894 7.78 9.5l7.206 6.606 2.028-2.212L13.856 11H34V8H13.856l3.158-2.894-2.028-2.212Z"/></symbol><symbol id="open-arrow-8" viewBox="0 0 44 20"><path d="M18.718 2.72 7.623 9.5l11.095 6.78 1.564-2.56-4.45-2.72H34V8H15.831l4.451-2.72-1.564-2.56Z"/></symbol><symbol id="open-arrow-9" viewBox="0 0 44 20"><path d="M25.984 2.592 7.143 9.5l18.84 6.908 1.033-2.816L19.948 11H34V8H19.948l7.068-2.592-1.032-2.816Z"/></symbol><symbol id="oval-arrow-1" viewBox="0 0 44 20"><path d="M19.663 11a3.5 3.5 0 1 1 0-3H34v3H19.663Z"/></symbol><symbol id="oval-arrow-2" viewBox="0 0 44 20"><path d="M21.47 11c-.882 1.182-2.776 2-4.97 2-3.038 0-5.5-1.567-5.5-3.5S13.462 6 16.5 6c2.194 0 4.088.818 4.97 2H34v3H21.47Z"/></symbol><symbol id="oval-arrow-3" viewBox="0 0 44 20"><path d="M22.375 11c-1.044 1.182-3.282 2-5.875 2-3.59 0-6.5-1.567-6.5-3.5S12.91 6 16.5 6c2.593 0 4.831.818 5.875 2H34v3H22.375Z"/></symbol><symbol id="oval-arrow-4" viewBox="0 0 44 20"><path d="M20.8 11c-.48 1.748-1.776 3-3.3 3-1.933 0-3.5-2.015-3.5-4.5S15.567 5 17.5 5c1.524 0 2.82 1.252 3.3 3H34v3H20.8Z"/></symbol><symbol id="oval-arrow-5" viewBox="0 0 44 20"><path d="M21.744 11A4.502 4.502 0 0 1 13 9.5 4.5 4.5 0 0 1 21.744 8H34v3H21.744Z"/></symbol><symbol id="oval-arrow-6" viewBox="0 0 44 20"><path d="M23.573 11c-1.03 1.748-3.808 3-7.073 3C12.358 14 9 11.985 9 9.5S12.358 5 16.5 5c3.265 0 6.044 1.252 7.073 3H34v3H23.573Z"/></symbol><symbol id="oval-arrow-7" viewBox="0 0 44 20"><path d="M20.868 11c-.415 2.309-1.766 4-3.368 4-1.933 0-3.5-2.462-3.5-5.5S15.567 4 17.5 4c1.602 0 2.953 1.691 3.368 4H34v3H20.868Z"/></symbol><symbol id="oval-arrow-8" viewBox="0 0 44 20"><path d="M21.83 11c-.534 2.309-2.27 4-4.33 4-2.485 0-4.5-2.462-4.5-5.5S15.015 4 17.5 4c2.06 0 3.796 1.691 4.33 4H34v3H21.83Z"/></symbol><symbol id="oval-arrow-9" viewBox="0 0 44 20"><path d="M22.793 11a5.5 5.5 0 1 1 0-3H34v3H22.793Z"/></symbol><symbol id="stealth-arrow-1" viewBox="0 0 44 20"><path d="m17 6-1 2h18v3H16l1 2-8-3.5L17 6Z"/></symbol><symbol id="stealth-arrow-2" viewBox="0 0 44 20"><path d="m21 6-2 2h15v3H19l2 2L9 9.5 21 6Z"/></symbol><symbol id="stealth-arrow-3" viewBox="0 0 44 20"><path d="m29 6-2 2h7v3h-7l2 2L9 9.5 29 6Z"/></symbol><symbol id="stealth-arrow-4" viewBox="0 0 44 20"><path d="m17 5-2 3h19v3H15l2 3-8-4.5L17 5Z"/></symbol><symbol id="stealth-arrow-5" viewBox="0 0 44 20"><path d="m20 5-2 3h16v3H18l2 3L9 9.5 20 5Z"/></symbol><symbol id="stealth-arrow-6" viewBox="0 0 44 20"><path d="m29 5-2 3h7v3h-7l2 3L9 9.5 29 5Z"/></symbol><symbol id="stealth-arrow-7" viewBox="0 0 44 20"><path d="m17 3-3 5h20v3H14l3 5-8-6.5L17 3Z"/></symbol><symbol id="stealth-arrow-8" viewBox="0 0 44 20"><path d="m21 3-3 5h16v3H18l3 5L9 9.5 21 3Z"/></symbol><symbol id="stealth-arrow-9" viewBox="0 0 44 20"><path d="m29 3-3 5h8v3h-8l3 5L9 9.5 29 3Z"/></symbol></svg>