<svg xmlns="http://www.w3.org/2000/svg" width="80" height="100" fill="none"><g clip-path="url(#clip0_2966_22077)"><path fill="#BC8C18" d="M75 19v73.667A2.333 2.333 0 0 1 72.667 95H7.333A2.333 2.333 0 0 1 5 92.667V7.333A2.333 2.333 0 0 1 7.333 5H61l14 14Z"/><path fill="#000" d="M75 19H63.333A2.333 2.333 0 0 1 61 16.667V5l14 14Z" opacity=".2"/><path fill="#fff" d="M33.32 82.635c0 .965-.185 1.771-.556 2.42-.367.644-.9 1.13-1.6 1.459-.7.324-1.541.486-2.525.486h-2.426v-8.566h2.69c.898 0 1.677.16 2.337.48.66.317 1.172.787 1.535 1.412.364.621.545 1.39.545 2.309Zm-1.886.047c0-.633-.094-1.153-.282-1.559a1.851 1.851 0 0 0-.82-.908c-.36-.196-.805-.293-1.336-.293h-.967V85.5h.78c.886 0 1.544-.236 1.974-.709.434-.473.65-1.176.65-2.11Zm2.765 6.837c-.234 0-.44-.013-.615-.04a3.275 3.275 0 0 1-.457-.088v-1.512c.125.027.26.053.404.076.14.027.291.041.451.041.211 0 .4-.04.569-.123.168-.078.3-.229.398-.451.098-.223.147-.543.147-.961v-8.027h1.816v8.015c0 .735-.115 1.326-.346 1.776-.226.453-.544.78-.955.984-.406.207-.877.31-1.412.31Zm11.59-11.085L42.877 87h-1.98l-2.907-8.566h1.834l1.611 5.097a26.306 26.306 0 0 1 .322 1.236c.067.262.112.48.136.651.023-.172.064-.389.123-.65.062-.262.123-.51.181-.745.063-.238.108-.402.135-.492l1.623-5.097h1.834Zm8.057 0v5.543c0 .59-.131 1.123-.393 1.6-.258.472-.65.847-1.178 1.124-.523.278-1.183.416-1.98.416-1.133 0-1.996-.289-2.59-.867-.594-.578-.89-1.344-.89-2.297v-5.52h1.81v5.245c0 .707.145 1.203.434 1.488.289.285.716.428 1.283.428.398 0 .72-.069.967-.205.25-.137.433-.348.55-.633.118-.285.176-.649.176-1.09v-5.232h1.81Z"/><path fill="#fff" fill-rule="evenodd" d="M39 60V37.5s-5.625-3.857-15-4.5v21.214s10.625.643 15 5.786Zm17-5.786V33c-9.375.643-15 4.5-15 4.5V60c4.375-5.143 15-5.786 15-5.786Zm1.1 3.079V37H59v22.195S50.767 57.927 40 63c-10.767-5.073-19-3.805-19-3.805V37h1.9v20.293s9.5 0 17.1 5.263c7.6-5.263 17.1-5.263 17.1-5.263Z" clip-rule="evenodd"/></g><defs><clipPath id="clip0_2966_22077"><path fill="#fff" d="M0 0h80v100H0z"/></clipPath></defs></svg>