<svg xmlns="http://www.w3.org/2000/svg" width="80" height="100" fill="none"><g clip-path="url(#clip0_2964_22032)"><path fill="#214479" d="M75 19v73.667A2.333 2.333 0 0 1 72.667 95H7.333A2.333 2.333 0 0 1 5 92.667V7.333A2.333 2.333 0 0 1 7.333 5H61l14 14Z"/><path fill="#000" d="M75 19H63.333A2.333 2.333 0 0 1 61 16.667V5l14 14Z" opacity=".2"/><path fill="#fff" d="M29.482 82.635c0 .965-.185 1.771-.556 2.42-.367.644-.9 1.13-1.6 1.459-.699.324-1.54.486-2.525.486h-2.426v-8.566h2.69c.898 0 1.677.16 2.337.48.66.317 1.172.787 1.535 1.412.364.621.545 1.39.545 2.309Zm-1.886.047c0-.633-.094-1.153-.282-1.559a1.852 1.852 0 0 0-.82-.908c-.36-.196-.805-.293-1.336-.293h-.967V85.5h.78c.886 0 1.545-.236 1.974-.709.434-.473.65-1.176.65-2.11Zm11.437.023c0 .66-.082 1.262-.246 1.805a3.81 3.81 0 0 1-.75 1.394c-.332.39-.754.692-1.265.903-.512.207-1.118.31-1.817.31-.7 0-1.305-.103-1.816-.31a3.309 3.309 0 0 1-1.272-.903 3.853 3.853 0 0 1-.744-1.4 6.247 6.247 0 0 1-.246-1.81c0-.887.145-1.659.434-2.315a3.31 3.31 0 0 1 1.347-1.535c.606-.363 1.375-.545 2.309-.545.93 0 1.693.181 2.29.545a3.286 3.286 0 0 1 1.337 1.535c.293.66.44 1.435.44 2.326Zm-6.252 0c0 .598.075 1.113.223 1.547.152.43.389.762.709.996.32.23.734.346 1.242.346.516 0 .934-.115 1.254-.346.32-.234.553-.566.697-.996.149-.434.223-.95.223-1.547 0-.898-.168-1.605-.504-2.121-.336-.516-.889-.773-1.658-.773-.512 0-.93.117-1.254.351-.32.23-.557.563-.71.996-.148.43-.222.945-.222 1.547Zm11.666-2.883c-.347 0-.656.069-.925.205a1.84 1.84 0 0 0-.674.58c-.18.254-.317.561-.41.92-.094.36-.141.764-.141 1.213 0 .606.074 1.123.223 1.553.152.426.386.752.703.978.316.223.724.335 1.224.335.348 0 .696-.04 1.043-.118a9.97 9.97 0 0 0 1.143-.334v1.524a5.503 5.503 0 0 1-1.12.334c-.366.07-.779.105-1.236.105-.883 0-1.609-.181-2.18-.545a3.283 3.283 0 0 1-1.26-1.535c-.273-.66-.41-1.43-.41-2.309 0-.648.089-1.242.264-1.78.176-.54.434-1.007.774-1.401.34-.395.76-.7 1.26-.914.5-.215 1.074-.322 1.722-.322.426 0 .852.054 1.278.164.43.105.84.252 1.23.44l-.586 1.476a9.704 9.704 0 0 0-.967-.399 2.883 2.883 0 0 0-.955-.17ZM52.087 87l-2.062-6.72h-.052l.035.726c.02.32.037.662.052 1.025.016.363.024.692.024.985V87h-1.623v-8.566h2.473l2.027 6.55h.035l2.15-6.55h2.473V87h-1.693v-4.055c0-.27.004-.58.011-.931.012-.352.026-.686.041-1.002l.036-.721h-.053L53.752 87h-1.664ZM51.8 36l-4.56 20.647L42.172 36h-4.344L32.76 56.647 28.2 36H24l6.154 26h4.633L40 40.665 45.213 62h4.633L56 36h-4.2Z"/><path fill="#fff" fill-rule="evenodd" d="M12 10a2 2 0 0 0-2 2v9a2 2 0 0 0 2 2h9a2 2 0 0 0 2-2v-9a2 2 0 0 0-2-2h-9Zm2.664 2.89h-1.91V20h1.46v-2.021l-.145-3.302L15.992 20h.996l1.923-5.323-.145 3.302V20h1.465v-7.11h-1.915l-1.826 5.22-1.826-5.22Z" clip-rule="evenodd"/></g><defs><clipPath id="clip0_2964_22032"><path fill="#fff" d="M0 0h80v100H0z"/></clipPath></defs></svg>