<svg xmlns="http://www.w3.org/2000/svg" width="80" height="100" fill="none"><g clip-path="url(#clip0_2964_22050)"><path fill="#27ABA3" d="M75 19v73.667A2.333 2.333 0 0 1 72.667 95H7.333A2.333 2.333 0 0 1 5 92.667V7.333A2.333 2.333 0 0 1 7.333 5H61l14 14Z"/><path stroke="#fff" stroke-width="2" d="M18 34h44v12H18V34Zm0 18h44v12H18V52Z"/><path fill="#000" d="M75 19H63.333A2.333 2.333 0 0 1 61 16.667V5l14 14Z" opacity=".2"/><path fill="#fff" d="M27.848 82.635c0 .965-.186 1.771-.557 2.42-.367.644-.9 1.13-1.6 1.459-.699.324-1.54.486-2.525.486H20.74v-8.566h2.69c.898 0 1.677.16 2.338.48.66.317 1.171.787 1.535 1.412.363.621.545 1.39.545 2.309Zm-1.887.047c0-.633-.094-1.153-.281-1.559a1.852 1.852 0 0 0-.82-.908c-.36-.196-.805-.293-1.337-.293h-.966V85.5h.779c.887 0 1.545-.236 1.975-.709.433-.473.65-1.176.65-2.11Zm11.437.023c0 .66-.082 1.262-.246 1.805a3.808 3.808 0 0 1-.75 1.394c-.332.39-.754.692-1.265.903-.512.207-1.117.31-1.817.31-.699 0-1.304-.103-1.816-.31a3.31 3.31 0 0 1-1.272-.903 3.851 3.851 0 0 1-.744-1.4 6.244 6.244 0 0 1-.246-1.81c0-.887.145-1.659.434-2.315a3.31 3.31 0 0 1 1.347-1.535c.606-.363 1.375-.545 2.309-.545.93 0 1.693.181 2.291.545a3.286 3.286 0 0 1 1.336 1.535c.293.66.44 1.435.44 2.326Zm-6.252 0c0 .598.075 1.113.223 1.547.152.43.389.762.71.996.32.23.733.346 1.241.346.516 0 .934-.115 1.254-.346.32-.234.553-.566.698-.996.148-.434.222-.95.222-1.547 0-.898-.168-1.605-.504-2.121-.336-.516-.888-.773-1.658-.773-.512 0-.93.117-1.254.351-.32.23-.557.563-.709.996-.148.43-.223.945-.223 1.547Zm11.666-2.883c-.347 0-.656.069-.925.205-.266.133-.49.326-.674.58-.18.254-.316.561-.41.92-.094.36-.14.764-.14 1.213 0 .606.073 1.123.222 1.553.152.426.387.752.703.978.316.223.724.335 1.224.335.348 0 .696-.04 1.044-.118.351-.078.732-.19 1.142-.334v1.524a5.503 5.503 0 0 1-1.12.334c-.366.07-.778.105-1.235.105-.883 0-1.61-.181-2.18-.545a3.284 3.284 0 0 1-1.26-1.535c-.273-.66-.41-1.43-.41-2.309 0-.648.088-1.242.264-1.78.175-.54.433-1.007.773-1.401.34-.395.76-.7 1.26-.914.5-.215 1.074-.322 1.722-.322.426 0 .852.054 1.278.164.43.105.84.252 1.23.44l-.586 1.476a9.714 9.714 0 0 0-.966-.399 2.884 2.884 0 0 0-.956-.17ZM53.752 87h-2.074l-1.992-3.24L47.692 87h-1.945l2.842-4.418-2.66-4.148h2.004l1.845 3.082 1.81-3.082h1.958l-2.69 4.248L53.752 87Zm2.865 0H54.83v-8.566h4.91v1.488h-3.123v2.209h2.906v1.482h-2.906V87Z"/></g><defs><clipPath id="clip0_2964_22050"><path fill="#fff" d="M0 0h80v100H0z"/></clipPath></defs></svg>