<svg xmlns="http://www.w3.org/2000/svg" width="80" height="100" fill="none"><g clip-path="url(#clip0_2964_22044)"><path fill="#188079" d="M75 19v73.667A2.333 2.333 0 0 1 72.667 95H7.333A2.333 2.333 0 0 1 5 92.667V7.333A2.333 2.333 0 0 1 7.333 5H61l14 14Z"/><path stroke="#fff" stroke-width="2" d="M18 39h44v20H18V39Z"/><path fill="#fff" d="M21 42h3v2h-3zm5 0h3v2h-3zm-5 12h3v2h-3zm5 0h3v2h-3zm-2-10v10h2V44z"/><path fill="#000" d="M75 19H63.333A2.333 2.333 0 0 1 61 16.667V5l14 14Z" opacity=".2"/><path fill="#fff" d="M26.389 82.705c0 .66-.082 1.262-.246 1.805a3.81 3.81 0 0 1-.75 1.394 3.26 3.26 0 0 1-1.266.903c-.512.207-1.117.31-1.816.31-.7 0-1.305-.103-1.817-.31a3.309 3.309 0 0 1-1.271-.903 3.851 3.851 0 0 1-.744-1.4 6.247 6.247 0 0 1-.247-1.81c0-.887.145-1.659.434-2.315a3.31 3.31 0 0 1 1.348-1.535c.605-.363 1.375-.545 2.308-.545.93 0 1.694.181 2.291.545a3.286 3.286 0 0 1 1.336 1.535c.293.66.44 1.435.44 2.326Zm-6.252 0c0 .598.074 1.113.222 1.547.153.43.389.762.71.996.32.23.734.346 1.242.346.515 0 .933-.115 1.253-.346.32-.234.553-.566.698-.996.148-.434.222-.95.222-1.547 0-.898-.168-1.605-.504-2.121-.335-.516-.888-.773-1.658-.773-.511 0-.93.117-1.254.351-.32.23-.556.563-.709.996-.148.43-.222.945-.222 1.547ZM29.95 87h-1.787v-8.566h4.91v1.488H29.95v2.209h2.906v1.482H29.95V87Zm12.574-4.295c0 .66-.082 1.262-.246 1.805a3.81 3.81 0 0 1-.75 1.394c-.332.39-.754.692-1.265.903-.512.207-1.117.31-1.817.31-.699 0-1.304-.103-1.816-.31a3.308 3.308 0 0 1-1.272-.903 3.851 3.851 0 0 1-.744-1.4 6.247 6.247 0 0 1-.246-1.81c0-.887.145-1.659.434-2.315a3.31 3.31 0 0 1 1.347-1.535c.606-.363 1.375-.545 2.309-.545.93 0 1.693.181 2.291.545a3.285 3.285 0 0 1 1.336 1.535c.293.66.44 1.435.44 2.326Zm-6.252 0c0 .598.075 1.113.223 1.547.152.43.389.762.71.996.32.23.733.346 1.241.346.516 0 .934-.115 1.254-.346.32-.234.553-.566.697-.996.149-.434.223-.95.223-1.547 0-.898-.168-1.605-.504-2.121-.336-.516-.889-.773-1.658-.773-.512 0-.93.117-1.254.351-.32.23-.557.563-.709.996-.148.43-.223.945-.223 1.547Zm10.524-4.271c.777 0 1.418.093 1.922.28.508.188.884.472 1.13.85.247.38.37.858.37 1.436 0 .39-.075.732-.223 1.025a2.338 2.338 0 0 1-.586.744c-.242.204-.504.37-.785.499L51.145 87h-2.016l-2.045-3.287h-.967V87h-1.816v-8.566h2.496Zm-.129 1.488h-.55v2.314h.585c.602 0 1.031-.1 1.29-.299.26-.203.392-.5.392-.89 0-.406-.14-.695-.422-.867-.278-.172-.71-.258-1.295-.258ZM55.85 87l-2.063-6.72h-.053l.035.726c.02.32.038.662.053 1.025.016.363.024.692.024.985V87h-1.623v-8.566h2.472l2.028 6.55h.035l2.15-6.55h2.473V87h-1.694v-4.055c0-.27.004-.58.012-.931.012-.352.026-.686.041-1.002l.035-.721h-.052L57.513 87H55.85Z"/></g><defs><clipPath id="clip0_2964_22044"><path fill="#fff" d="M0 0h80v100H0z"/></clipPath></defs></svg>