<svg xmlns="http://www.w3.org/2000/svg" width="80" height="100" fill="none"><g clip-path="url(#clip0_2964_22048)"><path fill="#51968F" d="M75 19v73.667A2.333 2.333 0 0 1 72.667 95H7.333A2.333 2.333 0 0 1 5 92.667V7.333A2.333 2.333 0 0 1 7.333 5H61l14 14Z"/><path fill="#000" d="M75 19H63.333A2.333 2.333 0 0 1 61 16.667V5l14 14Z" opacity=".2"/><path fill="#fff" d="M33.004 82.705c0 .66-.082 1.262-.246 1.805a3.808 3.808 0 0 1-.75 1.394c-.332.39-.754.692-1.266.903-.512.207-1.117.31-1.816.31-.7 0-1.305-.103-1.817-.31a3.309 3.309 0 0 1-1.271-.903 3.851 3.851 0 0 1-.744-1.4 6.244 6.244 0 0 1-.246-1.81c0-.887.144-1.659.433-2.315a3.31 3.31 0 0 1 1.348-1.535c.605-.363 1.375-.545 2.308-.545.93 0 1.694.181 2.291.545a3.286 3.286 0 0 1 1.337 1.535c.292.66.439 1.435.439 2.326Zm-6.252 0c0 .598.074 1.113.223 1.547.152.43.388.762.709.996.32.23.734.346 1.242.346.515 0 .933-.115 1.254-.346.32-.234.552-.566.697-.996.148-.434.223-.95.223-1.547 0-.898-.168-1.605-.504-2.121-.336-.516-.889-.773-1.659-.773-.511 0-.93.117-1.253.351-.32.23-.557.563-.71.996-.148.43-.222.945-.222 1.547ZM41.705 87h-2.074l-1.992-3.24L35.647 87H33.7l2.842-4.418-2.66-4.148h2.004l1.845 3.082 1.811-3.082H41.5l-2.69 4.248L41.706 87Zm3.815-8.566c1.105 0 1.912.238 2.42.714.507.473.761 1.125.761 1.958 0 .375-.056.734-.17 1.078-.113.34-.299.642-.556.908-.254.265-.594.476-1.02.633-.426.152-.951.228-1.576.228h-.78V87h-1.816v-8.566h2.736Zm-.094 1.488H44.6v2.543h.597c.34 0 .635-.045.885-.135.25-.09.443-.23.58-.422.137-.191.205-.437.205-.738 0-.422-.117-.734-.351-.938-.235-.207-.598-.31-1.09-.31Zm9.949 4.7c0 .507-.123.948-.37 1.323-.245.375-.605.664-1.077.868-.469.203-1.04.304-1.711.304a6.022 6.022 0 0 1-1.688-.228 5.096 5.096 0 0 1-.738-.287v-1.688c.406.18.828.342 1.266.486a4.13 4.13 0 0 0 1.3.217c.297 0 .536-.039.715-.117a.817.817 0 0 0 .399-.322.893.893 0 0 0 .123-.469.772.772 0 0 0-.217-.55 2.267 2.267 0 0 0-.598-.428c-.25-.133-.533-.276-.85-.428a9.757 9.757 0 0 1-.65-.34 3.802 3.802 0 0 1-.668-.498 2.404 2.404 0 0 1-.521-.71c-.133-.28-.2-.616-.2-1.007 0-.512.118-.95.352-1.313.235-.363.569-.64 1.002-.832.438-.195.953-.292 1.547-.292.445 0 .87.052 1.272.158.406.101.83.25 1.271.445l-.586 1.412a9.712 9.712 0 0 0-1.06-.369 3.442 3.442 0 0 0-.956-.135c-.226 0-.42.037-.58.112a.782.782 0 0 0-.486.755c0 .204.059.376.176.516.12.137.3.27.539.398.242.13.543.28.902.452.438.207.81.423 1.12.65.312.223.552.486.72.791.168.3.252.676.252 1.125Z"/><path fill="#fff" fill-rule="evenodd" d="M30 45.79V42l-14 6.158v2.684L30 57v-3.79L19.5 49.5 30 45.79Zm6 5.71a2 2 0 1 0 0-4 2 2 0 0 0 0 4Zm10-2a2 2 0 1 1-4 0 2 2 0 0 1 4 0Zm4-3.71V42l14 6.158v2.684L50 57v-3.79l10.5-3.71L50 45.79Z" clip-rule="evenodd"/></g><defs><clipPath id="clip0_2964_22048"><path fill="#fff" d="M0 0h80v100H0z"/></clipPath></defs></svg>