<svg xmlns="http://www.w3.org/2000/svg" width="80" height="100" fill="none"><g clip-path="url(#clip0_2964_22054)"><path fill="#507C8B" d="M75 19v73.667A2.333 2.333 0 0 1 72.667 95H7.333A2.333 2.333 0 0 1 5 92.667V7.333A2.333 2.333 0 0 1 7.333 5H61l14 14Z"/><path fill="#000" d="M75 19H63.333A2.333 2.333 0 0 1 61 16.667V5l14 14Z" opacity=".2"/><path fill="#fff" d="M34.58 84.621c0 .508-.123.95-.37 1.324-.245.375-.605.664-1.077.868-.469.203-1.04.304-1.711.304a6.023 6.023 0 0 1-1.688-.228 5.096 5.096 0 0 1-.738-.287v-1.688c.406.18.828.342 1.266.486a4.13 4.13 0 0 0 1.3.217c.297 0 .536-.039.715-.117a.817.817 0 0 0 .399-.322.893.893 0 0 0 .123-.469.771.771 0 0 0-.217-.55 2.264 2.264 0 0 0-.598-.428c-.25-.133-.533-.276-.85-.428a9.733 9.733 0 0 1-.65-.34 3.798 3.798 0 0 1-.668-.498 2.402 2.402 0 0 1-.521-.71c-.133-.28-.2-.616-.2-1.007 0-.512.118-.95.352-1.313.235-.363.569-.64 1.002-.832.438-.195.953-.292 1.547-.292.445 0 .87.052 1.272.158.406.101.83.25 1.271.445l-.586 1.412a9.712 9.712 0 0 0-1.06-.369 3.442 3.442 0 0 0-.956-.135c-.226 0-.42.037-.58.112a.782.782 0 0 0-.486.755c0 .204.059.376.176.516.121.137.3.27.539.398.242.13.543.28.902.452.438.207.81.423 1.12.65.312.223.552.486.72.791.168.3.252.676.252 1.125Zm8.273-6.187L39.941 87h-1.98l-2.906-8.566h1.834L38.5 83.53a26.306 26.306 0 0 1 .322 1.236c.067.262.112.48.135.651a8.12 8.12 0 0 1 .123-.65c.063-.262.123-.51.182-.745.062-.238.107-.402.135-.492l1.623-5.097h1.833Zm4.337 3.755h3.398v4.442c-.45.148-.916.267-1.4.357a9.49 9.49 0 0 1-1.647.13c-.851 0-1.574-.169-2.168-.505-.594-.336-1.045-.832-1.353-1.488-.31-.656-.463-1.463-.463-2.42 0-.898.171-1.676.515-2.332a3.635 3.635 0 0 1 1.518-1.523c.668-.36 1.482-.54 2.443-.54.453 0 .9.05 1.342.147a6.57 6.57 0 0 1 1.201.38l-.603 1.454a4.622 4.622 0 0 0-.897-.334 4.068 4.068 0 0 0-1.054-.135c-.528 0-.987.121-1.377.364a2.441 2.441 0 0 0-.903 1.02c-.21.433-.316.944-.316 1.534 0 .559.076 1.055.228 1.489.153.43.393.767.721 1.013.328.242.756.364 1.283.364.258 0 .475-.012.65-.036.18-.027.348-.054.505-.082v-1.787H47.19V82.19Zm-6.27-36.094c2.61-.443 4.6-2.74 4.6-5.509C45.52 37.501 43.049 35 40 35c-3.049 0-5.52 2.501-5.52 5.586 0 2.768 1.99 5.066 4.6 5.51V57.89l-8.38-8.48a5.606 5.606 0 0 0 1.02-3.238c0-3.085-2.471-5.586-5.52-5.586-3.049 0-5.52 2.501-5.52 5.586 0 3.086 2.471 5.587 5.52 5.587a5.45 5.45 0 0 0 3.198-1.033l9.3 9.412H27.965c-.438-2.642-2.709-4.655-5.444-4.655-3.049 0-5.52 2.5-5.52 5.586 0 .317.026.628.076.931h45.848a5.69 5.69 0 0 0 .076-.931c0-3.085-2.471-5.586-5.52-5.586-2.735 0-5.006 2.013-5.444 4.655H41.432l9.246-9.358a5.449 5.449 0 0 0 3.122.979c3.049 0 5.52-2.501 5.52-5.587 0-3.085-2.471-5.586-5.52-5.586-3.049 0-5.52 2.501-5.52 5.586 0 1.24.4 2.387 1.075 3.314l-8.435 8.537V46.094Z"/></g><defs><clipPath id="clip0_2964_22054"><path fill="#fff" d="M0 0h80v100H0z"/></clipPath></defs></svg>