<svg xmlns="http://www.w3.org/2000/svg" width="80" height="100" fill="none"><g clip-path="url(#clip0_2964_22036)"><path fill="#1F7244" d="M75 19v73.667A2.333 2.333 0 0 1 72.667 95H7.333A2.333 2.333 0 0 1 5 92.667V7.333A2.333 2.333 0 0 1 7.333 5H61l14 14Z"/><path fill="#000" d="M75 19H63.333A2.333 2.333 0 0 1 61 16.667V5l14 14Z" opacity=".2"/><path fill="#fff" d="M31.645 87H29.57l-1.992-3.24L25.586 87H23.64l2.841-4.418-2.66-4.148h2.004l1.846 3.082 1.81-3.082h1.957l-2.689 4.248L31.645 87Zm1.078 0v-8.566h1.816V85.5h3.475V87h-5.291Zm11.842-2.379c0 .508-.124.95-.37 1.324-.246.375-.605.664-1.078.868-.469.203-1.039.304-1.71.304a6.42 6.42 0 0 1-.874-.058 6.023 6.023 0 0 1-.814-.17 5.088 5.088 0 0 1-.739-.287v-1.688c.407.18.829.342 1.266.486a4.13 4.13 0 0 0 1.3.217c.298 0 .536-.039.716-.117a.818.818 0 0 0 .398-.322.893.893 0 0 0 .123-.469.772.772 0 0 0-.217-.55 2.264 2.264 0 0 0-.597-.428c-.25-.133-.534-.276-.85-.428a9.732 9.732 0 0 1-.65-.34 3.798 3.798 0 0 1-.668-.498 2.4 2.4 0 0 1-.522-.71c-.133-.28-.199-.616-.199-1.007 0-.512.117-.95.352-1.313.234-.363.568-.64 1.002-.832.437-.195.953-.292 1.547-.292.445 0 .869.052 1.271.158.406.101.83.25 1.271.445l-.586 1.412a9.712 9.712 0 0 0-1.06-.369 3.442 3.442 0 0 0-.955-.135c-.227 0-.42.037-.58.112a.781.781 0 0 0-.486.755c0 .204.058.376.175.516.121.137.301.27.54.398.242.13.542.28.902.452.437.207.81.423 1.119.65.312.223.553.486.72.791.169.3.253.676.253 1.125ZM49.745 87l-2.063-6.72h-.053l.035.726c.02.32.037.662.053 1.025.015.363.023.692.023.985V87h-1.623v-8.566h2.473l2.027 6.55h.035l2.15-6.55h2.473V87h-1.693v-4.055c0-.27.004-.58.012-.931.011-.352.025-.686.04-1.002l.036-.721h-.053L51.408 87h-1.664Zm-8.254-38.283L49.638 36h-3.983L39.5 45.605 33.345 36h-3.983l8.147 12.717L29 62h3.983L39.5 51.83 46.017 62H50l-8.509-13.283Z"/><path fill="#fff" fill-rule="evenodd" d="M12 10a2 2 0 0 0-2 2v9a2 2 0 0 0 2 2h9a2 2 0 0 0 2-2v-9a2 2 0 0 0-2-2h-9Zm2.664 2.89h-1.91V20h1.46v-2.021l-.145-3.302L15.992 20h.996l1.923-5.323-.145 3.302V20h1.465v-7.11h-1.915l-1.826 5.22-1.826-5.22Z" clip-rule="evenodd"/></g><defs><clipPath id="clip0_2964_22036"><path fill="#fff" d="M0 0h80v100H0z"/></clipPath></defs></svg>