<svg xmlns="http://www.w3.org/2000/svg" width="80" height="100" fill="none"><g clip-path="url(#clip0_2964_22046)"><path fill="#51968F" d="M75 19v73.667A2.333 2.333 0 0 1 72.667 95H7.333A2.333 2.333 0 0 1 5 92.667V7.333A2.333 2.333 0 0 1 7.333 5H61l14 14Z"/><path fill="#000" d="M75 19H63.333A2.333 2.333 0 0 1 61 16.667V5l14 14Z" opacity=".2"/><path fill="#fff" d="M36.93 87h-2.075l-1.992-3.24L30.871 87h-1.945l2.842-4.418-2.66-4.148h2.003l1.846 3.082 1.81-3.082h1.958l-2.69 4.248L36.93 87Zm3.814-8.566c1.106 0 1.912.238 2.42.714.508.473.762 1.125.762 1.958 0 .375-.057.734-.17 1.078-.113.34-.299.642-.557.908-.254.265-.593.476-1.02.633-.425.152-.95.228-1.576.228h-.779V87h-1.816v-8.566h2.736Zm-.094 1.488h-.826v2.543h.598c.34 0 .635-.045.885-.135.25-.09.443-.23.58-.422.136-.191.205-.437.205-.738 0-.422-.117-.734-.352-.938-.234-.207-.597-.31-1.09-.31Zm9.95 4.7c0 .507-.123.948-.37 1.323-.246.375-.605.664-1.078.868-.468.203-1.039.304-1.71.304a6.022 6.022 0 0 1-1.688-.228 5.096 5.096 0 0 1-.738-.287v-1.688c.406.18.828.342 1.265.486a4.13 4.13 0 0 0 1.301.217c.297 0 .535-.039.715-.117a.817.817 0 0 0 .398-.322.893.893 0 0 0 .123-.469.772.772 0 0 0-.216-.55 2.267 2.267 0 0 0-.598-.428c-.25-.133-.533-.276-.85-.428a9.757 9.757 0 0 1-.65-.34 3.802 3.802 0 0 1-.668-.498 2.402 2.402 0 0 1-.521-.71c-.133-.28-.2-.616-.2-1.007 0-.512.117-.95.352-1.313.234-.363.568-.64 1.002-.832.437-.195.953-.292 1.547-.292.445 0 .869.052 1.271.158.406.101.83.25 1.272.445l-.586 1.412a9.72 9.72 0 0 0-1.06-.369 3.442 3.442 0 0 0-.956-.135c-.227 0-.42.037-.58.112a.781.781 0 0 0-.363.304.822.822 0 0 0-.123.451c0 .204.058.376.175.516.121.137.301.27.54.398.242.13.542.28.902.452.437.207.81.423 1.119.65.313.223.553.486.72.791.169.3.253.676.253 1.125Z"/><path fill="#fff" fill-rule="evenodd" d="M30 45.79V42l-14 6.158v2.684L30 57v-3.79L19.5 49.5 30 45.79Zm6 5.71a2 2 0 1 0 0-4 2 2 0 0 0 0 4Zm10-2a2 2 0 1 1-4 0 2 2 0 0 1 4 0Zm4-3.71V42l14 6.158v2.684L50 57v-3.79l10.5-3.71L50 45.79Z" clip-rule="evenodd"/></g><defs><clipPath id="clip0_2964_22046"><path fill="#fff" d="M0 0h80v100H0z"/></clipPath></defs></svg>