<svg xmlns="http://www.w3.org/2000/svg" width="96" height="96" fill="none"><path fill="#fff" stroke="#bfbfbf" d="M85 95.5H11A1.5 1.5 0 0 1 9.5 94V2A1.5 1.5 0 0 1 11 .5h74A1.5 1.5 0 0 1 86.5 2v92a1.5 1.5 0 0 1-1.5 1.5z"/><g fill="#444"><rect width="46" height="4" x="25" y="32" opacity=".2" rx="1"/><rect width="46" height="6" x="25" y="20" opacity=".4" rx="1"/><rect width="16" height="20" x="55" y="40" opacity=".2" rx="1"/><rect width="26" height="4" x="25" y="40" opacity=".2" rx="1"/><rect width="26" height="4" x="25" y="48" opacity=".2" rx="1"/><rect width="26" height="4" x="25" y="56" opacity=".2" rx="1"/><rect width="46" height="4" x="25" y="64" opacity=".2" rx="1"/><rect width="46" height="4" x="25" y="72" opacity=".2" rx="1"/></g></svg>