<svg xmlns="http://www.w3.org/2000/svg" style="position:absolute;width:0;height:0;overflow:hidden"><symbol id="svg-icon-Point" viewBox="0 0 20 28"><g id="Point"><path id="Ellipse 121 (Stroke)" fill-rule="evenodd" d="M9.5 17a2.5 2.5 0 1 0 0-5 2.5 2.5 0 0 0 0 5Zm0 1a3.5 3.5 0 1 0 0-7 3.5 3.5 0 0 0 0 7Z" clip-rule="evenodd"/></g></symbol><symbol id="svg-icon-StartPoint" viewBox="20 0 20 28"><g id="StartPoint"><path id="Union" fill-rule="evenodd" d="M32 14.5a2.5 2.5 0 1 1-5 0 2.5 2.5 0 0 1 5 0Zm1 0a3.5 3.5 0 1 1-7 0 3.5 3.5 0 0 1 7 0ZM29.5 18h.5v2h-1v-2h.5Zm.5 4v2h-1v-2h1Zm0 6v-2h-1v2h1Z" clip-rule="evenodd"/></g></symbol><symbol id="svg-icon-MiddlePoint" viewBox="40 0 20 28"><g id="MiddlePoint"><path id="Union_2" fill-rule="evenodd" d="M49 2h1v2h-1V2Zm.5 15a2.5 2.5 0 1 0 0-5 2.5 2.5 0 0 0 0 5Zm0 1a3.5 3.5 0 1 0 0-7h.5v-1h-1v1h.5a3.5 3.5 0 1 0 0 7Zm0 0H49v2h1v-2h-.5ZM50 6h-1v2h1V6Zm0 16v2h-1v-2h1Zm0 6v-2h-1v2h1Z" clip-rule="evenodd"/></g></symbol><symbol id="svg-icon-EndPoint" viewBox="60 0 20 28"><g id="EndPoint"><path id="Union_3" fill-rule="evenodd" d="M70 2h-1v2h1V2Zm2 12.5a2.5 2.5 0 1 1-5 0 2.5 2.5 0 0 1 5 0Zm1 0a3.5 3.5 0 1 1-7 0 3.5 3.5 0 0 1 7 0ZM69.5 11H69v-1h1v1h-.5ZM69 6h1v2h-1V6Z" clip-rule="evenodd"/></g></symbol></svg>