<svg width="0" height="0" style="position:absolute"><symbol id="btn-drop-margin" viewBox="0 0 40 40"><path fill-rule="evenodd" d="M14.811 17H17L13.01 7h-2.128L7 17h2.135l.822-2.271h3.984L14.81 17Zm-2.89-7.667 1.374 3.71h-2.72l1.347-3.71ZM33 7H19v1h14V7Zm0 3H19v1h14v-1Zm-14 3h14v1H19v-1Zm14 3H19v1h14v-1Zm-14 3h14v1H19v-1Zm14 3H19v1h14v-1Zm-14 3h14v1H19v-1Zm14 3H19v1h14v-1Zm-14 3h14v1H19v-1Z" clip-rule="evenodd"/></symbol><symbol id="btn-drop-none" viewBox="0 0 40 40"><path fill-rule="evenodd" d="M7 7h26v1H7V7Zm0 3h26v1H7v-1Zm26 3H7v1h26v-1ZM7 16h26v1H7v-1Zm26 3H7v1h26v-1ZM7 22h26v1H7v-1Zm26 3H7v1h26v-1ZM7 28h26v1H7v-1Zm26 3H7v1h26v-1Z" clip-rule="evenodd"/></symbol><symbol id="btn-drop-text" viewBox="0 0 40 40"><path fill-rule="evenodd" d="M33 7H19v1h14V7Zm0 3H19v1h14v-1Zm-14 3h14v1H19v-1Zm14 3H19v1h14v-1ZM7 19h26v1H7v-1Zm26 3H7v1h26v-1ZM7 25h26v1H7v-1Zm26 3H7v1h26v-1ZM7 31h26v1H7v-1Zm7.811-14H17L13.01 7h-2.128L7 17h2.135l.822-2.271h3.984L14.81 17Zm-2.89-7.667 1.374 3.71h-2.72l1.347-3.71Z" clip-rule="evenodd"/></symbol><symbol id="btn-none" viewBox="0 0 40 40"><path fill-rule="evenodd" d="M32 9H9v23h23V9ZM9 8H8v25h25V8H9Zm10.793 12.5-4.647-4.646.708-.708 4.646 4.647 4.646-4.647.708.708-4.647 4.646 4.647 4.646-.708.708-4.646-4.647-4.646 4.647-.708-.708 4.647-4.646Z" clip-rule="evenodd"/></symbol><symbol id="btn-page-number-bottom-center" viewBox="0 0 40 40"><path fill-rule="evenodd" d="M10 7h20v26H10V7ZM9 7a1 1 0 0 1 1-1h20a1 1 0 0 1 1 1v26a1 1 0 0 1-1 1H10a1 1 0 0 1-1-1V7Zm14 21h-6v3h6v-3Z" clip-rule="evenodd"/></symbol><symbol id="btn-page-number-bottom-left" viewBox="0 0 40 40"><path fill-rule="evenodd" d="M10 7h20v26H10V7ZM9 7a1 1 0 0 1 1-1h20a1 1 0 0 1 1 1v26a1 1 0 0 1-1 1H10a1 1 0 0 1-1-1V7Zm9 21h-6v3h6v-3Z" clip-rule="evenodd"/></symbol><symbol id="btn-page-number-bottom-right" viewBox="0 0 40 40"><path fill-rule="evenodd" d="M10 7h20v26H10V7ZM9 7a1 1 0 0 1 1-1h20a1 1 0 0 1 1 1v26a1 1 0 0 1-1 1H10a1 1 0 0 1-1-1V7Zm19 21h-6v3h6v-3Z" clip-rule="evenodd"/></symbol><symbol id="btn-page-number-top-center" viewBox="0 0 40 40"><path fill-rule="evenodd" d="M10 7h20v26H10V7ZM9 7a1 1 0 0 1 1-1h20a1 1 0 0 1 1 1v26a1 1 0 0 1-1 1H10a1 1 0 0 1-1-1V7Zm14 2h-6v3h6V9Z" clip-rule="evenodd"/></symbol><symbol id="btn-page-number-top-left" viewBox="0 0 40 40"><path fill-rule="evenodd" d="M10 7h20v26H10V7ZM9 7a1 1 0 0 1 1-1h20a1 1 0 0 1 1 1v26a1 1 0 0 1-1 1H10a1 1 0 0 1-1-1V7Zm9 2h-6v3h6V9Z" clip-rule="evenodd"/></symbol><symbol id="btn-page-number-top-right" viewBox="0 0 40 40"><path fill-rule="evenodd" d="M10 7h20v26H10V7ZM9 7a1 1 0 0 1 1-1h20a1 1 0 0 1 1 1v26a1 1 0 0 1-1 1H10a1 1 0 0 1-1-1V7Zm19 2h-6v3h6V9Z" clip-rule="evenodd"/></symbol><symbol id="btn-table-align-center" viewBox="0 0 40 40"><path fill-rule="evenodd" d="M33 8H8v1h25V8ZM8 11h25v1H8v-1Zm25 18H8v1h25v-1Zm0 3H8v1h25v-1Zm-7-17H15v11h11V15Z" clip-rule="evenodd"/></symbol><symbol id="btn-table-align-left" viewBox="0 0 40 40"><path fill-rule="evenodd" d="M33 8H8v1h25V8ZM8 11h25v1H8v-1Zm25 18H8v1h25v-1Zm0 3H8v1h25v-1ZM19 15H8v11h11V15Z" clip-rule="evenodd"/></symbol><symbol id="btn-table-align-right" viewBox="0 0 40 40"><path fill-rule="evenodd" d="M33 8H8v1h25V8ZM8 11h25v1H8v-1Zm25 18H8v1h25v-1Zm0 3H8v1h25v-1Zm0-17H22v11h11V15Z" clip-rule="evenodd"/></symbol><symbol id="btn-table-flow" viewBox="0 0 40 40"><path fill-rule="evenodd" d="M33 8H8v1h25V8ZM8 11h25v1H8v-1Zm4 3H8v1h4v-1Zm21 15H8v1h25v-1Zm0 3H8v1h25v-1Zm-4-18h4v1h-4v-1Zm-17 3H8v1h4v-1Zm17 0h4v1h-4v-1Zm-17 3H8v1h4v-1Zm17 0h4v1h-4v-1Zm-17 3H8v1h4v-1Zm17 0h4v1h-4v-1Zm-17 3H8v1h4v-1Zm17 0h4v1h-4v-1Zm-3-11H15v11h11V15Z" clip-rule="evenodd"/></symbol><symbol id="btn-wrap-behind" viewBox="0 0 40 40"><path fill-rule="evenodd" d="M4 4h32v1H4V4Zm32 3H4v1h32V7ZM4 10h32v1H4v-1Zm32 3H4v1h32v-1ZM4 16h32v1H4v-1Zm32 3H4v1h32v-1ZM4 22h32v1H4v-1Zm32 3H4v1h32v-1ZM4 28h32v1H4v-1Zm32 3H4v1h32v-1Zm0 3H4v1h32v-1Z" clip-rule="evenodd" opacity=".4"/><path fill-rule="evenodd" d="M11.102 11c-.114.352-.104.728-.1.931l.002.087s.048.392.141.982h5.992c-.6-.768-1.312-1.481-2.128-2h-3.907Zm13.88 0c-.741.539-1.393 1.247-1.946 2h5.825c.08-.59.115-.982.115-.982 0-.063.005-.14.01-.228.012-.221.029-.51-.011-.79h-3.993Zm3.728 3h-6.341a15.47 15.47 0 0 0-1.021 2h6.937c.179-.66.319-1.367.425-2Zm-.745 3H20.98c-.08.264-.12.461-.12.566 0 0 0-.269-.065-.566h-1.32c-.065.297-.065.566-.065.566 0-.106-.041-.303-.123-.566H12.07c.16.441.336.816.528 1.07.87 1.01 2.464.673 2.9.505-.056.032-.126.069-.207.111-.153.081-.346.183-.558.314H24.87a3.166 3.166 0 0 0-.676-.257c.128 0 .283.01.456.023.809.054 2.017.136 2.733-.695.22-.255.413-.63.583-1.071Zm-1.822 3H13.586c-.388.49-.705 1.137-.808 2h6.157c.027-.3.04-.602.04-.903 0-.197.1-.394.182-.557.055-.107.101-.2.108-.268-.006.127-.04 1.01.094 1.728h1.262c.131-.696.102-1.549.095-1.715a.855.855 0 0 0 .043.173c.043.135.1.32.1.64 0 .3.015.601.041.902h6.134a3.98 3.98 0 0 0-.89-2Zm.947 3h-6.057c.122.692.303 1.367.522 2h5.332c.118-.637.19-1.313.203-2Zm-.436 3h-4.706c.352.795.755 1.484 1.159 2h2.697c.333-.518.628-1.209.85-2Zm-9.925 2c.403-.516.807-1.205 1.158-2H13.23c.236.797.54 1.485.87 2h2.629Zm-3.747-3h5.298c.22-.633.4-1.308.522-2H12.75c.023.694.105 1.369.232 2Zm-1.222-9h7.149a14.63 14.63 0 0 0-1.066-2h-6.527c.117.633.266 1.34.444 2Z" clip-rule="evenodd"/></symbol><symbol id="btn-wrap-infront" viewBox="0 0 40 40"><path fill-rule="evenodd" d="M4 4h32v1H4V4Zm32 3H4v1h32V7ZM4 10h32v1H4v-1Zm32 3H4v1h32v-1ZM4 16h32v1H4v-1Zm32 3H4v1h32v-1ZM4 22h32v1H4v-1Zm32 3H4v1h32v-1ZM4 28h32v1H4v-1Zm32 3H4v1h32v-1Zm0 3H4v1h32v-1Z" clip-rule="evenodd" opacity=".4"/><path d="M27.382 18.07c1.16-1.344 1.594-6.052 1.594-6.052 0-.505.29-2.018-1.16-2.018-4.347 0-6.956 6.726-6.956 7.566 0 0 0-1.345-.725-1.345s-.725 1.345-.725 1.345c0-.84-2.608-7.398-7.101-7.398-1.45 0-1.305 1.513-1.305 1.85 0 0 .58 4.708 1.594 6.053.87 1.009 2.464.672 2.9.504-.58.337-2.755 1.177-2.755 4.036 0 3.362 1.45 6.389 2.61 6.389 1.304 0 3.623-4.035 3.623-7.903 0-.336.29-.672.29-.84 0 0-.145 2.69.724 2.69.87 0 .725-2.69.725-2.69 0 .168.145.336.145.84 0 3.868 2.319 7.903 3.623 7.903 1.305 0 2.61-3.026 2.61-6.221 0-2.859-2.175-3.867-2.9-4.036.725 0 2.32.337 3.189-.672Z"/></symbol><symbol id="btn-wrap-inline" viewBox="0 0 40 40"><path fill-rule="evenodd" d="M36 4H4v1h32V4ZM4 7h32v1H4V7Zm25 21h7v1h-7v-1Zm7 3H4v1h32v-1Zm0 3H4v1h32v-1Zm-25-6H4v1h7v-1Zm17.976-15.982s-.434 4.708-1.594 6.053c-.716.83-1.924.75-2.733.694a7.276 7.276 0 0 0-.456-.022c.725.169 2.9 1.177 2.9 4.036 0 3.195-1.305 6.221-2.61 6.221-1.304 0-3.623-4.035-3.623-7.903 0-.32-.058-.504-.101-.64-.02-.065-.038-.12-.043-.172.013.29.09 2.662-.726 2.662-.83 0-.735-2.456-.725-2.675a.915.915 0 0 1-.108.268c-.082.163-.181.36-.181.557 0 3.868-2.32 7.903-3.624 7.903-1.16 0-2.609-3.027-2.609-6.39 0-2.585 1.78-3.52 2.548-3.924.081-.042.15-.079.206-.11-.435.167-2.029.504-2.899-.505-1.014-1.345-1.594-6.053-1.594-6.053 0-.024 0-.053-.002-.087-.01-.453-.042-1.763 1.306-1.763 4.494 0 7.102 6.558 7.102 7.398 0 0 0-1.345.725-1.345s.725 1.345.725 1.345c0-.84 2.609-7.566 6.957-7.566 1.27 0 1.204 1.163 1.169 1.79a4.29 4.29 0 0 0-.01.228Z" clip-rule="evenodd"/></symbol><symbol id="btn-wrap-square" viewBox="0 0 40 40"><path fill-rule="evenodd" d="M36 4H4v1h32V4ZM4 7h32v1H4V7Zm0 3h5v1H4v-1Zm5 3H4v1h5v-1Zm-5 3h5v1H4v-1Zm5 3H4v1h5v-1Zm-5 3h5v1H4v-1Zm5 3H4v1h5v-1Zm-5 3h5v1H4v-1Zm32 3H4v1h32v-1Zm0 3H4v1h32v-1Zm0-6h-5v1h5v-1Zm-5-3h5v1h-5v-1Zm5-3h-5v1h5v-1Zm-5-3h5v1h-5v-1Zm5-3h-5v1h5v-1Zm-5-3h5v1h-5v-1Zm5-3h-5v1h5v-1Zm-7.024 2.018s-.434 4.708-1.594 6.053c-.716.83-1.924.75-2.733.694a7.276 7.276 0 0 0-.456-.022c.725.169 2.9 1.177 2.9 4.036 0 3.195-1.305 6.221-2.61 6.221-1.304 0-3.623-4.035-3.623-7.903 0-.32-.058-.504-.101-.64-.02-.065-.038-.12-.043-.172.013.29.09 2.662-.726 2.662-.83 0-.735-2.456-.725-2.675a.915.915 0 0 1-.108.268c-.082.163-.181.36-.181.557 0 3.868-2.32 7.903-3.624 7.903-1.16 0-2.609-3.027-2.609-6.39 0-2.585 1.78-3.52 2.548-3.924.081-.042.15-.079.206-.11-.435.167-2.029.504-2.899-.505-1.014-1.345-1.594-6.053-1.594-6.053 0-.024 0-.053-.002-.087-.01-.453-.042-1.763 1.306-1.763 4.494 0 7.102 6.558 7.102 7.398 0 0 0-1.345.725-1.345s.725 1.345.725 1.345c0-.84 2.609-7.566 6.957-7.566 1.27 0 1.204 1.163 1.169 1.79a4.29 4.29 0 0 0-.01.228Z" clip-rule="evenodd"/></symbol><symbol id="btn-wrap-through" viewBox="0 0 40 40"><path fill-rule="evenodd" d="M36 4H4v1h32V4ZM4 7h32v1H4V7Zm5 3H4v1h5v-1Zm-5 3h5v1H4v-1Zm6 3H4v1h6v-1Zm-6 3h7v1H4v-1Zm7 3H4v1h7v-1Zm-7 3h7v1H4v-1Zm8 3H4v1h8v-1Zm-8 3h32v1H4v-1Zm0 3h32v1H4v-1Zm13-24h6v1h-6v-1Zm4 3h-2v1h2v-1Zm-3 15h4v1h-4v-1Zm10 0h8v1h-8v-1Zm8-3h-7v1h7v-1Zm-7-3h7v1h-7v-1Zm7-3h-7v1h7v-1Zm-6-3h6v1h-6v-1Zm6-3h-5v1h5v-1Zm-5-3h5v1h-5v-1Zm-2.024 2.018s-.434 4.708-1.594 6.053c-.716.83-1.924.75-2.733.694a7.276 7.276 0 0 0-.456-.022c.725.169 2.9 1.177 2.9 4.036 0 3.195-1.305 6.221-2.61 6.221-1.304 0-3.623-4.035-3.623-7.903 0-.32-.058-.504-.101-.64-.02-.065-.038-.12-.043-.172.013.29.09 2.662-.726 2.662-.83 0-.735-2.456-.725-2.675a.915.915 0 0 1-.108.268c-.082.163-.181.36-.181.557 0 3.868-2.32 7.903-3.624 7.903-1.16 0-2.609-3.027-2.609-6.39 0-2.585 1.78-3.52 2.548-3.924.081-.042.15-.079.206-.11-.435.167-2.029.504-2.899-.505-1.014-1.345-1.594-6.053-1.594-6.053 0-.024 0-.053-.002-.087-.01-.453-.042-1.763 1.306-1.763 4.494 0 7.102 6.558 7.102 7.398 0 0 0-1.345.725-1.345s.725 1.345.725 1.345c0-.84 2.609-7.566 6.957-7.566 1.27 0 1.204 1.163 1.169 1.79a4.29 4.29 0 0 0-.01.228Z" clip-rule="evenodd"/></symbol><symbol id="btn-wrap-tight" viewBox="0 0 40 40"><path fill-rule="evenodd" d="M36 4H4v1h32V4ZM4 7h32v1H4V7Zm0 3h5v1H4v-1Zm5 3H4v1h5v-1Zm-5 3h6v1H4v-1Zm7 3H4v1h7v-1Zm-7 3h7v1H4v-1Zm7 3H4v1h7v-1Zm-7 3h8v1H4v-1Zm32 3H4v1h32v-1Zm0 3H4v1h32v-1Zm-8-6h8v1h-8v-1Zm8-3h-7v1h7v-1Zm-7-3h7v1h-7v-1Zm7-3h-7v1h7v-1Zm-6-3h6v1h-6v-1Zm6-3h-5v1h5v-1Zm-5-3h5v1h-5v-1Zm-2.024 2.018s-.434 4.708-1.594 6.053c-.716.83-1.924.75-2.733.694a7.276 7.276 0 0 0-.456-.022c.725.169 2.9 1.177 2.9 4.036 0 3.195-1.305 6.221-2.61 6.221-1.304 0-3.623-4.035-3.623-7.903 0-.32-.058-.504-.101-.64-.02-.065-.038-.12-.043-.172.013.29.09 2.662-.726 2.662-.83 0-.735-2.456-.725-2.675a.915.915 0 0 1-.108.268c-.082.163-.181.36-.181.557 0 3.868-2.32 7.903-3.624 7.903-1.16 0-2.609-3.027-2.609-6.39 0-2.585 1.78-3.52 2.548-3.924.081-.042.15-.079.206-.11-.435.167-2.029.504-2.899-.505-1.014-1.345-1.594-6.053-1.594-6.053 0-.024 0-.053-.002-.087-.01-.453-.042-1.763 1.306-1.763 4.494 0 7.102 6.558 7.102 7.398 0 0 0-1.345.725-1.345s.725 1.345.725 1.345c0-.84 2.609-7.566 6.957-7.566 1.27 0 1.204 1.163 1.169 1.79a4.29 4.29 0 0 0-.01.228Z" clip-rule="evenodd"/></symbol><symbol id="btn-wrap-topbottom" viewBox="0 0 40 40"><path fill-rule="evenodd" d="M36 4H4v1h32V4ZM4 7h32v1H4V7Zm32 24H4v1h32v-1Zm0 3H4v1h32v-1Zm-7.024-21.982s-.434 4.708-1.594 6.053c-.716.83-1.924.75-2.733.694a7.276 7.276 0 0 0-.456-.022c.725.169 2.9 1.177 2.9 4.036 0 3.195-1.305 6.221-2.61 6.221-1.304 0-3.623-4.035-3.623-7.903 0-.32-.058-.504-.101-.64-.02-.065-.038-.12-.043-.172.013.29.09 2.662-.726 2.662-.83 0-.735-2.456-.725-2.675a.915.915 0 0 1-.108.268c-.082.163-.181.36-.181.557 0 3.868-2.32 7.903-3.624 7.903-1.16 0-2.609-3.027-2.609-6.39 0-2.585 1.78-3.52 2.548-3.924.081-.042.15-.079.206-.11-.435.167-2.029.504-2.899-.505-1.014-1.345-1.594-6.053-1.594-6.053 0-.024 0-.053-.002-.087-.01-.453-.042-1.763 1.306-1.763 4.494 0 7.102 6.558 7.102 7.398 0 0 0-1.345.725-1.345s.725 1.345.725 1.345c0-.84 2.609-7.566 6.957-7.566 1.27 0 1.204 1.163 1.169 1.79a4.29 4.29 0 0 0-.01.228Z" clip-rule="evenodd"/></symbol></svg>