<svg xmlns="http://www.w3.org/2000/svg" width="24" height="24" viewBox="0 0 24 24" fill="none">
    <g opacity="0.8">
    <path d="M7.15802 17.4845L7.4592 16.7976L7.31522 16.7345H7.15802V17.4845ZM7.00016 7.48447V8.23447H7.1541L7.2956 8.17383L7.00016 7.48447ZM12.6061 5.08193L12.3106 4.39257L12.3106 4.39257L12.6061 5.08193ZM12.5984 19.87L12.8996 19.1831H12.8996L12.5984 19.87ZM7.15802 16.7345H5V18.2345H7.15802V16.7345ZM5 16.7345C4.30964 16.7345 3.75 16.1748 3.75 15.4845H2.25C2.25 17.0033 3.48122 18.2345 5 18.2345V16.7345ZM3.75 15.4845V9.48447H2.25V15.4845H3.75ZM3.75 9.48447C3.75 8.79411 4.30964 8.23447 5 8.23447V6.73447C3.48122 6.73447 2.25 7.96569 2.25 9.48447H3.75ZM5 8.23447H7.00016V6.73447H5V8.23447ZM7.2956 8.17383L12.9015 5.77129L12.3106 4.39257L6.70472 6.79511L7.2956 8.17383ZM12.9015 5.77129C13.0665 5.70059 13.25 5.8216 13.25 6.00108H14.75C14.75 4.74472 13.4654 3.89767 12.3106 4.39257L12.9015 5.77129ZM13.25 6.00108V18.9542H14.75V6.00108H13.25ZM13.25 18.9542C13.25 19.1345 13.0648 19.2555 12.8996 19.1831L12.2972 20.5568C13.4536 21.0639 14.75 20.2168 14.75 18.9542H13.25ZM12.8996 19.1831L7.4592 16.7976L6.85684 18.1713L12.2972 20.5568L12.8996 19.1831Z" fill="white"/>
    </g>
    <g opacity="0.8">
    <path d="M18 14.2427L22.2426 10" stroke="white" stroke-width="1.5" stroke-linecap="round" stroke-linejoin="round"/>
    <path d="M22.2422 14.2427L17.9995 10" stroke="white" stroke-width="1.5" stroke-linecap="round" stroke-linejoin="round"/>
    </g>
    </svg>