<svg xmlns="http://www.w3.org/2000/svg" width="24" height="24" viewBox="0 0 24 24" fill="none">
    <g opacity="0.8">
    <path d="M7.12053 17.4845L7.42033 16.797L7.27695 16.7345H7.12053V17.4845ZM7.00016 7.48447V8.23447H7.1541L7.2956 8.17383L7.00016 7.48447ZM12.6061 5.08193L12.3106 4.39257L12.3106 4.39257L12.6061 5.08193ZM12.6003 19.8741L12.3005 20.5616L12.6003 19.8741ZM7.12053 16.7345H5V18.2345H7.12053V16.7345ZM5 16.7345C4.30964 16.7345 3.75 16.1748 3.75 15.4845H2.25C2.25 17.0033 3.48122 18.2345 5 18.2345V16.7345ZM3.75 15.4845V9.48447H2.25V15.4845H3.75ZM3.75 9.48447C3.75 8.79411 4.30964 8.23447 5 8.23447V6.73447C3.48122 6.73447 2.25 7.96569 2.25 9.48447H3.75ZM5 8.23447H7.00016V6.73447H5V8.23447ZM7.2956 8.17383L12.9015 5.77129L12.3106 4.39257L6.70472 6.79511L7.2956 8.17383ZM12.9015 5.77129C13.0665 5.70059 13.25 5.8216 13.25 6.00108H14.75C14.75 4.74472 13.4654 3.89767 12.3106 4.39257L12.9015 5.77129ZM13.25 6.00108V18.9575H14.75V6.00108H13.25ZM13.25 18.9575C13.25 19.1377 13.0652 19.2587 12.9001 19.1867L12.3005 20.5616C13.4565 21.0657 14.75 20.2186 14.75 18.9575H13.25ZM12.9001 19.1867L7.42033 16.797L6.82073 18.1719L12.3005 20.5616L12.9001 19.1867Z" fill="white"/>
    <path d="M17.625 10.4849C17.8679 11.2753 17.9986 12.1148 17.9986 12.9849C17.9986 13.8549 17.8679 14.6944 17.625 15.4849" stroke="white" stroke-width="1.5" stroke-linecap="round"/>
    <path d="M19.3359 6.48486C20.3972 8.41302 21.0009 10.6284 21.0009 12.9849C21.0009 14.9436 20 17.4849 19.3359 18.4849" stroke="white" stroke-width="1.5" stroke-linecap="round" stroke-linejoin="round"/>
    </g>
    </svg>