<svg xmlns="http://www.w3.org/2000/svg" aria-hidden="true" style="position:absolute;width:0;height:0;overflow:hidden"><symbol id="solid-s" viewBox="0 0 60 1"><path d="M0 0h60v1H0V0Z"/></symbol><symbol id="dots-s" preserveAspectRatio="xMidYMid meet" viewBox="0 0 59 1"><path d="M0 0h1v1H0V0Zm2 0h1v1H2V0Zm2 0h1v1H4V0Zm2 0h1v1H6V0Zm2 0h1v1H8V0Zm2 0h1v1h-1V0Zm2 0h1v1h-1V0Zm2 0h1v1h-1V0Zm2 0h1v1h-1V0Zm2 0h1v1h-1V0Zm2 0h1v1h-1V0Zm2 0h1v1h-1V0Zm2 0h1v1h-1V0Zm2 0h1v1h-1V0Zm2 0h1v1h-1V0Zm2 0h1v1h-1V0Zm2 0h1v1h-1V0Zm2 0h1v1h-1V0Zm2 0h1v1h-1V0Zm2 0h1v1h-1V0Zm2 0h1v1h-1V0Zm2 0h1v1h-1V0Zm2 0h1v1h-1V0Zm2 0h1v1h-1V0Zm2 0h1v1h-1V0Zm2 0h1v1h-1V0Zm2 0h1v1h-1V0Zm2 0h1v1h-1V0Zm2 0h1v1h-1V0Zm2 0h1v1h-1V0Z"/></symbol><symbol id="dashes-s" preserveAspectRatio="xMidYMid meet" viewBox="0 0 58 1"><path d="M0 0h2v1H0V0Zm4 0h2v1H4V0Zm4 0h2v1H8V0Zm4 0h2v1h-2V0Zm4 0h2v1h-2V0Zm4 0h2v1h-2V0Zm4 0h2v1h-2V0Zm4 0h2v1h-2V0Zm4 0h2v1h-2V0Zm4 0h2v1h-2V0Zm4 0h2v1h-2V0Zm4 0h2v1h-2V0Zm4 0h2v1h-2V0Zm4 0h2v1h-2V0Zm4 0h2v1h-2V0Z"/></symbol><symbol id="dashes-m" preserveAspectRatio="xMidYMid meet" viewBox="0 0 59 1"><path d="M0 0h3v1H0V0Zm4 0h3v1H4V0Zm4 0h3v1H8V0Zm4 0h3v1h-3V0Zm4 0h3v1h-3V0Zm4 0h3v1h-3V0Zm4 0h3v1h-3V0Zm4 0h3v1h-3V0Zm4 0h3v1h-3V0Zm4 0h3v1h-3V0Zm4 0h3v1h-3V0Zm4 0h3v1h-3V0Zm4 0h3v1h-3V0Zm4 0h3v1h-3V0Zm4 0h3v1h-3V0Z"/></symbol><symbol id="dash-dot-s" preserveAspectRatio="xMidYMid meet" viewBox="0 0 60 1"><path d="M0 0h9v1H0V0Zm12 0h3v1h-3V0Zm6 0h9v1h-9V0Zm12 0h3v1h-3V0Zm6 0h9v1h-9V0Zm12 0h3v1h-3V0Zm6 0h6v1h-6V0Z"/></symbol><symbol id="dash-dot-dot-s" preserveAspectRatio="xMidYMid meet" viewBox="0 0 57 1"><path d="M0 0h9v1H0V0Zm12 0h3v1h-3V0Zm6 0h3v1h-3V0Zm6 0h9v1h-9V0Zm12 0h3v1h-3V0Zm6 0h3v1h-3V0Zm6 0h9v1h-9V0Z"/></symbol><symbol id="solid-m" preserveAspectRatio="xMidYMid meet" viewBox="0 0 60 2"><path d="M0 0h60v2H0V0Z"/></symbol><symbol id="dashes-l" preserveAspectRatio="xMidYMid meet" viewBox="0 0 57 2"><path d="M0 0h9v2H0V0Zm12 0h9v2h-9V0Zm12 0h9v2h-9V0Zm12 0h9v2h-9V0Zm12 0h9v2h-9V0Z"/></symbol><symbol id="dash-dot-m" preserveAspectRatio="xMidYMid meet" viewBox="0 0 60 2"><path d="M0 0h9v2H0V0Zm12 0h3v2h-3V0Zm6 0h9v2h-9V0Zm12 0h3v2h-3V0Zm6 0h9v2h-9V0Zm12 0h3v2h-3V0Zm6 0h6v2h-6V0Z"/></symbol><symbol id="dash-dot-dot-m" preserveAspectRatio="xMidYMid meet" viewBox="0 0 57 2"><path d="M0 0h9v2H0V0Zm12 0h3v2h-3V0Zm6 0h3v2h-3V0Zm6 0h9v2h-9V0Zm12 0h3v2h-3V0Zm6 0h3v2h-3V0Zm6 0h9v2h-9V0Z"/></symbol><symbol id="solid-l" preserveAspectRatio="xMidYMid meet" viewBox="0 0 60 3"><path d="M0 0h60v3H0V0Z"/></symbol></svg>