<svg xmlns="http://www.w3.org/2000/svg" width="96" height="96" fill="none"><path fill="#fff" stroke="#BFBFBF" d="M94 9.5a1.5 1.5 0 0 1 1.5 1.5v74a1.5 1.5 0 0 1-1.5 1.5H2A1.5 1.5 0 0 1 .5 85V11A1.5 1.5 0 0 1 2 9.5h92Z"/><rect width="64" height="8" x="16" y="25" fill="#444" opacity=".4" rx="1"/><rect width="4" height="4" x="54" y="45" fill="#444" opacity=".4" rx="1"/><rect width="4" height="4" x="54" y="53" fill="#444" opacity=".4" rx="1"/><rect width="4" height="4" x="54" y="61" fill="#444" opacity=".4" rx="1"/><rect width="20" height="4" x="60" y="45" fill="#444" opacity=".2" rx="1"/><rect width="20" height="4" x="60" y="53" fill="#444" opacity=".2" rx="1"/><rect width="20" height="4" x="60" y="61" fill="#444" opacity=".2" rx="1"/><path fill="#444" d="M44 56a14 14 0 1 1-14-14v14h14Z" opacity=".2"/><path fill="#444" d="M32 40a14 14 0 0 1 14 14H32V40Z" opacity=".4"/></svg>