<svg t="1701001495943" class="icon" viewBox="0 0 1024 1024" version="1.1" xmlns="http://www.w3.org/2000/svg" p-id="4872" width="200" height="200"><path d="M465.962667 173.930667c33.024 0 64.362667 25.898667 64.362666 64.128v547.882666c0 38.229333-31.338667 64.128-64.362666 64.128a62.869333 62.869333 0 0 1-41.514667-15.744l-149.397333-129.322666H186.325333a104 104 0 0 1-104-104V423.466667a104 104 0 0 1 103.466667-104l89.258667-0.469334 149.397333-129.322666a62.890667 62.890667 0 0 1 41.514667-15.744z m0.362666 64.128l-149.397333 129.322666a64 64 0 0 1-41.557333 15.616l-89.258667 0.469334A40.106667 40.106667 0 0 0 146.346667 423.466667v177.536c0 22.08 17.92 40 40 40h88.725333a64 64 0 0 1 41.877333 15.616l149.397334 129.322666V238.058667z m375.893334 137.472a32 32 0 0 1 45.248 45.248L796.266667 512l91.2 91.221333a32 32 0 1 1-45.226667 45.248l-91.242667-91.221333-91.2 91.221333a32 32 0 1 1-45.269333-45.248L705.749333 512l-91.221333-91.221333a32 32 0 0 1 45.269333-45.248l91.2 91.221333z" fill="#ffffff" p-id="4873"></path></svg>